<?xml  version="1.0" encoding="UTF-8"?>
<!DOCTYPE svg PUBLIC "-//W3C//DTD SVG 1.0//EN" "http://www.w3.org/TR/2001/REC-SVG-20010904/DTD/svg10.dtd" >
<svg xmlns="http://www.w3.org/2000/svg" >
<metadata>
<version>1.0</version>
<id><![CDATA[Square 721 W01 Roman]]></id>
<vendor>Monotype Imaging Inc.</vendor>
<credits>
<name>Fonts.com WebFonts</name>
<URL>http://webfonts.fonts.com</URL>
<role>Home of the Web fonts</role>
</credits>
<license>
<URL>http://webfonts.fonts.com/Legal</URL>
</license>
<copyright><![CDATA[Copyright 1990-2003 Bitstream Inc. All rights reserved.]]></copyright>
<trademark></trademark>
<licensee>
<name></name>
</licensee>
</metadata>
<defs >
<font horiz-adv-x="1207" id="6989e5ff-17fe-4faf-b52c-d192bfa8a986">
<font-face font-family="" panose-1="2 11 5 4 2 2 2 6 2 4" ascent="2028" descent="-483" units-per-em="2048" alphabetic="0">
</font-face>
<missing-glyph horiz-adv-x="0" />

<glyph unicode="&#xA;" />
<glyph unicode="&#xD;" horiz-adv-x="0" />
<glyph unicode=" " horiz-adv-x="692" />
<glyph unicode="!" horiz-adv-x="516" d="M180 0V193H336V0H180ZM190 399L180 1489H336L328 399H190Z"  />
<glyph unicode="&quot;" horiz-adv-x="569" d="M199 1434V881H98V1434H199ZM473 1434V881H371V1434H473Z"  />
<glyph unicode="#" horiz-adv-x="1575" d="M918 1454L750 971H1014L1186 1454H1313L1143 971H1458L1421 864H1104L1006 588H1346L1309 479H969L799 0H670L842 479H573L401 0H274L444 479H117L156 588H481L582 864H229L264 971H618L791 1454H918ZM975 864H709L612 588H879L975 864Z"  />
<glyph unicode="$" horiz-adv-x="1384" d="M137 485H293Q293 474 292 452T291 420Q291 255 346 196T555 137Q584 137 599 137T628 139V686Q358 689 256 775T154 1081Q154 1310 249 1409T563 1509Q589 1509 603 1509T629 1508V1612H772V1507H813Q1036 1507 1133 1425T1231 1153Q1231 1139 1230 1122T1226 1069H1070Q1070 1080 1070 1094T1071 1133Q1071 1260 1016 1305T801 1350H772V838Q1045 831 1146 744T1247 432Q1247 188 1153 82T844 -25Q815 -25 800 -25T772 -23V-119H629V-23Q619 -23 600 -24T573 -25Q341 -25 237 74T133 395Q133 420 137 475Q137 482 137 485ZM772 133H811Q972 133 1029 193T1087 426Q1087 572 1024 623T773 680L772 133ZM629 1354H586Q426 1354 370 1299T313 1081Q313 948 371 903T629 844V1354Z"  />
<glyph unicode="%" horiz-adv-x="1858" d="M1389 -18Q1219 -18 1152 52T1085 301V614Q1085 793 1152 863T1389 934H1479Q1648 934 1716 864T1784 614V301Q1784 121 1717 52T1479 -18H1389ZM379 555Q208 555 141 625T74 872V1188Q74 1366 142 1436T379 1507H469Q638 1507 705 1438T772 1188V872Q772 692 706 624T469 555H379ZM1399 117H1470Q1583 117 1618 154T1653 332V584Q1653 725 1617 763T1470 801H1399Q1289 801 1253 763T1217 584V332Q1217 192 1251 155T1399 117ZM387 690H461Q572 690 606 727T641 905V1157Q641 1299 606 1336T461 1374H387Q277 1374 241 1336T205 1157V905Q205 765 239 728T387 690ZM594 -18L1120 1507H1262L735 -18H594Z"  />
<glyph unicode="&amp;" horiz-adv-x="1489" d="M1208 184Q1157 70 1042 25T637 -20Q431 -20 339 8T188 106Q149 153 131 237T113 467Q113 657 175 749T381 870Q311 919 278 996T244 1186Q244 1366 338 1436T688 1507Q929 1507 1034 1431T1139 1182V1057H973V1171Q973 1278 928 1315T688 1352Q501 1352 459 1319T416 1186Q416 1044 556 927L567 918L1104 469V676H1270V457Q1270 435 1267 406T1257 340L1538 106L1442 -10L1208 184ZM1073 299L525 757Q389 755 336 692T283 451Q283 326 296 273T342 193Q377 162 452 150T725 137Q888 137 969 175T1073 299Z"  />
<glyph unicode="&apos;" horiz-adv-x="295" d="M199 1434V881H98V1434H199Z"  />
<glyph unicode="(" horiz-adv-x="664" d="M152 997Q152 1283 232 1395T514 1507H578V1352H532Q407 1352 366 1290T324 991V498Q324 261 365 199T532 137H578V-18H514Q313 -18 233 94T152 492V997Z"  />
<glyph unicode=")" horiz-adv-x="664" d="M512 997V492Q512 206 431 94T150 -18H86V137H131Q257 137 298 199T340 498V991Q340 1228 299 1290T131 1352H86V1507H150Q350 1507 431 1395T512 997Z"  />
<glyph unicode="*" horiz-adv-x="1024" d="M250 1440L362 1505L506 1260L391 1194L250 1440ZM662 1505L774 1440L633 1192L518 1260L662 1505ZM639 1049V1182H924V1049H639ZM518 973L633 1038L774 793L662 727L518 973ZM383 1049H100V1182H383V1049ZM391 1038L506 973L362 725L250 791L391 1038Z"  />
<glyph unicode="+" horiz-adv-x="1706" d="M903 1221V659H1452V561H903V0H805V561H254V659H805V1221H903Z"  />
<glyph unicode="&#x2c;" horiz-adv-x="692" d="M258 0V217H434V-45Q434 -124 388 -167T258 -211V-119Q298 -115 315 -98T332 -45V0H258Z"  />
<glyph unicode="-" horiz-adv-x="825" d="M133 485V625H692V485H133Z"  />
<glyph unicode="." horiz-adv-x="692" d="M133 0V217H307V0H133Z"  />
<glyph unicode="/" horiz-adv-x="545" d="M90 -190H-47L481 1507H621L90 -190Z"  />
<glyph unicode="0" horiz-adv-x="1384" d="M621 -18Q349 -18 241 94T133 492V997Q133 1283 241 1395T621 1507H764Q1036 1507 1143 1395T1251 997V492Q1251 206 1144 94T764 -18H621ZM627 135H758Q875 135 928 150T1018 203Q1053 239 1067 295T1081 494V518V993Q1081 1136 1067 1192T1018 1284Q981 1322 925 1338T758 1354H627Q508 1354 455 1339T367 1286Q332 1250 318 1194T303 993V969V496Q303 352 317 296T367 203Q401 166 454 151T627 135Z"  />
<glyph unicode="1" horiz-adv-x="1384" d="M731 0V1341L381 989L279 1090L678 1489H893V0H731Z"  />
<glyph unicode="2" horiz-adv-x="1384" d="M150 0V252Q150 369 168 436T227 553Q266 599 325 631T522 700L858 793Q936 814 986 839T1055 893Q1069 913 1075 949T1081 1090Q1081 1198 1067 1241T1018 1311Q988 1333 900 1343T651 1354Q436 1354 378 1307T319 1106V1018H150V1116Q150 1337 255 1422T662 1507Q836 1507 922 1499T1053 1470Q1162 1422 1203 1344T1245 1075Q1245 865 1183 782T946 649L530 532Q396 494 358 450T319 319V156H1245V0H150Z"  />
<glyph unicode="3" horiz-adv-x="1384" d="M145 494H311V360Q311 229 381 182T705 135Q882 135 952 153T1053 215Q1067 237 1073 284T1079 453Q1079 593 1023 637T819 682H592V834H799Q947 834 1000 884T1053 1100Q1053 1211 1042 1249T1001 1311Q976 1332 899 1342T674 1352Q460 1352 399 1312T338 1157V1022H172V1153Q172 1344 284 1425T670 1507Q846 1507 932 1498T1067 1464Q1153 1423 1188 1348T1223 1110Q1223 932 1177 862T1014 766Q1144 740 1195 669T1247 436Q1247 335 1238 269T1208 154Q1168 59 1065 21T709 -18Q474 -18 391 1T254 70Q198 121 172 195T145 377V494Z"  />
<glyph unicode="4" horiz-adv-x="1384" d="M113 346V537L842 1489H1071V504H1298V346H1071V0H905V346H113ZM274 504H905V1325L274 504Z"  />
<glyph unicode="5" horiz-adv-x="1384" d="M141 436H307V338Q307 220 375 178T680 135H731Q860 135 915 154T1010 221Q1032 247 1041 288T1051 428V455V496Q1051 611 1044 664T1018 754Q985 818 916 844T688 870Q485 870 412 839T334 727H170V1489H1153V1331H334V903Q378 964 450 989T709 1014Q873 1014 952 996T1085 936Q1158 877 1188 785T1219 502Q1219 321 1195 233T1112 90Q1048 31 962 7T690 -18Q461 -18 369 8T221 98Q182 145 162 207T141 340V436Z"  />
<glyph unicode="6" horiz-adv-x="1384" d="M1083 350V563Q1083 682 1019 722T698 762Q547 762 470 746T358 692Q333 666 322 616T311 465Q311 371 319 316T346 238Q387 184 460 163T745 141Q958 141 1020 181T1083 350ZM156 416V1100Q156 1323 255 1415T594 1507H825Q1053 1507 1152 1431T1251 1180V1100H1085V1147Q1085 1267 1020 1308T729 1350Q574 1350 502 1341T395 1309Q359 1286 336 1233T313 1116V764Q353 846 442 879T735 913Q1015 913 1131 843T1247 610V340Q1247 233 1216 159T1124 45Q1068 9 984 -5T672 -20Q379 -20 268 76T156 416Z"  />
<glyph unicode="7" horiz-adv-x="1384" d="M174 1331V1489H1243V1325L524 0H326L1069 1331H174Z"  />
<glyph unicode="8" horiz-adv-x="1384" d="M350 774Q247 801 206 870T164 1094Q164 1216 176 1275T219 1380Q266 1450 369 1478T700 1507Q872 1507 973 1490T1118 1434Q1176 1385 1199 1317T1223 1106Q1223 941 1179 868T1030 774Q1149 743 1196 671T1243 430Q1243 268 1222 192T1151 70Q1098 22 996 2T676 -18Q458 -18 357 11T199 111Q168 149 155 217T141 426Q141 599 187 671T350 774ZM690 137Q837 137 908 148T1012 186Q1048 214 1062 260T1077 412Q1077 498 1069 540T1042 612Q1013 658 943 676T690 694Q534 694 467 683T367 645Q335 618 321 568T307 430Q307 323 318 277T354 203Q387 168 462 153T690 137ZM702 842Q927 842 990 889T1053 1090Q1053 1179 1046 1218T1022 1282Q998 1319 921 1335T688 1352Q549 1352 476 1340T373 1298Q350 1277 341 1236T332 1081Q332 935 396 889T702 842Z"  />
<glyph unicode="9" horiz-adv-x="1384" d="M1208 1071V385Q1208 163 1109 72T770 -20H539Q310 -20 212 55T113 305V385H279V338Q279 217 344 176T635 135Q790 135 862 144T969 176Q1005 199 1028 252T1051 369V725Q1011 642 922 608T627 573Q346 573 232 642T117 874V1147Q117 1253 147 1326T240 1440Q297 1477 384 1492T690 1507Q984 1507 1096 1411T1208 1071ZM281 1135V922Q281 803 345 763T666 723Q817 723 894 739T1006 793Q1030 818 1040 867T1051 1020Q1051 1118 1043 1172T1018 1247Q976 1302 901 1324T616 1346Q406 1346 344 1306T281 1135Z"  />
<glyph unicode=":" horiz-adv-x="692" d="M258 834V1053H434V834H258ZM258 0V217H434V0H258Z"  />
<glyph unicode=";" horiz-adv-x="692" d="M258 0V217H434V-45Q434 -124 388 -167T258 -211V-119Q298 -115 315 -98T332 -45V0H258ZM258 834V1053H434V834H258Z"  />
<glyph unicode="&lt;" horiz-adv-x="1706" d="M1442 1026L420 610L1442 197V88L264 569V651L1442 1135V1026Z"  />
<glyph unicode="=" horiz-adv-x="1706" d="M1452 846V748H254V846H1452ZM1452 473V375H254V473H1452Z"  />
<glyph unicode="&gt;" horiz-adv-x="1706" d="M1442 651V569L264 88V197L1286 610L264 1026V1135L1442 651Z"  />
<glyph unicode="?" horiz-adv-x="1063" d="M383 408V526Q383 615 424 669T619 791L631 796Q776 858 807 903Q826 931 835 984T844 1118Q844 1254 796 1304T604 1354Q449 1354 386 1346T297 1319Q267 1296 254 1246T240 1106Q240 1076 240 1060T241 1028H78V1176Q78 1357 182 1432T553 1507Q817 1507 910 1423T1004 1114Q1004 927 965 840T827 707Q798 693 745 670Q549 584 549 483V408H383ZM383 0V190H549V0H383Z"  />
<glyph unicode="@" horiz-adv-x="2048" d="M1210 469L1272 717Q1254 810 1197 862T1057 915Q903 915 803 782T702 444Q702 333 757 271T909 209Q1016 209 1098 280T1210 469ZM1298 836L1358 961H1452L1313 399Q1303 355 1300 337T1296 307Q1296 264 1324 240T1403 215Q1455 215 1509 236T1614 297Q1711 374 1765 501T1819 784Q1819 1038 1621 1201T1112 1364Q937 1364 792 1315T530 1165Q383 1039 308 875T233 512Q233 338 293 207T477 -25Q579 -107 721 -153T1022 -199Q1193 -199 1356 -150T1657 -6L1696 -61Q1549 -172 1385 -227T1042 -283Q851 -283 695 -237T420 -98Q265 20 191 175T117 537Q117 741 203 918T455 1233Q587 1342 753 1398T1114 1454Q1276 1454 1422 1410T1671 1286Q1800 1187 1865 1058T1931 778Q1931 607 1869 469T1688 236Q1618 182 1539 154T1378 125Q1281 125 1234 162T1186 276Q1186 280 1187 290T1188 305Q1137 218 1061 172T893 125Q740 125 660 208T580 453Q580 683 715 841T1044 999Q1138 999 1202 958T1298 836Z"  />
<glyph unicode="A" horiz-adv-x="1417" d="M23 0L573 1489H844L1397 0H1227L1085 381H332L193 0H23ZM387 528H1032L735 1331H682L387 528Z"  />
<glyph unicode="B" horiz-adv-x="1436" d="M184 0V1489H877Q1117 1489 1195 1416T1274 1118Q1274 945 1236 876T1100 780Q1218 750 1264 674T1311 416Q1311 170 1214 85T825 0H184ZM346 156H889Q1037 156 1088 201T1139 438Q1139 599 1082 646T786 694H346V156ZM346 846H883Q1014 846 1059 893T1104 1100Q1104 1253 1056 1292T811 1331H346V846Z"  />
<glyph unicode="C" horiz-adv-x="1399" d="M133 997Q133 1283 242 1395T629 1507H803Q1078 1507 1189 1411T1300 1083V1018H1130V1059Q1130 1228 1061 1290T791 1352H676Q541 1352 480 1336T377 1280Q336 1242 320 1181T303 956V532Q303 370 319 309T377 209Q418 170 476 154T676 137H791Q997 137 1065 202T1133 451Q1133 479 1133 494T1131 522H1300V424Q1300 176 1193 79T803 -18H629Q352 -18 243 94T133 492V997Z"  />
<glyph unicode="D" horiz-adv-x="1536" d="M344 147H872Q1087 147 1160 220T1233 498V979Q1233 1195 1161 1268T872 1341H344V147ZM180 0V1489H899Q1179 1489 1292 1378T1405 991V500Q1405 223 1292 112T899 0H180Z"  />
<glyph unicode="E" horiz-adv-x="1309" d="M180 0V1489H1225V1331H344V844H1200V692H344V156H1225V0H180Z"  />
<glyph unicode="F" horiz-adv-x="1214" d="M180 0V1489H1110V1331H344V844H1087V692H344V0H180Z"  />
<glyph unicode="G" horiz-adv-x="1503" d="M123 997Q123 1282 241 1394T659 1507H848Q1123 1507 1253 1414T1384 1122V1059H1214V1077Q1214 1231 1136 1291T838 1352H707Q554 1352 487 1335T373 1278Q330 1241 313 1179T295 956V532Q295 372 312 310T373 211Q420 171 485 154T707 137H838Q980 137 1039 152T1141 203Q1181 237 1197 296T1214 498V590H801V741H1384V492Q1384 206 1266 94T848 -18H659Q359 -18 241 94T123 492V997Z"  />
<glyph unicode="H" horiz-adv-x="1546" d="M180 0V1489H344V846H1202V1489H1366V0H1202V690H344V0H180Z"  />
<glyph unicode="I" horiz-adv-x="526" d="M180 0V1489H346V0H180Z"  />
<glyph unicode="J" horiz-adv-x="1208" d="M47 522H213V498Q213 266 266 202T485 137H604Q771 137 824 201T877 498V1489H1042V449Q1042 198 945 90T618 -18H471Q234 -18 141 93T47 492V522Z"  />
<glyph unicode="K" horiz-adv-x="1370" d="M180 0V1489H344V858H471L1075 1489H1292L606 778L1380 0H1155L471 698H344V0H180Z"  />
<glyph unicode="L" horiz-adv-x="1223" d="M180 0V1489H342V156H1186V0H180Z"  />
<glyph unicode="M" horiz-adv-x="1919" d="M180 0V1489H451L961 162L1466 1489H1739V0H1575V1350L1061 0H858L344 1350V0H180Z"  />
<glyph unicode="N" horiz-adv-x="1587" d="M180 0V1489H434L1241 160V1489H1405V0H1151L344 1331V0H180Z"  />
<glyph unicode="O" horiz-adv-x="1526" d="M133 997Q133 1282 251 1394T670 1507H858Q1162 1507 1278 1396T1395 997V492Q1395 206 1277 94T858 -18H670Q369 -18 251 94T133 492V997ZM809 1352H717Q560 1352 495 1335T383 1278Q339 1240 321 1176T303 954V532Q303 376 321 313T383 211Q430 171 495 154T717 137H809Q966 137 1032 154T1145 211Q1188 248 1205 310T1223 532V956Q1223 1113 1205 1177T1143 1280Q1097 1319 1032 1335T809 1352Z"  />
<glyph unicode="P" horiz-adv-x="1341" d="M180 0V1489H807Q1058 1489 1152 1415T1247 1149V924Q1247 728 1154 653T807 578H344V0H180ZM1075 924V1143Q1075 1251 1025 1291T805 1331H344V735H805Q971 735 1023 776T1075 924Z"  />
<glyph unicode="Q" horiz-adv-x="1526" d="M133 997Q133 1282 251 1394T670 1507H858Q1162 1507 1278 1396T1395 997V492Q1395 349 1378 278T1319 162L1409 72L1300 -39L1206 57Q1165 16 1091 -1T858 -18H670Q369 -18 251 94T133 492V997ZM1223 498V956Q1223 1113 1205 1177T1143 1280Q1097 1319 1032 1335T809 1352H717Q560 1352 495 1335T383 1278Q339 1240 321 1176T303 954V532Q303 376 321 313T383 211Q430 171 495 154T717 137H846Q965 137 1020 143T1100 164L819 444L924 551L1208 271Q1215 312 1219 370T1223 498Z"  />
<glyph unicode="R" horiz-adv-x="1432" d="M180 0V1489H852Q1103 1489 1197 1415T1292 1149V924Q1292 807 1245 741T1100 657Q1206 632 1249 566T1292 358V0H1120V307Q1120 467 1070 523T872 580H344V0H180ZM819 1331H344V735H819Q1005 735 1062 781T1120 946V1120Q1120 1241 1065 1286T819 1331Z"  />
<glyph unicode="S" horiz-adv-x="1460" d="M139 485H305V457Q305 324 325 261T391 172Q427 152 502 144T811 135Q938 135 1008 151T1112 205Q1131 225 1140 273T1149 403Q1149 569 1116 611T983 662L524 698Q318 714 239 801T160 1094Q160 1224 186 1303T270 1434Q315 1474 396 1490T682 1507H735Q964 1507 1057 1485T1214 1409Q1257 1373 1277 1307T1298 1141Q1298 1112 1298 1097T1296 1069H1130V1106Q1130 1188 1121 1231T1090 1296Q1059 1327 980 1339T678 1352Q448 1352 389 1300T330 1092Q330 964 368 916T517 858L985 819Q1169 803 1243 718T1317 432Q1317 286 1298 213T1235 90Q1181 29 1090 5T756 -20H682Q476 -20 391 1T248 74Q192 122 166 204T139 412V485Z"  />
<glyph unicode="T" horiz-adv-x="1069" d="M-23 1331V1489H1092V1331H616V0H451V1331H-23Z"  />
<glyph unicode="U" horiz-adv-x="1532" d="M166 1489H332V512Q332 368 347 311T401 219Q441 183 496 169T688 154H844Q981 154 1037 168T1133 219Q1170 253 1185 310T1200 512V1489H1366V492Q1366 207 1254 95T856 -18H676Q391 -18 279 94T166 492V1489Z"  />
<glyph unicode="V" horiz-adv-x="1331" d="M2 1489H178L653 154L1130 1489H1305L760 0H547L2 1489Z"  />
<glyph unicode="W" horiz-adv-x="2062" d="M61 1489H231L571 201L913 1489H1147L1491 201L1831 1489H2003L1597 0H1386L1030 1311L680 0H461L61 1489Z"  />
<glyph unicode="X" horiz-adv-x="1305" d="M-14 0L569 782L43 1489H233L653 905L1071 1489H1264L737 784L1317 0H1130L655 664L174 0H-14Z"  />
<glyph unicode="Y" horiz-adv-x="1219" d="M690 0H528V659L-88 1489H106L608 795L1110 1489H1305L690 662V0Z"  />
<glyph unicode="Z" horiz-adv-x="1331" d="M96 0V178L1053 1341H139V1489H1227V1315L276 156H1227V0H96Z"  />
<glyph unicode="[" horiz-adv-x="664" d="M152 1489H578V1331H311V158H578V0H152V1489Z"  />
<glyph unicode="\" horiz-adv-x="545" d="M621 -190H481L-49 1507H92L621 -190Z"  />
<glyph unicode="]" horiz-adv-x="664" d="M512 1489V0H86V158H352V1331H86V1489H512Z"  />
<glyph unicode="^" horiz-adv-x="2048" d="M1094 1458L1624 901H1481L1024 1356L565 901H422L954 1458H1094Z"  />
<glyph unicode="_" horiz-adv-x="1024" d="M1024 -383V-483H0V-383H1024Z"  />
<glyph unicode="`" horiz-adv-x="1024" d="M545 1178L276 1526H428L637 1178H545Z"  />
<glyph unicode="a" horiz-adv-x="1157" d="M858 111Q822 45 744 16T526 -14Q279 -14 195 56T111 319Q111 430 130 493T195 594Q233 626 306 639T518 653Q661 653 736 630T850 551V733Q850 862 800 900T549 938Q403 938 355 908T305 793H150V817Q150 952 237 1009T539 1067Q706 1067 793 1053T922 1008Q968 972 987 919T1006 737V0H864L858 111ZM850 268V379Q850 454 774 489T530 524Q377 524 326 486T274 338Q274 214 328 173T547 131Q694 131 772 166T850 268Z"  />
<glyph unicode="b" horiz-adv-x="1176" d="M164 0V1489H319V903Q364 990 440 1028T647 1067Q872 1067 964 974T1057 651V401Q1057 172 965 79T647 -14Q511 -14 431 28T313 162V0H164ZM319 612V440Q319 276 395 202T641 127Q794 127 844 182T895 436V616Q895 816 845 871T641 926Q472 926 396 852T319 612Z"  />
<glyph unicode="c" horiz-adv-x="1157" d="M543 -14Q307 -14 213 78T119 401V651Q119 883 212 975T541 1067H614Q837 1067 935 982T1038 701L877 700Q872 828 819 876T614 924H541Q380 924 331 870T281 616V436Q281 235 331 181T541 127H614Q768 127 822 179T877 371V389H1038V369Q1038 163 941 75T616 -14H543Z"  />
<glyph unicode="d" horiz-adv-x="1176" d="M862 162Q825 70 746 28T530 -14Q305 -14 212 79T119 401V651Q119 880 212 973T530 1067Q660 1067 736 1029T856 903V1489H1012V0H862V162ZM856 440V612Q856 777 780 851T535 926Q382 926 332 871T281 616V436Q281 237 331 182T535 127Q703 127 779 201T856 440Z"  />
<glyph unicode="e" horiz-adv-x="1157" d="M543 -14Q307 -14 213 78T119 401V651Q119 883 212 975T541 1067H614Q850 1067 944 975T1038 651V492L281 491Q280 475 280 456T279 401Q279 238 331 183T541 127H614Q755 127 810 167T874 309H1036Q1024 138 926 62T616 -14H543ZM281 629H877V670Q877 818 824 871T614 924H541Q385 924 333 871T281 670V629Z"  />
<glyph unicode="f" horiz-adv-x="688" d="M47 920V1053H194Q194 1065 194 1080T193 1124Q193 1325 263 1407T508 1489Q553 1489 596 1487T682 1481V1339Q669 1340 646 1341Q577 1343 551 1343Q430 1343 390 1307T350 1124V1053H682V920H350V0H195V920H47Z"  />
<glyph unicode="g" horiz-adv-x="1204" d="M1042 1053V12Q1042 -220 951 -311T631 -403H559Q353 -403 258 -328T150 -80H309Q319 -181 371 -220T561 -260H631Q769 -260 828 -215T887 -68V150Q843 63 767 25T559 -14Q334 -14 242 79T150 401V651Q150 881 242 974T559 1067Q694 1067 774 1024T893 889V1053H1042ZM887 440V612Q887 777 811 851T565 926Q412 926 361 871T309 616V436Q309 238 360 183T565 127Q734 127 810 201T887 440Z"  />
<glyph unicode="h" horiz-adv-x="1180" d="M162 0V1489H311V909Q349 990 433 1028T655 1067Q862 1067 945 984T1028 690V0H872V657Q872 822 824 874T635 926Q470 926 394 851T317 612V0H162Z"  />
<glyph unicode="i" horiz-adv-x="479" d="M162 0V1053H317V0H162ZM162 1313V1489H317V1313H162Z"  />
<glyph unicode="j" horiz-adv-x="508" d="M193 1313V1489H350V1313H193ZM350 -154Q350 -279 297 -341T137 -403Q123 -403 105 -402T64 -397L63 -274H117Q160 -274 176 -239T193 -70V1053H350V-154Z"  />
<glyph unicode="k" horiz-adv-x="991" d="M162 0V1489H317V643H365L709 1053H887L489 584L965 0H768L365 500H317V0H162Z"  />
<glyph unicode="l" horiz-adv-x="479" d="M162 0V1489H317V0H162Z"  />
<glyph unicode="m" horiz-adv-x="1810" d="M184 0V1053H336V909Q369 990 446 1028T651 1067Q785 1067 860 1026T973 893Q1019 985 1094 1026T1292 1067Q1499 1067 1579 985T1659 690V0H1503V641Q1503 817 1458 871T1280 926Q1134 926 1068 852T1001 612V0H850V713Q850 838 805 882T631 926Q481 926 411 850T340 612V0H184Z"  />
<glyph unicode="n" horiz-adv-x="1180" d="M162 0V1053H311V909Q349 990 433 1028T655 1067Q862 1067 945 984T1028 690V0H872V657Q872 822 824 874T635 926Q470 926 394 851T317 612V0H162Z"  />
<glyph unicode="o" horiz-adv-x="1157" d="M543 -14Q307 -14 213 78T119 401V651Q119 883 212 975T541 1067H614Q850 1067 944 975T1038 651V401Q1038 169 945 78T616 -14H543ZM877 436V616Q877 815 827 869T614 924H541Q380 924 331 870T281 616V436Q281 235 331 181T541 127H614Q775 127 826 182T877 436Z"  />
<glyph unicode="p" horiz-adv-x="1176" d="M164 1053H313V889Q351 981 431 1024T647 1067Q872 1067 964 974T1057 651V401Q1057 172 965 79T647 -14Q517 -14 441 24T319 150V-403H164V1053ZM319 440Q319 276 395 202T641 127Q794 127 844 182T895 436V616Q895 816 845 871T641 926Q472 926 396 852T319 612V440Z"  />
<glyph unicode="q" horiz-adv-x="1176" d="M1012 1053V-403H856V150Q812 63 736 25T530 -14Q305 -14 212 79T119 401V651Q119 880 212 973T530 1067Q665 1067 744 1024T862 889V1053H1012ZM856 440V612Q856 777 780 851T535 926Q382 926 332 871T281 616V436Q281 237 331 182T535 127Q703 127 779 201T856 440Z"  />
<glyph unicode="r" horiz-adv-x="958" d="M160 0V1053H311V909Q344 991 414 1029T600 1067Q772 1067 841 984T911 690V682H754V713Q754 839 714 882T563 926Q433 926 375 853T317 612V0H160Z"  />
<glyph unicode="s" horiz-adv-x="1194" d="M123 313H281V289Q281 192 341 156T582 119Q785 119 832 156T879 299Q879 402 841 436T648 479Q591 482 494 485Q282 491 242 514Q182 547 157 604T131 768Q131 943 220 1005T612 1067Q847 1067 930 1008T1014 801H858V811Q858 881 798 907T557 934Q383 934 335 902T287 768Q287 706 296 681T328 643Q375 618 536 614Q577 613 599 612Q731 607 806 599T913 575Q983 543 1012 483T1042 309Q1042 193 1013 133T909 27Q875 5 798 -4T584 -14Q304 -14 214 50T123 285V313Z"  />
<glyph unicode="t" horiz-adv-x="1010" d="M57 920V1053H186V1290H342V1053H858V920H342V340Q342 216 382 172T537 127Q650 127 689 170T729 340V371H887V362Q887 140 814 63T508 -14Q327 -14 257 67T186 362V920H57Z"  />
<glyph unicode="u" horiz-adv-x="1180" d="M1020 1053V0H870V143Q833 63 748 25T524 -14Q318 -14 235 69T152 362V1053H307V395Q307 231 356 179T547 127Q711 127 786 202T862 440V1053H1020Z"  />
<glyph unicode="v" horiz-adv-x="967" d="M14 1053H170L483 147L797 1053H948L586 0H383L14 1053Z"  />
<glyph unicode="w" horiz-adv-x="1597" d="M59 1053H205L446 147L688 1053H903L1147 147L1389 1053H1538L1253 0H1038L797 903L551 0H340L59 1053Z"  />
<glyph unicode="x" horiz-adv-x="1036" d="M35 0L434 563L86 1053H262L516 684L770 1053H946L602 563L1001 0H825L516 444L213 0H35Z"  />
<glyph unicode="y" horiz-adv-x="999" d="M47 1053H203L516 147L827 1053H981L584 -92Q519 -278 452 -344T270 -410Q253 -410 233 -409T188 -403L189 -266Q196 -267 206 -267T236 -268Q308 -268 347 -236T422 -109L461 0H414L47 1053Z"  />
<glyph unicode="z" horiz-adv-x="1057" d="M119 0V170L770 909H150V1053H961V907L287 141H961V0H119Z"  />
<glyph unicode="{" horiz-adv-x="1024" d="M854 1370H817Q686 1370 640 1321T594 1116V874Q594 706 551 634T397 530Q507 499 550 427T594 186V-55Q594 -210 639 -259T809 -309Q816 -309 831 -308T854 -307V-414H807Q610 -414 541 -342T471 -45V199Q471 353 414 416T219 479Q212 479 198 478T174 477V586Q183 586 197 585T219 584Q357 584 414 647T471 864V1106Q471 1329 541 1403T807 1477H854V1370Z"  />
<glyph unicode="|" horiz-adv-x="1024" d="M567 1565V-483H459V1565H567Z"  />
<glyph unicode="}" horiz-adv-x="1024" d="M555 1106V864Q555 710 612 647T807 584Q814 584 829 585T852 586V477Q844 477 829 478T807 479Q669 479 612 416T555 199V-45Q555 -268 486 -341T219 -414H172V-307H211Q341 -307 386 -258T432 -55V186Q432 357 475 428T629 530Q518 562 475 633T432 874V1116Q432 1273 387 1322T217 1372Q210 1372 195 1371T172 1370V1477H219Q415 1477 485 1403T555 1106Z"  />
<glyph unicode="~" horiz-adv-x="1706" d="M1530 637Q1428 565 1332 530T1143 494Q1044 494 883 551Q863 558 854 561L838 567Q662 631 565 631Q482 631 390 593T178 471V584Q284 657 380 693T565 729Q669 729 837 668Q848 664 855 661Q864 658 886 650Q1053 590 1143 590Q1228 590 1320 628T1530 750V637Z"  />
<glyph unicode="&#xA0;" horiz-adv-x="1384" />
<glyph unicode="&#xA1;" horiz-adv-x="516" d="M180 1489H336V1296H180V1489ZM190 1087H328L336 0H180L190 1087Z"  />
<glyph unicode="&#xA2;" horiz-adv-x="1384" d="M535 -14L453 -262H309L397 6Q279 45 229 133T178 401V651Q178 883 271 975T600 1067H748L813 1266H956L883 1044Q991 1008 1043 924T1098 701H936Q933 787 908 839T838 903L582 127H674Q827 127 881 179T936 371V389H1098V369Q1098 164 1000 75T674 -14H535ZM444 147L700 924H600Q439 924 389 870T338 616V436Q338 282 361 227T444 147Z"  />
<glyph unicode="&#xA3;" horiz-adv-x="1384" d="M115 0V156H135Q228 156 267 214T307 410V594H115V737H307V1163Q307 1345 415 1426T770 1507Q1030 1507 1143 1438T1257 1210V1055H1087V1147Q1087 1270 1025 1312T782 1354Q689 1354 626 1342T528 1305Q498 1281 486 1244T473 1110V1090V737H911V594H473V412Q473 305 449 240T379 156H1278V0H115Z"  />
<glyph unicode="&#xA4;" horiz-adv-x="1384" d="M1251 471Q1251 212 1144 97T807 -18H717Q440 -18 331 94T221 492V535H39L80 657H221V838H39L80 961H221V997Q221 1283 330 1395T717 1507H807Q1029 1507 1140 1398T1251 1069H1081Q1081 1226 1013 1290T780 1354H676Q513 1354 452 1285T391 1020V961H1061L1020 838H391V657H963L922 535H391V459Q391 274 451 205T676 135H780Q946 135 1013 199T1081 471H1251Z"  />
<glyph unicode="&#xA5;" horiz-adv-x="1219" d="M690 0H528V653H0V776H449L317 956H0V1079H217L-88 1489H106L608 795L1110 1489H1305L1001 1079H1219V956H899L768 776H1219V653H690V0Z"  />
<glyph unicode="&#xA6;" horiz-adv-x="1024" d="M567 1432V674H459V1432H567ZM567 408V-350H459V408H567Z"  />
<glyph unicode="&#xA7;" horiz-adv-x="1118" d="M305 287V238Q305 171 351 147T553 123Q716 123 758 150T801 258Q801 314 780 343T709 389L336 510Q186 558 125 617T63 770Q63 862 123 924T289 1006Q211 1033 177 1087T143 1241Q143 1392 225 1449T541 1507Q742 1507 826 1453T911 1274V1227H754V1251Q754 1316 709 1341T528 1366Q380 1366 343 1344T305 1253Q305 1199 325 1173T401 1128L848 983Q951 949 1003 888T1055 739Q1055 646 993 583T825 508Q900 485 931 430T963 260Q963 102 880 42T561 -18Q324 -18 236 34T147 217V287H305ZM735 860L438 958Q335 939 279 899T223 803Q223 753 262 716T383 653L680 557Q783 577 839 617T895 713Q895 762 856 798T735 860Z"  />
<glyph unicode="&#xA8;" horiz-adv-x="1024" d="M281 1253V1417H422V1253H281ZM602 1253V1417H743V1253H602Z"  />
<glyph unicode="&#xA9;" horiz-adv-x="1706" d="M852 1456Q1001 1456 1135 1401T1374 1241Q1476 1139 1530 1006T1585 723Q1585 573 1532 442T1374 209Q1267 103 1132 47T852 -10Q707 -10 574 45T336 207Q231 311 176 444T121 723Q121 868 177 1002T340 1245Q441 1348 572 1402T852 1456ZM1505 723Q1505 855 1457 974T1317 1184Q1223 1278 1104 1327T852 1376Q720 1376 603 1328T395 1188Q301 1092 251 973T201 723Q201 594 250 476T393 264Q487 171 605 122T852 72Q982 72 1102 122T1319 266Q1410 355 1457 472T1505 723ZM1073 915Q1055 995 998 1039T856 1083Q734 1083 666 988T598 721Q598 555 667 461T856 367Q945 367 1007 417T1085 555H1200Q1189 430 1092 350T850 270Q673 270 571 392T469 727Q469 930 576 1053T860 1176Q995 1176 1086 1104T1190 915H1073Z"  />
<glyph unicode="&#xAA;" horiz-adv-x="868" d="M643 829Q617 783 559 762T395 741Q209 741 147 790T84 975Q84 1055 98 1098T145 1167Q174 1189 229 1198T389 1208Q498 1208 553 1192T637 1137V1266Q637 1356 599 1382T412 1409Q304 1409 268 1388T229 1307H113V1323Q113 1418 179 1458T403 1499Q531 1499 596 1489T692 1456Q726 1432 740 1396T754 1268V752H649L643 829ZM637 940V1018Q637 1070 580 1094T397 1118Q283 1118 245 1092T207 989Q207 902 247 873T410 844Q522 844 579 868T637 940Z"  />
<glyph unicode="&#xAB;" horiz-adv-x="981" d="M866 213H694L449 526L694 840H866L618 526L866 213ZM516 213H344L98 526L344 840H516L268 526L516 213Z"  />
<glyph unicode="&#xAC;" horiz-adv-x="1706" d="M1452 858V356H1356V758H254V858H1452Z"  />
<glyph unicode="&#xAD;" horiz-adv-x="825" d="M133 485V625H692V485H133Z"  />
<glyph unicode="&#xAE;" horiz-adv-x="1706" d="M852 1456Q1004 1456 1137 1401T1374 1241Q1476 1139 1530 1006T1585 723Q1585 573 1532 442T1374 209Q1267 103 1132 47T852 -10Q705 -10 573 45T336 207Q231 311 176 444T121 723Q121 867 177 1002T340 1245Q441 1348 572 1402T852 1456ZM1505 721Q1505 855 1457 974T1319 1184Q1225 1277 1106 1326T852 1376Q722 1376 606 1328T397 1188Q302 1091 252 972T201 723Q201 594 250 476T393 264Q487 171 605 122T852 72Q982 72 1102 122T1319 266Q1410 355 1457 470T1505 721ZM874 1157Q1052 1157 1137 1100T1223 924Q1223 835 1169 775T1024 702L1212 313H1067L889 684H692V313H565V1157H874ZM850 1071H692V768H850Q984 768 1038 801T1092 915Q1092 998 1035 1034T850 1071Z"  />
<glyph unicode="&#xAF;" horiz-adv-x="1024" d="M256 1278V1395H768V1278H256Z"  />
<glyph unicode="&#xB0;" horiz-adv-x="674" d="M338 1452Q453 1452 533 1371T614 1174Q614 1059 533 977T336 895Q219 895 139 976T59 1174Q59 1290 140 1371T338 1452ZM545 1174Q545 1260 485 1321T338 1382Q252 1382 191 1321T129 1174Q129 1087 190 1027T338 967Q425 967 485 1027T545 1174Z"  />
<glyph unicode="&#xB1;" horiz-adv-x="1706" d="M903 1169V821H1452V723H903V375H805V723H254V821H805V1169H903ZM1452 150V51H254V150H1452Z"  />
<glyph unicode="&#xB2;" horiz-adv-x="913" d="M98 596V748Q98 817 110 857T150 928Q175 956 215 975T344 1016L567 1071Q620 1085 652 1100T696 1133Q705 1144 709 1165T713 1249Q713 1316 704 1341T671 1383Q652 1396 593 1402T430 1409Q289 1409 250 1381T211 1260V1206H98V1266Q98 1398 168 1449T436 1501Q549 1501 607 1496T694 1479Q767 1450 794 1403T821 1241Q821 1115 780 1065T625 985L350 915Q262 892 237 866T211 788V690H821V596H98Z"  />
<glyph unicode="&#xB3;" horiz-adv-x="913" d="M96 893H205V813Q205 734 250 706T465 678Q584 678 629 688T694 725Q704 739 708 768T713 868Q713 951 676 978T541 1006H391V1096H526Q624 1096 659 1126T694 1255Q694 1323 687 1346T662 1382Q644 1395 593 1401T444 1407Q303 1407 263 1383T223 1290V1208H113V1288Q113 1403 187 1452T442 1501Q557 1501 614 1495T705 1475Q761 1450 784 1404T807 1262Q807 1156 777 1113T670 1055Q755 1040 789 998T823 858Q823 799 817 759T797 688Q771 631 704 609T467 586Q313 586 258 597T168 637Q131 668 114 712T96 821V893Z"  />
<glyph unicode="&#xB4;" horiz-adv-x="1024" d="M479 1178H387L596 1526H748L479 1178Z"  />
<glyph unicode="&#xB5;" horiz-adv-x="1110" d="M344 1065L219 473Q211 434 207 400T203 334Q203 217 261 154T428 90Q553 90 643 197T776 508L897 1065H1036L872 295Q860 240 855 210T850 162Q850 129 867 113T918 96Q925 96 934 96T954 98L934 -12Q915 -17 893 -20T848 -23Q778 -23 745 13T711 123V137Q669 60 591 18T412 -25Q320 -25 251 15T143 131L29 -426H-111L205 1065H344Z"  />
<glyph unicode="&#xB6;" horiz-adv-x="1024" d="M940 1409H813V0H731V1409H545V0H461V782Q287 790 186 884T84 1130Q84 1287 191 1383T477 1479H940V1409Z"  />
<glyph unicode="&#xB7;" horiz-adv-x="692" d="M227 795Q227 844 262 878T346 913Q395 913 430 879T465 795Q465 746 431 712T346 678Q297 678 262 712T227 795Z"  />
<glyph unicode="&#xB8;" horiz-adv-x="1024" d="M522 0V-115H586Q681 -115 709 -142T737 -279Q737 -400 711 -429T588 -459H324V-371H537Q590 -371 602 -357T614 -274Q614 -213 604 -199T535 -184H457V0H522Z"  />
<glyph unicode="&#xB9;" horiz-adv-x="913" d="M483 596V1401L252 1190L184 1249L449 1489H590V596H483Z"  />
<glyph unicode="&#xBA;" horiz-adv-x="868" d="M408 741Q231 741 161 805T90 1032V1208Q90 1371 160 1435T406 1499H461Q638 1499 708 1435T778 1208V1032Q778 870 708 806T463 741H408ZM657 1057V1184Q657 1323 620 1361T461 1399H406Q286 1399 249 1362T211 1184V1057Q211 915 248 878T406 840H461Q581 840 619 878T657 1057Z"  />
<glyph unicode="&#xBB;" horiz-adv-x="981" d="M115 213L362 526L115 840H287L532 526L287 213H115ZM467 213L713 526L467 840H637L883 526L637 213H467Z"  />
<glyph unicode="&#xBC;" horiz-adv-x="2087" d="M461 655V1407L240 1208L176 1266L428 1489H563V655H461ZM530 -18L1399 1507H1554L688 -18H530ZM1286 195V301L1745 834H1888V283H2032V195H1888V0H1784V195H1286ZM1386 283H1784V741L1386 283Z"  />
<glyph unicode="&#xBD;" horiz-adv-x="2087" d="M461 655V1407L240 1208L176 1266L428 1489H563V655H461ZM530 -18L1399 1507H1554L688 -18H530ZM1309 0V141Q1309 206 1320 244T1358 309Q1381 335 1417 352T1544 393L1755 444Q1806 457 1837 471T1878 500Q1888 511 1892 531T1896 610Q1896 668 1887 693T1855 733Q1838 746 1784 752T1624 758Q1489 758 1452 731T1415 618V569H1309V625Q1309 749 1375 796T1630 844Q1736 844 1792 839T1878 823Q1947 795 1973 752T1999 602Q1999 484 1960 438T1810 365L1548 299Q1462 275 1439 251T1415 178V88H1999V0H1309Z"  />
<glyph unicode="&#xBE;" horiz-adv-x="2087" d="M92 932H197V858Q197 784 240 758T444 731Q557 731 601 741T664 776Q673 790 676 817T680 909Q680 987 645 1011T516 1036H373V1122H504Q597 1122 630 1151T664 1272Q664 1334 657 1355T630 1389Q615 1401 566 1407T424 1413Q290 1413 252 1390T213 1303V1227H109V1300Q109 1408 179 1453T422 1499Q530 1499 585 1494T671 1475Q726 1453 748 1411T770 1278Q770 1178 742 1139T639 1083Q721 1069 753 1029T786 899Q786 845 781 808T762 741Q736 688 672 667T446 645Q299 645 247 656T160 694Q125 723 109 764T92 866V932ZM530 -18L1399 1507H1554L688 -18H530ZM1286 195V301L1745 834H1888V283H2032V195H1888V0H1784V195H1286ZM1386 283H1784V741L1386 283Z"  />
<glyph unicode="&#xBF;" horiz-adv-x="1063" d="M680 1081V963Q680 875 639 821T442 698L437 696Q288 632 256 586Q237 557 227 503T217 371Q217 235 265 185T457 135Q612 135 676 143T766 170Q795 192 808 239T821 375Q821 409 821 427T820 461H983V313Q983 132 878 57T508 -18Q244 -18 151 66T57 375Q57 560 97 648T236 782Q265 796 318 819Q514 904 514 1006V1081H680ZM680 1489V1298H514V1489H680Z"  />
<glyph unicode="&#xC0;" horiz-adv-x="1417" d="M23 0L573 1489H844L1397 0H1227L1085 381H332L193 0H23ZM387 528H1032L735 1331H682L387 528ZM742 1618L473 1966H625L834 1618H742Z"  />
<glyph unicode="&#xC1;" horiz-adv-x="1417" d="M23 0L573 1489H844L1397 0H1227L1085 381H332L193 0H23ZM387 528H1032L735 1331H682L387 528ZM676 1618H584L793 1966H945L676 1618Z"  />
<glyph unicode="&#xC2;" horiz-adv-x="1417" d="M23 0L573 1489H844L1397 0H1227L1085 381H332L193 0H23ZM387 528H1032L735 1331H682L387 528ZM433 1618L633 1966H785L985 1618H893L709 1880L525 1618H433Z"  />
<glyph unicode="&#xC3;" horiz-adv-x="1417" d="M23 0L573 1489H844L1397 0H1227L1085 381H332L193 0H23ZM387 528H1032L735 1331H682L387 528ZM998 1880Q972 1790 924 1745T807 1700Q793 1700 777 1702T741 1710L646 1738Q628 1744 616 1746T592 1749Q564 1749 540 1730T500 1677H420Q442 1764 492 1810T615 1857Q631 1857 644 1855T668 1849L765 1818Q777 1814 792 1811T820 1808Q854 1808 877 1825T916 1880H998Z"  />
<glyph unicode="&#xC4;" horiz-adv-x="1417" d="M23 0L573 1489H844L1397 0H1227L1085 381H332L193 0H23ZM387 528H1032L735 1331H682L387 528ZM478 1693V1857H619V1693H478ZM799 1693V1857H940V1693H799Z"  />
<glyph unicode="&#xC5;" horiz-adv-x="1417" d="M23 0L573 1489H844L1397 0H1227L1085 381H332L193 0H23ZM387 528H1032L735 1331H682L387 528ZM473 1786Q473 1888 542 1958T713 2028Q814 2028 884 1958T954 1786Q954 1685 884 1616T713 1546Q611 1546 542 1615T473 1786ZM563 1786Q563 1723 607 1680T715 1636Q777 1636 820 1679T864 1786Q864 1849 821 1892T715 1935Q651 1935 607 1892T563 1786Z"  />
<glyph unicode="&#xC6;" horiz-adv-x="2079" d="M954 0V371H213L10 0H-166L657 1489H1995V1331H1108V844H1970V692H1108V156H1995V0H954ZM301 528H954V1331H745L301 528Z"  />
<glyph unicode="&#xC7;" horiz-adv-x="1399" d="M133 997Q133 1283 242 1395T629 1507H803Q1078 1507 1189 1411T1300 1083V1018H1130V1059Q1130 1228 1061 1290T791 1352H676Q541 1352 480 1336T377 1280Q336 1242 320 1181T303 956V532Q303 370 319 309T377 209Q418 170 476 154T676 137H791Q997 137 1065 202T1133 451Q1133 479 1133 494T1131 522H1300V424Q1300 176 1193 79T803 -18H629Q352 -18 243 94T133 492V997ZM735 0V-115H799Q894 -115 922 -142T950 -279Q950 -400 924 -429T801 -459H537V-371H750Q803 -371 815 -357T827 -274Q827 -213 817 -199T748 -184H670V0H735Z"  />
<glyph unicode="&#xC8;" horiz-adv-x="1309" d="M180 0V1489H1225V1331H344V844H1200V692H344V156H1225V0H180ZM766 1618L497 1966H649L858 1618H766Z"  />
<glyph unicode="&#xC9;" horiz-adv-x="1309" d="M180 0V1489H1225V1331H344V844H1200V692H344V156H1225V0H180ZM700 1618H608L817 1966H969L700 1618Z"  />
<glyph unicode="&#xCA;" horiz-adv-x="1309" d="M180 0V1489H1225V1331H344V844H1200V692H344V156H1225V0H180ZM457 1618L657 1966H809L1009 1618H917L733 1880L549 1618H457Z"  />
<glyph unicode="&#xCB;" horiz-adv-x="1309" d="M180 0V1489H1225V1331H344V844H1200V692H344V156H1225V0H180ZM502 1693V1857H643V1693H502ZM823 1693V1857H964V1693H823Z"  />
<glyph unicode="&#xCC;" horiz-adv-x="526" d="M180 0V1489H346V0H180ZM298 1618L29 1966H181L390 1618H298Z"  />
<glyph unicode="&#xCD;" horiz-adv-x="526" d="M180 0V1489H346V0H180ZM232 1618H140L349 1966H501L232 1618Z"  />
<glyph unicode="&#xCE;" horiz-adv-x="526" d="M180 0V1489H346V0H180ZM-11 1618L189 1966H341L541 1618H449L265 1880L81 1618H-11Z"  />
<glyph unicode="&#xCF;" horiz-adv-x="526" d="M180 0V1489H346V0H180ZM34 1693V1857H175V1693H34ZM355 1693V1857H496V1693H355Z"  />
<glyph unicode="&#xD0;" horiz-adv-x="1583" d="M227 0V709H0V852H227V1489H946Q1226 1489 1339 1378T1452 991V500Q1452 223 1339 112T946 0H227ZM391 147H922Q1135 147 1207 219T1280 498V979Q1280 1196 1208 1268T922 1341H391V852H838V709H391V147Z"  />
<glyph unicode="&#xD1;" horiz-adv-x="1587" d="M180 0V1489H434L1241 160V1489H1405V0H1151L344 1331V0H180ZM1104 1880Q1078 1790 1030 1745T913 1700Q899 1700 883 1702T847 1710L752 1738Q734 1744 722 1746T698 1749Q670 1749 646 1730T606 1677H526Q548 1764 598 1810T721 1857Q737 1857 750 1855T774 1849L871 1818Q883 1814 898 1811T926 1808Q960 1808 983 1825T1022 1880H1104Z"  />
<glyph unicode="&#xD2;" horiz-adv-x="1526" d="M133 997Q133 1282 251 1394T670 1507H858Q1162 1507 1278 1396T1395 997V492Q1395 206 1277 94T858 -18H670Q369 -18 251 94T133 492V997ZM809 1352H717Q560 1352 495 1335T383 1278Q339 1240 321 1176T303 954V532Q303 376 321 313T383 211Q430 171 495 154T717 137H809Q966 137 1032 154T1145 211Q1188 248 1205 310T1223 532V956Q1223 1113 1205 1177T1143 1280Q1097 1319 1032 1335T809 1352ZM797 1618L528 1966H680L889 1618H797Z"  />
<glyph unicode="&#xD3;" horiz-adv-x="1526" d="M133 997Q133 1282 251 1394T670 1507H858Q1162 1507 1278 1396T1395 997V492Q1395 206 1277 94T858 -18H670Q369 -18 251 94T133 492V997ZM809 1352H717Q560 1352 495 1335T383 1278Q339 1240 321 1176T303 954V532Q303 376 321 313T383 211Q430 171 495 154T717 137H809Q966 137 1032 154T1145 211Q1188 248 1205 310T1223 532V956Q1223 1113 1205 1177T1143 1280Q1097 1319 1032 1335T809 1352ZM731 1618H639L848 1966H1000L731 1618Z"  />
<glyph unicode="&#xD4;" horiz-adv-x="1526" d="M133 997Q133 1282 251 1394T670 1507H858Q1162 1507 1278 1396T1395 997V492Q1395 206 1277 94T858 -18H670Q369 -18 251 94T133 492V997ZM809 1352H717Q560 1352 495 1335T383 1278Q339 1240 321 1176T303 954V532Q303 376 321 313T383 211Q430 171 495 154T717 137H809Q966 137 1032 154T1145 211Q1188 248 1205 310T1223 532V956Q1223 1113 1205 1177T1143 1280Q1097 1319 1032 1335T809 1352ZM488 1618L688 1966H840L1040 1618H948L764 1880L580 1618H488Z"  />
<glyph unicode="&#xD5;" horiz-adv-x="1526" d="M133 997Q133 1282 251 1394T670 1507H858Q1162 1507 1278 1396T1395 997V492Q1395 206 1277 94T858 -18H670Q369 -18 251 94T133 492V997ZM809 1352H717Q560 1352 495 1335T383 1278Q339 1240 321 1176T303 954V532Q303 376 321 313T383 211Q430 171 495 154T717 137H809Q966 137 1032 154T1145 211Q1188 248 1205 310T1223 532V956Q1223 1113 1205 1177T1143 1280Q1097 1319 1032 1335T809 1352ZM1053 1880Q1027 1790 979 1745T862 1700Q848 1700 832 1702T796 1710L701 1738Q683 1744 671 1746T647 1749Q619 1749 595 1730T555 1677H475Q497 1764 547 1810T670 1857Q686 1857 699 1855T723 1849L820 1818Q832 1814 847 1811T875 1808Q909 1808 932 1825T971 1880H1053Z"  />
<glyph unicode="&#xD6;" horiz-adv-x="1526" d="M133 997Q133 1282 251 1394T670 1507H858Q1162 1507 1278 1396T1395 997V492Q1395 206 1277 94T858 -18H670Q369 -18 251 94T133 492V997ZM809 1352H717Q560 1352 495 1335T383 1278Q339 1240 321 1176T303 954V532Q303 376 321 313T383 211Q430 171 495 154T717 137H809Q966 137 1032 154T1145 211Q1188 248 1205 310T1223 532V956Q1223 1113 1205 1177T1143 1280Q1097 1319 1032 1335T809 1352ZM533 1693V1857H674V1693H533ZM854 1693V1857H995V1693H854Z"  />
<glyph unicode="&#xD7;" horiz-adv-x="1706" d="M856 680L1337 1161L1407 1092L926 610L1407 129L1337 59L856 541L375 59L305 129L786 610L305 1092L375 1161L856 680Z"  />
<glyph unicode="&#xD8;" horiz-adv-x="1526" d="M133 997Q133 1282 251 1394T670 1507H858Q987 1507 1060 1495T1190 1456L1276 1575L1395 1485L1307 1364Q1353 1304 1374 1221T1395 997V492Q1395 206 1277 94T858 -18H670Q532 -18 460 -6T340 35L252 -86L131 6L223 131Q175 181 154 261T133 492V997ZM1210 1229L426 156Q471 146 528 142T680 137H846Q989 137 1048 152T1151 203Q1191 236 1207 293T1223 498V991Q1223 1066 1220 1125T1210 1229ZM319 260L1100 1331Q1067 1342 1009 1347T846 1352H680Q537 1352 477 1337T375 1286Q335 1253 319 1196T303 991V498Q303 426 307 368T319 260Z"  />
<glyph unicode="&#xD9;" horiz-adv-x="1532" d="M166 1489H332V512Q332 368 347 311T401 219Q441 183 496 169T688 154H844Q981 154 1037 168T1133 219Q1170 253 1185 310T1200 512V1489H1366V492Q1366 207 1254 95T856 -18H676Q391 -18 279 94T166 492V1489ZM799 1618L530 1966H682L891 1618H799Z"  />
<glyph unicode="&#xDA;" horiz-adv-x="1532" d="M166 1489H332V512Q332 368 347 311T401 219Q441 183 496 169T688 154H844Q981 154 1037 168T1133 219Q1170 253 1185 310T1200 512V1489H1366V492Q1366 207 1254 95T856 -18H676Q391 -18 279 94T166 492V1489ZM733 1618H641L850 1966H1002L733 1618Z"  />
<glyph unicode="&#xDB;" horiz-adv-x="1532" d="M166 1489H332V512Q332 368 347 311T401 219Q441 183 496 169T688 154H844Q981 154 1037 168T1133 219Q1170 253 1185 310T1200 512V1489H1366V492Q1366 207 1254 95T856 -18H676Q391 -18 279 94T166 492V1489ZM490 1618L690 1966H842L1042 1618H950L766 1880L582 1618H490Z"  />
<glyph unicode="&#xDC;" horiz-adv-x="1532" d="M166 1489H332V512Q332 368 347 311T401 219Q441 183 496 169T688 154H844Q981 154 1037 168T1133 219Q1170 253 1185 310T1200 512V1489H1366V492Q1366 207 1254 95T856 -18H676Q391 -18 279 94T166 492V1489ZM535 1693V1857H676V1693H535ZM856 1693V1857H997V1693H856Z"  />
<glyph unicode="&#xDD;" horiz-adv-x="1219" d="M690 0H528V659L-88 1489H106L608 795L1110 1489H1305L690 662V0ZM577 1618H485L694 1966H846L577 1618Z"  />
<glyph unicode="&#xDE;" horiz-adv-x="1341" d="M180 1489H344V1200H807Q1058 1200 1152 1126T1247 860V633Q1247 438 1154 364T807 289H344V0H180V1489ZM344 1042V446H805Q971 446 1023 487T1075 635V854Q1075 963 1025 1002T805 1042H344Z"  />
<glyph unicode="&#xDF;" horiz-adv-x="1081" d="M127 0V1069Q127 1304 214 1393T524 1483Q744 1483 837 1396T930 1104Q930 986 890 922T758 825Q887 798 940 710T993 426Q993 184 910 84T631 -16Q597 -16 559 -13T475 -4L476 139Q506 132 537 129T602 125Q737 125 783 183T829 426Q829 634 781 688T590 743H475V872H563Q680 872 726 925T772 1116Q772 1246 720 1294T522 1343Q380 1343 332 1291T283 1053V0H127Z"  />
<glyph unicode="&#xE0;" horiz-adv-x="1157" d="M858 111Q822 45 744 16T526 -14Q279 -14 195 56T111 319Q111 430 130 493T195 594Q233 626 306 639T518 653Q661 653 736 630T850 551V733Q850 862 800 900T549 938Q403 938 355 908T305 793H150V817Q150 952 237 1009T539 1067Q706 1067 793 1053T922 1008Q968 972 987 919T1006 737V0H864L858 111ZM850 268V379Q850 454 774 489T530 524Q377 524 326 486T274 338Q274 214 328 173T547 131Q694 131 772 166T850 268ZM613 1178L344 1526H496L705 1178H613Z"  />
<glyph unicode="&#xE1;" horiz-adv-x="1157" d="M858 111Q822 45 744 16T526 -14Q279 -14 195 56T111 319Q111 430 130 493T195 594Q233 626 306 639T518 653Q661 653 736 630T850 551V733Q850 862 800 900T549 938Q403 938 355 908T305 793H150V817Q150 952 237 1009T539 1067Q706 1067 793 1053T922 1008Q968 972 987 919T1006 737V0H864L858 111ZM850 268V379Q850 454 774 489T530 524Q377 524 326 486T274 338Q274 214 328 173T547 131Q694 131 772 166T850 268ZM547 1178H455L664 1526H816L547 1178Z"  />
<glyph unicode="&#xE2;" horiz-adv-x="1157" d="M858 111Q822 45 744 16T526 -14Q279 -14 195 56T111 319Q111 430 130 493T195 594Q233 626 306 639T518 653Q661 653 736 630T850 551V733Q850 862 800 900T549 938Q403 938 355 908T305 793H150V817Q150 952 237 1009T539 1067Q706 1067 793 1053T922 1008Q968 972 987 919T1006 737V0H864L858 111ZM850 268V379Q850 454 774 489T530 524Q377 524 326 486T274 338Q274 214 328 173T547 131Q694 131 772 166T850 268ZM304 1178L504 1526H656L856 1178H764L580 1440L396 1178H304Z"  />
<glyph unicode="&#xE3;" horiz-adv-x="1157" d="M858 111Q822 45 744 16T526 -14Q279 -14 195 56T111 319Q111 430 130 493T195 594Q233 626 306 639T518 653Q661 653 736 630T850 551V733Q850 862 800 900T549 938Q403 938 355 908T305 793H150V817Q150 952 237 1009T539 1067Q706 1067 793 1053T922 1008Q968 972 987 919T1006 737V0H864L858 111ZM850 268V379Q850 454 774 489T530 524Q377 524 326 486T274 338Q274 214 328 173T547 131Q694 131 772 166T850 268ZM869 1440Q843 1350 795 1305T678 1260Q664 1260 648 1262T612 1270L517 1298Q499 1304 487 1306T463 1309Q435 1309 411 1290T371 1237H291Q313 1324 363 1370T486 1417Q502 1417 515 1415T539 1409L636 1378Q648 1374 663 1371T691 1368Q725 1368 748 1385T787 1440H869Z"  />
<glyph unicode="&#xE4;" horiz-adv-x="1157" d="M858 111Q822 45 744 16T526 -14Q279 -14 195 56T111 319Q111 430 130 493T195 594Q233 626 306 639T518 653Q661 653 736 630T850 551V733Q850 862 800 900T549 938Q403 938 355 908T305 793H150V817Q150 952 237 1009T539 1067Q706 1067 793 1053T922 1008Q968 972 987 919T1006 737V0H864L858 111ZM850 268V379Q850 454 774 489T530 524Q377 524 326 486T274 338Q274 214 328 173T547 131Q694 131 772 166T850 268ZM349 1253V1417H490V1253H349ZM670 1253V1417H811V1253H670Z"  />
<glyph unicode="&#xE5;" horiz-adv-x="1157" d="M850 268V379Q850 454 774 489T530 524Q377 524 326 486T274 338Q274 214 328 173T547 131Q694 131 772 166T850 268ZM858 111Q822 45 744 16T526 -14Q279 -14 195 56T111 319Q111 430 130 493T195 594Q233 626 306 639T518 653Q661 653 736 630T850 551V733Q850 862 800 900T549 938Q403 938 355 908T305 793H150V813Q150 953 237 1010T555 1067Q745 1067 830 1046T954 975Q982 939 994 895T1006 758V737V0H864L858 111ZM352 1366Q352 1467 422 1536T594 1606Q696 1606 766 1537T836 1366Q836 1265 766 1196T594 1126Q492 1126 422 1195T352 1366ZM444 1366Q444 1303 487 1260T594 1217Q656 1217 699 1260T743 1366Q743 1429 700 1472T594 1516Q531 1516 488 1473T444 1366Z"  />
<glyph unicode="&#xE6;" horiz-adv-x="1878" d="M850 270V379Q850 454 774 489T530 524Q377 524 326 486T274 338Q274 213 329 170T547 127Q693 127 771 164T850 270ZM150 793V813Q150 954 237 1010T555 1067Q743 1067 823 1041T938 952Q984 1015 1055 1041T1262 1067H1337Q1572 1067 1665 975T1759 651V492L1001 491Q1000 474 1000 456T999 403Q999 239 1051 183T1264 127H1337Q1477 127 1531 167T1595 309H1757Q1745 138 1647 62T1337 -14H1264Q1103 -14 1028 21T909 145Q850 60 755 23T494 -14Q275 -14 193 58T111 319Q111 430 130 493T195 594Q233 626 306 639T518 653Q661 653 737 630T852 551V733Q852 861 801 899T549 938Q402 938 355 908T305 793H150ZM1001 629H1599V670Q1599 818 1547 871T1337 924H1264Q1107 924 1054 871T1001 670V629Z"  />
<glyph unicode="&#xE7;" horiz-adv-x="1157" d="M543 -14Q307 -14 213 78T119 401V651Q119 883 212 975T541 1067H614Q837 1067 935 982T1038 701L877 700Q872 828 819 876T614 924H541Q380 924 331 870T281 616V436Q281 235 331 181T541 127H614Q768 127 822 179T877 371V389H1038V369Q1038 163 941 75T616 -14H543ZM590 0V-115H654Q749 -115 777 -142T805 -279Q805 -400 779 -429T656 -459H392V-371H605Q658 -371 670 -357T682 -274Q682 -213 672 -199T603 -184H525V0H590Z"  />
<glyph unicode="&#xE8;" horiz-adv-x="1157" d="M543 -14Q307 -14 213 78T119 401V651Q119 883 212 975T541 1067H614Q850 1067 944 975T1038 651V492L281 491Q280 475 280 456T279 401Q279 238 331 183T541 127H614Q755 127 810 167T874 309H1036Q1024 138 926 62T616 -14H543ZM281 629H877V670Q877 818 824 871T614 924H541Q385 924 333 871T281 670V629ZM619 1178L350 1526H502L711 1178H619Z"  />
<glyph unicode="&#xE9;" horiz-adv-x="1157" d="M543 -14Q307 -14 213 78T119 401V651Q119 883 212 975T541 1067H614Q850 1067 944 975T1038 651V492L281 491Q280 475 280 456T279 401Q279 238 331 183T541 127H614Q755 127 810 167T874 309H1036Q1024 138 926 62T616 -14H543ZM281 629H877V670Q877 818 824 871T614 924H541Q385 924 333 871T281 670V629ZM553 1178H461L670 1526H822L553 1178Z"  />
<glyph unicode="&#xEA;" horiz-adv-x="1157" d="M543 -14Q307 -14 213 78T119 401V651Q119 883 212 975T541 1067H614Q850 1067 944 975T1038 651V492L281 491Q280 475 280 456T279 401Q279 238 331 183T541 127H614Q755 127 810 167T874 309H1036Q1024 138 926 62T616 -14H543ZM281 629H877V670Q877 818 824 871T614 924H541Q385 924 333 871T281 670V629ZM310 1178L510 1526H662L862 1178H770L586 1440L402 1178H310Z"  />
<glyph unicode="&#xEB;" horiz-adv-x="1157" d="M543 -14Q307 -14 213 78T119 401V651Q119 883 212 975T541 1067H614Q850 1067 944 975T1038 651V492L281 491Q280 475 280 456T279 401Q279 238 331 183T541 127H614Q755 127 810 167T874 309H1036Q1024 138 926 62T616 -14H543ZM281 629H877V670Q877 818 824 871T614 924H541Q385 924 333 871T281 670V629ZM355 1253V1417H496V1253H355ZM676 1253V1417H817V1253H676Z"  />
<glyph unicode="&#xEC;" horiz-adv-x="479" d="M162 0V1053H317V0H162ZM274 1178L5 1526H157L366 1178H274Z"  />
<glyph unicode="&#xED;" horiz-adv-x="479" d="M162 0V1053H317V0H162ZM208 1178H116L325 1526H477L208 1178Z"  />
<glyph unicode="&#xEE;" horiz-adv-x="479" d="M162 0V1053H317V0H162ZM-35 1178L165 1526H317L517 1178H425L241 1440L57 1178H-35Z"  />
<glyph unicode="&#xEF;" horiz-adv-x="479" d="M162 0V1053H317V0H162ZM10 1253V1417H151V1253H10ZM331 1253V1417H472V1253H331Z"  />
<glyph unicode="&#xF0;" horiz-adv-x="1157" d="M688 1280L356 1174L313 1288L602 1382L524 1489H690L741 1423L946 1491L991 1378L827 1323Q936 1165 987 1001T1038 651V401Q1038 169 945 78T616 -14H543Q307 -14 213 78T119 401V651Q119 883 212 975T541 1067H600Q679 1067 742 1034T860 930Q834 1018 792 1105T688 1280ZM614 924H541Q380 924 331 870T281 616V436Q281 235 331 181T541 127H614Q776 127 826 181T877 436V616Q877 751 802 837T614 924Z"  />
<glyph unicode="&#xF1;" horiz-adv-x="1180" d="M162 0V1053H311V909Q349 990 433 1028T655 1067Q862 1067 945 984T1028 690V0H872V657Q872 822 824 874T635 926Q470 926 394 851T317 612V0H162ZM910 1440Q884 1350 836 1305T719 1260Q705 1260 689 1262T653 1270L558 1298Q540 1304 528 1306T504 1309Q476 1309 452 1290T412 1237H332Q354 1324 404 1370T527 1417Q543 1417 556 1415T580 1409L677 1378Q689 1374 704 1371T732 1368Q766 1368 789 1385T828 1440H910Z"  />
<glyph unicode="&#xF2;" horiz-adv-x="1157" d="M543 -14Q307 -14 213 78T119 401V651Q119 883 212 975T541 1067H614Q850 1067 944 975T1038 651V401Q1038 169 945 78T616 -14H543ZM877 436V616Q877 815 827 869T614 924H541Q380 924 331 870T281 616V436Q281 235 331 181T541 127H614Q775 127 826 182T877 436ZM613 1178L344 1526H496L705 1178H613Z"  />
<glyph unicode="&#xF3;" horiz-adv-x="1157" d="M543 -14Q307 -14 213 78T119 401V651Q119 883 212 975T541 1067H614Q850 1067 944 975T1038 651V401Q1038 169 945 78T616 -14H543ZM877 436V616Q877 815 827 869T614 924H541Q380 924 331 870T281 616V436Q281 235 331 181T541 127H614Q775 127 826 182T877 436ZM547 1178H455L664 1526H816L547 1178Z"  />
<glyph unicode="&#xF4;" horiz-adv-x="1157" d="M543 -14Q307 -14 213 78T119 401V651Q119 883 212 975T541 1067H614Q850 1067 944 975T1038 651V401Q1038 169 945 78T616 -14H543ZM877 436V616Q877 815 827 869T614 924H541Q380 924 331 870T281 616V436Q281 235 331 181T541 127H614Q775 127 826 182T877 436ZM304 1178L504 1526H656L856 1178H764L580 1440L396 1178H304Z"  />
<glyph unicode="&#xF5;" horiz-adv-x="1157" d="M543 -14Q307 -14 213 78T119 401V651Q119 883 212 975T541 1067H614Q850 1067 944 975T1038 651V401Q1038 169 945 78T616 -14H543ZM877 436V616Q877 815 827 869T614 924H541Q380 924 331 870T281 616V436Q281 235 331 181T541 127H614Q775 127 826 182T877 436ZM869 1440Q843 1350 795 1305T678 1260Q664 1260 648 1262T612 1270L517 1298Q499 1304 487 1306T463 1309Q435 1309 411 1290T371 1237H291Q313 1324 363 1370T486 1417Q502 1417 515 1415T539 1409L636 1378Q648 1374 663 1371T691 1368Q725 1368 748 1385T787 1440H869Z"  />
<glyph unicode="&#xF6;" horiz-adv-x="1157" d="M543 -14Q307 -14 213 78T119 401V651Q119 883 212 975T541 1067H614Q850 1067 944 975T1038 651V401Q1038 169 945 78T616 -14H543ZM877 436V616Q877 815 827 869T614 924H541Q380 924 331 870T281 616V436Q281 235 331 181T541 127H614Q775 127 826 182T877 436ZM349 1253V1417H490V1253H349ZM670 1253V1417H811V1253H670Z"  />
<glyph unicode="&#xF7;" horiz-adv-x="1706" d="M854 1071Q898 1071 929 1039T961 963Q961 918 930 887T854 856Q809 856 779 886T748 963Q748 1007 779 1039T854 1071ZM1452 659V561H254V659H1452ZM854 365Q899 365 930 334T961 258Q961 214 930 183T854 152Q809 152 779 183T748 258Q748 302 779 333T854 365Z"  />
<glyph unicode="&#xF8;" horiz-adv-x="1157" d="M877 436V616Q877 683 875 732T868 817L373 139Q416 133 457 130T541 127H614Q775 127 826 182T877 436ZM543 -14Q458 -14 402 -6T301 20L195 -121L76 -31L182 115Q149 160 134 226T119 401V651Q119 883 212 975T541 1067H614Q703 1067 763 1059T858 1032L963 1174L1079 1085L975 942Q1008 891 1023 824T1038 651V401Q1038 169 945 78T616 -14H543ZM778 911Q748 918 710 921T614 924H541Q380 924 331 870T281 616V436Q281 351 282 313T287 242L778 911Z"  />
<glyph unicode="&#xF9;" horiz-adv-x="1180" d="M1020 1053V0H870V143Q833 63 748 25T524 -14Q318 -14 235 69T152 362V1053H307V395Q307 231 356 179T547 127Q711 127 786 202T862 440V1053H1020ZM623 1178L354 1526H506L715 1178H623Z"  />
<glyph unicode="&#xFA;" horiz-adv-x="1180" d="M1020 1053V0H870V143Q833 63 748 25T524 -14Q318 -14 235 69T152 362V1053H307V395Q307 231 356 179T547 127Q711 127 786 202T862 440V1053H1020ZM557 1178H465L674 1526H826L557 1178Z"  />
<glyph unicode="&#xFB;" horiz-adv-x="1180" d="M1020 1053V0H870V143Q833 63 748 25T524 -14Q318 -14 235 69T152 362V1053H307V395Q307 231 356 179T547 127Q711 127 786 202T862 440V1053H1020ZM314 1178L514 1526H666L866 1178H774L590 1440L406 1178H314Z"  />
<glyph unicode="&#xFC;" horiz-adv-x="1180" d="M1020 1053V0H870V143Q833 63 748 25T524 -14Q318 -14 235 69T152 362V1053H307V395Q307 231 356 179T547 127Q711 127 786 202T862 440V1053H1020ZM359 1253V1417H500V1253H359ZM680 1253V1417H821V1253H680Z"  />
<glyph unicode="&#xFD;" horiz-adv-x="999" d="M47 1053H203L516 147L827 1053H981L584 -92Q519 -278 452 -344T270 -410Q253 -410 233 -409T188 -403L189 -266Q196 -267 206 -267T236 -268Q308 -268 347 -236T422 -109L461 0H414L47 1053ZM468 1178H376L585 1526H737L468 1178Z"  />
<glyph unicode="&#xFE;" horiz-adv-x="1176" d="M313 1489V889Q350 980 431 1023T647 1067Q872 1067 964 974T1057 651V401Q1057 172 965 79T647 -14Q516 -14 439 24T319 150V-403H164V1489H313ZM319 612V440Q319 276 395 202T641 127Q794 127 844 182T895 436V616Q895 817 844 871T625 926Q469 926 394 850T319 612Z"  />
<glyph unicode="&#xFF;" horiz-adv-x="999" d="M47 1053H203L516 147L827 1053H981L584 -92Q519 -278 452 -344T270 -410Q253 -410 233 -409T188 -403L189 -266Q196 -267 206 -267T236 -268Q308 -268 347 -236T422 -109L461 0H414L47 1053ZM270 1253V1417H411V1253H270ZM591 1253V1417H732V1253H591Z"  />
<glyph unicode="&#x131;" horiz-adv-x="479" d="M162 0V1053H317V0H162Z"  />
<glyph unicode="&#x152;" horiz-adv-x="2351" d="M1223 0V135Q1170 52 1089 17T858 -18H670Q369 -18 251 94T133 492V997Q133 1282 251 1394T670 1507H858Q1008 1507 1090 1472T1223 1354V1489H2267V1331H1386V844H2243V692H1386V156H2267V0H1223ZM303 991V498Q303 351 319 294T375 203Q417 167 477 152T680 137H846Q989 137 1048 152T1151 203Q1191 236 1207 293T1223 498V991Q1223 1138 1207 1195T1151 1286Q1108 1322 1049 1337T846 1352H680Q537 1352 477 1337T375 1286Q335 1253 319 1196T303 991Z"  />
<glyph unicode="&#x153;" horiz-adv-x="1907" d="M877 436V616Q877 815 827 869T614 924H541Q380 924 331 870T281 616V436Q281 235 331 181T541 127H614Q775 127 826 182T877 436ZM543 -14Q307 -14 213 78T119 401V651Q119 883 212 975T541 1067H614Q755 1067 829 1038T954 940Q999 1009 1073 1038T1290 1067H1364Q1600 1067 1694 975T1788 651V492L1028 491Q1027 474 1027 456T1026 403Q1026 239 1078 183T1290 127H1364Q1504 127 1559 167T1624 309H1784Q1772 138 1674 62T1364 -14H1290Q1145 -14 1071 15T952 115Q904 44 832 15T616 -14H543ZM1028 629H1626V670Q1626 818 1573 871T1364 924H1290Q1134 924 1081 871T1028 670V629Z"  />
<glyph unicode="&#x160;" horiz-adv-x="1460" d="M139 485H305V457Q305 324 325 261T391 172Q427 152 502 144T811 135Q938 135 1008 151T1112 205Q1131 225 1140 273T1149 403Q1149 569 1116 611T983 662L524 698Q318 714 239 801T160 1094Q160 1224 186 1303T270 1434Q315 1474 396 1490T682 1507H735Q964 1507 1057 1485T1214 1409Q1257 1373 1277 1307T1298 1141Q1298 1112 1298 1097T1296 1069H1130V1106Q1130 1188 1121 1231T1090 1296Q1059 1327 980 1339T678 1352Q448 1352 389 1300T330 1092Q330 964 368 916T517 858L985 819Q1169 803 1243 718T1317 432Q1317 286 1298 213T1235 90Q1181 29 1090 5T756 -20H682Q476 -20 391 1T248 74Q192 122 166 204T139 412V485ZM455 1966H547L731 1704L915 1966H1007L807 1618H655L455 1966Z"  />
<glyph unicode="&#x161;" horiz-adv-x="1194" d="M123 313H281V289Q281 192 341 156T582 119Q785 119 832 156T879 299Q879 402 841 436T648 479Q591 482 494 485Q282 491 242 514Q182 547 157 604T131 768Q131 943 220 1005T612 1067Q847 1067 930 1008T1014 801H858V811Q858 881 798 907T557 934Q383 934 335 902T287 768Q287 706 296 681T328 643Q375 618 536 614Q577 613 599 612Q731 607 806 599T913 575Q983 543 1012 483T1042 309Q1042 193 1013 133T909 27Q875 5 798 -4T584 -14Q304 -14 214 50T123 285V313ZM322 1526H414L598 1264L782 1526H874L674 1178H522L322 1526Z"  />
<glyph unicode="&#x178;" horiz-adv-x="1219" d="M690 0H528V659L-88 1489H106L608 795L1110 1489H1305L690 662V0ZM379 1693V1857H520V1693H379ZM700 1693V1857H841V1693H700Z"  />
<glyph unicode="&#x17D;" horiz-adv-x="1331" d="M96 0V178L1053 1341H139V1489H1227V1315L276 156H1227V0H96ZM390 1966H482L666 1704L850 1966H942L742 1618H590L390 1966Z"  />
<glyph unicode="&#x17E;" horiz-adv-x="1057" d="M119 0V170L770 909H150V1053H961V907L287 141H961V0H119ZM252 1526H344L528 1264L712 1526H804L604 1178H452L252 1526Z"  />
<glyph unicode="&#x192;" horiz-adv-x="1384" d="M-47 -230Q8 -241 48 -246T113 -252Q235 -252 298 -175T401 115L528 791H233V924H549L584 1112Q619 1305 720 1406T981 1507Q1025 1507 1071 1502T1167 1485V1335Q1110 1347 1072 1352T1006 1358Q906 1358 843 1292T756 1096L723 924H1036V791H705L569 76Q519 -187 420 -295T135 -403Q96 -403 52 -398T-47 -381V-230Z"  />
<glyph unicode="&#x2C6;" horiz-adv-x="1024" d="M236 1178L436 1526H588L788 1178H696L512 1440L328 1178H236Z"  />
<glyph unicode="&#x2C7;" horiz-adv-x="1024" d="M236 1526H328L512 1264L696 1526H788L588 1178H436L236 1526Z"  />
<glyph unicode="&#x2DC;" horiz-adv-x="1024" d="M801 1440Q775 1350 727 1305T610 1260Q596 1260 580 1262T544 1270L449 1298Q431 1304 419 1306T395 1309Q367 1309 343 1290T303 1237H223Q245 1324 295 1370T418 1417Q434 1417 447 1415T471 1409L568 1378Q580 1374 595 1371T623 1368Q657 1368 680 1385T719 1440H801Z"  />
<glyph unicode="&#x2013;" horiz-adv-x="1024" d="M0 502V606H1024V502H0Z"  />
<glyph unicode="&#x2014;" horiz-adv-x="2048" d="M0 606H2048V502H0V606Z"  />
<glyph unicode="&#x2018;" horiz-adv-x="664" d="M414 1288V1081H250V1331Q250 1407 292 1448T414 1489L413 1401Q376 1397 361 1382T346 1331V1288H414Z"  />
<glyph unicode="&#x2019;" horiz-adv-x="664" d="M250 1282V1489H414V1239Q414 1163 372 1122T250 1081V1169Q286 1172 301 1188T317 1239V1282H250Z"  />
<glyph unicode="&#x201A;" horiz-adv-x="664" d="M250 0V207H414V-43Q414 -119 372 -160T250 -201V-113Q286 -110 301 -94T317 -43V0H250Z"  />
<glyph unicode="&#x201C;" horiz-adv-x="1006" d="M412 1288V1081H248V1331Q248 1407 290 1448T412 1489L411 1401Q374 1397 359 1382T344 1331V1288H412ZM758 1288V1081H592V1331Q592 1407 635 1448T758 1489L757 1401Q719 1397 704 1382T688 1331V1288H758Z"  />
<glyph unicode="&#x201D;" horiz-adv-x="1006" d="M592 1282V1489H756V1239Q756 1163 714 1122T592 1081V1169Q628 1172 643 1188T659 1239V1282H592ZM248 1282V1489H412V1239Q412 1163 370 1122T248 1081V1169Q285 1173 300 1188T315 1239V1282H248Z"  />
<glyph unicode="&#x201E;" horiz-adv-x="1006" d="M592 0V207H756V-43Q756 -119 714 -160T592 -201V-113Q628 -110 643 -94T659 -43V0H592ZM248 0V207H412V-43Q412 -119 370 -160T248 -201V-113Q284 -110 299 -94T315 -43V0H248Z"  />
<glyph unicode="&#x2020;" horiz-adv-x="1024" d="M590 1489V1090H885V948H590V0H434V948H139V1090H434V1489H590Z"  />
<glyph unicode="&#x2021;" horiz-adv-x="1024" d="M590 1489V1149H885V1008H590V483H885V342H590V0H434V342H139V483H434V1008H139V1149H434V1489H590Z"  />
<glyph unicode="&#x2022;" horiz-adv-x="1208" d="M307 762Q307 885 394 971T604 1057Q726 1057 812 971T899 762Q899 640 812 553T602 465Q479 465 393 552T307 762Z"  />
<glyph unicode="&#x2026;" horiz-adv-x="2048" d="M130 0V217H304V0H130ZM811 0V217H985V0H811ZM1495 0V217H1669V0H1495Z"  />
<glyph unicode="&#x2030;" horiz-adv-x="2736" d="M594 -18L1120 1507H1262L735 -18H594ZM1389 -18Q1219 -18 1152 52T1085 301V614Q1085 793 1152 863T1389 934H1479Q1648 934 1716 864T1784 614V301Q1784 121 1717 52T1479 -18H1389ZM387 690H461Q572 690 606 727T641 905V1157Q641 1299 606 1336T461 1374H387Q277 1374 241 1336T205 1157V905Q205 765 239 728T387 690ZM1399 117H1470Q1583 117 1618 154T1653 332V584Q1653 725 1617 763T1470 801H1399Q1289 801 1253 763T1217 584V332Q1217 192 1251 155T1399 117ZM379 555Q208 555 141 625T74 872V1188Q74 1366 142 1436T379 1507H469Q638 1507 705 1438T772 1188V872Q772 692 706 624T469 555H379ZM2269 -18Q2099 -18 2032 52T1964 301V614Q1964 792 2032 863T2269 934H2359Q2528 934 2595 864T2662 614V301Q2662 121 2596 52T2359 -18H2269ZM2277 117H2351Q2462 117 2496 154T2531 332V584Q2531 726 2496 763T2351 801H2277Q2168 801 2133 764T2097 584V332Q2097 190 2131 154T2277 117Z"  />
<glyph unicode="&#x2039;" horiz-adv-x="631" d="M516 213H344L98 526L344 840H516L268 526L516 213Z"  />
<glyph unicode="&#x203A;" horiz-adv-x="631" d="M115 213L362 526L115 840H287L532 526L287 213H115Z"  />
<glyph unicode="&#x20AC;" horiz-adv-x="657" d="M31 452H97Q108 515 132 566T193 653T274 709T374 729Q425 729 466 714T538 671T588 606T614 523H520Q508 581 472 614T373 647Q298 647 255 595T197 452H400V395H191Q190 385 190 375T190 355Q190 344 190 334T191 314H400V257H198Q214 163 261 115T381 67Q450 67 488 112T534 226H624Q622 176 605 132T556 56T480 4T382 -15Q328 -15 281 3T197 56T134 141T97 257H31V314H90Q89 324 89 334T89 355Q89 365 89 375T90 395H31V452Z"  />
<glyph unicode="&#x2122;" horiz-adv-x="1706" d="M694 1454V1397H522V924H440V1397H264V1454H694ZM938 1454L1104 1032L1260 1454H1376V924H1305V1391L1128 924H1079L893 1391V924H821V1454H938Z"  />

</font>
</defs>
</svg>
