<?xml  version="1.0" encoding="UTF-8"?>
<!DOCTYPE svg PUBLIC "-//W3C//DTD SVG 1.0//EN" "http://www.w3.org/TR/2001/REC-SVG-20010904/DTD/svg10.dtd" >
<svg xmlns="http://www.w3.org/2000/svg" >
<metadata>
<version>1.0</version>
<id><![CDATA[Museo W01 100]]></id>
<vendor>Monotype Imaging Inc.</vendor>
<credits>
<name>Fonts.com WebFonts</name>
<URL>http://webfonts.fonts.com</URL>
<role>Home of the Web fonts</role>
</credits>
<license>
<URL>http://webfonts.fonts.com/Legal</URL>
</license>
<copyright><![CDATA[Copyright (c) 2008 by Jos Buivenga/exljbris. All rights reserved.]]></copyright>
<trademark><![CDATA[Museo is a trademark of Jos Buivenga/exljbris.]]></trademark>
<licensee>
<name></name>
</licensee>
</metadata>
<defs >
<font horiz-adv-x="1084" id="eaf744fb-4131-4966-b507-d0474d384707">
<font-face font-family="" panose-1="2 0 0 0 0 0 0 0 0 0" ascent="1531" descent="-517" units-per-em="2048" alphabetic="0">
</font-face>
<missing-glyph horiz-adv-x="0" />

<glyph unicode="&#xA;" />
<glyph unicode="&#xD;" horiz-adv-x="0" />
<glyph unicode=" " horiz-adv-x="563" />
<glyph unicode="!" horiz-adv-x="575" d="M244 1434H332V358H244V1434ZM231 121H348V0H231V121Z"  />
<glyph unicode="&quot;" horiz-adv-x="588" d="M356 1452H444V1143H356V1452ZM143 1452H231V1143H143V1452Z"  />
<glyph unicode="#" horiz-adv-x="1473" d="M403 408H92L106 489H418L498 942H186L201 1024H512L584 1434H672L600 1024H987L1059 1434H1147L1075 1024H1380L1366 942H1061L981 489H1286L1272 408H967L895 0H807L879 408H492L420 0H332L403 408ZM893 489L973 942H586L506 489H893Z"  />
<glyph unicode="$" horiz-adv-x="1065" d="M172 291Q209 226 264 176Q287 154 316 134T382 97T460 71T551 61Q626 61 685 84T785 148T848 242T870 354Q870 429 839 483T757 578T641 651T509 714T376 780T260 861T178 968T147 1116Q147 1178 171 1235T242 1338T355 1414T506 1454V1649H594V1458Q642 1455 700 1442T809 1403T894 1334T928 1229V1139H840V1208Q840 1244 819 1274T761 1325T675 1359T569 1372Q489 1372 428 1352T325 1296T262 1215T240 1118Q240 1046 271 995T353 905T469 835T601 773T734 707T850 624T932 512T963 358Q963 287 938 222T865 104T749 18T594 -23V-213H506V-23Q453 -19 408 -5T324 28T255 70T198 116Q140 171 100 236L172 291Z"  />
<glyph unicode="%" horiz-adv-x="1448" d="M399 924Q344 924 296 944T211 1001T154 1085T133 1190Q133 1245 154 1294T211 1379T295 1437T399 1458Q454 1458 503 1437T589 1380T647 1294T668 1190Q668 1134 647 1086T589 1001T503 945T399 924ZM1217 1434H1323L236 0H129L1217 1434ZM399 1006Q438 1006 471 1020T528 1059T566 1117T580 1190Q580 1228 566 1262T528 1321T471 1361T399 1376Q361 1376 329 1362T272 1322T235 1262T221 1190Q221 1151 234 1118T272 1060T328 1021T399 1006ZM780 242Q780 297 801 346T858 431T942 489T1047 510Q1102 510 1151 489T1236 432T1294 346T1315 242Q1315 186 1294 138T1237 53T1151 -4T1047 -25Q991 -25 943 -4T858 53T801 137T780 242ZM868 242Q868 203 881 170T919 111T975 72T1047 57Q1085 57 1118 71T1175 111T1213 169T1227 242Q1227 280 1213 314T1175 373T1118 413T1047 428Q1008 428 976 414T919 374T882 314T868 242Z"  />
<glyph unicode="&amp;" horiz-adv-x="1253" d="M96 391Q96 454 113 515T165 628T250 719T367 776V780Q309 801 263 843Q243 861 225 885T192 941T169 1013T160 1102Q160 1179 188 1244T269 1356T400 1431T578 1458Q601 1458 627 1455T676 1448Q702 1444 729 1438L700 1360Q678 1364 656 1368Q636 1371 614 1373T571 1376Q503 1376 445 1357T344 1303T277 1218T252 1104Q252 1078 256 1047T274 983T310 921T373 868T468 830T602 815H936V1024H1024V815H1223V733H1024V504Q1024 367 991 268T898 103T754 7T567 -25Q463 -25 377 6T228 94T131 226T96 391ZM188 395Q188 326 213 265T288 159T407 88T567 61Q649 61 717 85T833 162T909 299T936 504V733H606Q498 733 420 708T290 639T213 532T188 395Z"  />
<glyph unicode="&apos;" horiz-adv-x="375" d="M143 1452H231V1143H143V1452Z"  />
<glyph unicode="(" horiz-adv-x="594" d="M178 686Q178 1130 391 1485H481Q371 1299 317 1104T262 692Q262 462 321 237T498 -195H408Q355 -104 313 0T240 217T194 448T178 686Z"  />
<glyph unicode=")" horiz-adv-x="594" d="M96 -195Q214 11 273 236T332 692Q332 909 278 1104T113 1485H203Q416 1130 416 686Q416 566 400 448T353 218T281 1T186 -195H96Z"  />
<glyph unicode="*" horiz-adv-x="973" d="M219 756L422 1022V1026L102 1122L129 1208L446 1098L436 1434H532L522 1098L842 1206L870 1122L549 1026V1022L750 756L678 702L487 977H483L293 705L219 756Z"  />
<glyph unicode="+" horiz-adv-x="1229" d="M86 621H571V1159H659V621H1143V539H659V0H571V539H86V621Z"  />
<glyph unicode="&#x2c;" horiz-adv-x="395" d="M262 125L131 -193H47L156 125H262Z"  />
<glyph unicode="-" horiz-adv-x="885" d="M160 621H725V539H160V621Z"  />
<glyph unicode="." horiz-adv-x="395" d="M139 121H256V0H139V121Z"  />
<glyph unicode="/" horiz-adv-x="629" d="M528 1516H618L100 -86H10L528 1516Z"  />
<glyph unicode="0" horiz-adv-x="1225" d="M612 -25Q475 -25 383 32T234 190T154 425T129 717Q129 820 139 915T173 1092T234 1242T325 1358T450 1432T612 1458Q749 1458 841 1401T990 1243T1071 1007T1096 717Q1096 561 1072 426T991 190T842 33T612 -25ZM612 61Q727 61 802 111T923 250T986 458T1004 717Q1004 855 986 974T923 1182T803 1321T612 1372Q498 1372 423 1322T302 1183T239 975T221 717Q221 578 239 458T302 250T422 112T612 61Z"  />
<glyph unicode="1" horiz-adv-x="922" d="M131 82H457V1249Q457 1263 457 1276T458 1299Q458 1310 459 1321H455Q450 1312 440 1300Q432 1289 417 1273T379 1233L209 1063L147 1122L457 1434H545V82H862V0H131V82Z"  />
<glyph unicode="2" horiz-adv-x="1141" d="M94 119Q94 220 127 295T216 429T342 534T486 622T630 706T756 799T845 914T879 1065Q879 1129 856 1185T791 1283T687 1348T547 1372Q488 1372 437 1358T346 1320T285 1265T262 1198V1128H174V1219Q174 1263 192 1298T242 1360T312 1405T393 1435T475 1452T549 1458Q655 1458 734 1426T865 1339T944 1213T971 1065Q971 969 937 897T848 768T721 665T577 577T432 491T306 395T216 278T182 127Q182 104 194 93T227 82H907Q952 82 952 127V227H1038V119Q1038 56 1011 28T920 0H213Q150 0 122 28T94 119Z"  />
<glyph unicode="3" horiz-adv-x="1055" d="M119 240Q164 190 223 150Q274 116 344 89T504 61Q572 61 636 86T751 158T831 270T862 414Q862 498 830 561T744 668T621 734T479 756H381L356 817L758 1286Q769 1300 780 1312T801 1333Q812 1344 821 1352V1356Q810 1355 793 1354Q779 1353 758 1353T711 1352H252Q207 1352 207 1307V1206H121V1315Q121 1378 149 1406T240 1434H944V1372L481 838Q524 838 576 830T680 803T782 753T869 674T931 563T954 414Q954 322 918 242T820 102T676 9T500 -25Q449 -25 403 -17T315 6T239 37T174 74Q105 118 53 174L119 240Z"  />
<glyph unicode="4" horiz-adv-x="1126" d="M29 471L772 1434H854V492H1085V410H854V0H766V410H29V471ZM766 1163Q766 1185 766 1207T769 1249Q770 1271 772 1292H768Q757 1278 746 1261Q736 1247 723 1229T696 1194L219 578Q189 540 167 515Q155 501 143 489V485Q160 486 179 488Q196 490 216 491T258 492H766V1163Z"  />
<glyph unicode="5" horiz-adv-x="1141" d="M188 238Q219 188 267 149Q287 132 312 117T369 89T438 69T520 61Q604 61 676 89T802 168T887 286T918 436Q918 517 887 586T803 707T677 786T520 815Q458 815 407 802T319 772Q276 753 242 729L176 752L242 1315Q246 1346 253 1369T273 1406T307 1427T360 1434H807Q869 1434 896 1406T924 1315V1206H838V1307Q838 1330 826 1341T793 1352H375Q353 1352 343 1341T330 1307L285 924Q283 903 280 887T275 859Q272 846 270 836H274Q305 854 343 868Q375 880 420 890T520 901Q623 901 712 865T868 765T972 618T1010 436Q1010 339 972 255T867 109T711 11T520 -25Q468 -25 423 -16T340 7T270 39T214 78Q156 124 117 182L188 238Z"  />
<glyph unicode="6" horiz-adv-x="1135" d="M598 -25Q479 -25 386 26T229 166T130 373T96 625Q96 714 111 811T157 1000T238 1176T356 1321T513 1421T713 1458Q768 1458 814 1449T893 1429Q932 1417 963 1401L920 1321Q893 1335 860 1346Q831 1356 793 1364T709 1372Q625 1372 556 1345T430 1270T330 1157T257 1017T209 859T186 694H190Q218 745 262 783T359 847T474 886T598 899Q692 899 773 868T912 778T1004 638T1038 453Q1038 336 1003 247T907 97T766 6T598 -25ZM197 528Q197 479 209 426T246 321T305 222T384 139T481 82T596 61Q679 61 744 90T854 171T922 295T946 453Q946 537 920 603T848 716T737 788T594 813Q511 813 439 787T313 719T228 627T197 528Z"  />
<glyph unicode="7" horiz-adv-x="1024" d="M829 1219Q843 1245 856 1269T881 1312Q893 1333 905 1352V1356Q893 1355 876 1354Q862 1353 841 1353T793 1352H201Q156 1352 156 1307V1206H70V1315Q70 1378 97 1406T188 1434H1014V1372L293 0H190L829 1219Z"  />
<glyph unicode="8" horiz-adv-x="1155" d="M106 399Q106 448 117 491T148 570T191 637T241 692Q301 748 377 788V793Q317 821 270 864Q250 882 231 905T197 957T173 1020T164 1094Q164 1166 192 1232T273 1348T405 1428T586 1458Q686 1458 765 1431T899 1354T983 1236T1012 1085Q1012 1042 1003 1004T980 932T946 869T908 816Q862 760 805 717V713Q857 687 901 658T979 589T1030 500T1049 383Q1049 299 1012 225T912 95T763 7T582 -25Q493 -25 408 2T255 83T147 216T106 399ZM569 801Q583 795 603 788T643 774T681 763T711 758Q732 758 767 785T836 859T895 963T920 1085Q920 1151 895 1204T826 1295T720 1352T586 1372Q508 1372 447 1351T344 1292T279 1204T256 1094Q256 1029 281 984T349 905T449 848T569 801ZM199 399Q199 319 231 257T318 151T441 84T582 61Q652 61 719 84T838 150T923 251T956 381Q956 445 933 490T868 570T771 631T653 682Q634 689 605 699T548 720T498 736T469 743Q455 743 430 732T374 699T313 648T257 579T215 495T199 399Z"  />
<glyph unicode="9" horiz-adv-x="1135" d="M215 113Q241 98 274 87Q302 77 340 69T426 61Q509 61 579 88T705 164T805 277T878 418T925 576T948 741H944Q915 690 872 652T775 587T661 548T537 535Q442 535 362 566T222 656T130 796T96 981Q96 1098 131 1187T228 1336T368 1427T537 1458Q656 1458 749 1407T906 1267T1004 1060T1038 809Q1038 719 1023 623T977 434T896 258T779 112T621 12T422 -25Q366 -25 320 -16T241 4Q202 16 172 33L215 113ZM541 621Q624 621 696 647T822 714T907 806T938 905Q938 954 926 1007T889 1113T830 1212T751 1294T653 1351T539 1372Q456 1372 391 1343T280 1262T212 1138T188 981Q188 897 214 831T287 718T398 646T541 621Z"  />
<glyph unicode=":" horiz-adv-x="559" d="M221 1024H338V903H221V1024ZM221 121H338V0H221V121Z"  />
<glyph unicode=";" horiz-adv-x="559" d="M221 1024H338V903H221V1024ZM221 125H328L213 -193H129L221 125Z"  />
<glyph unicode="&lt;" horiz-adv-x="1229" d="M147 616L1047 1020V922L274 582V578L1047 238V139L147 543V616Z"  />
<glyph unicode="=" horiz-adv-x="1229" d="M147 784H1081V702H147V784ZM147 457H1081V375H147V457Z"  />
<glyph unicode="&gt;" horiz-adv-x="1229" d="M162 238L934 578V582L162 922V1020L1061 616V543L162 139V238Z"  />
<glyph unicode="?" horiz-adv-x="842" d="M322 449Q322 533 349 595T417 707T505 799T593 887T661 985T688 1108Q688 1163 667 1211T606 1295T511 1351T389 1372Q332 1372 285 1359T203 1329Q163 1310 129 1286L82 1356Q118 1384 165 1407Q205 1426 261 1442T387 1458Q475 1458 547 1432T672 1358T752 1246T780 1106Q780 1021 753 960T684 850T595 760T506 674T438 576T410 449V358H322V449ZM307 121H424V0H307V121Z"  />
<glyph unicode="@" horiz-adv-x="1470" d="M88 498Q88 601 113 696T185 875T297 1026T441 1143T610 1218T797 1245Q929 1245 1019 1214T1166 1132T1247 1016T1272 883V178H1415V96H872Q790 96 718 127T593 212T508 338T477 494Q477 576 508 649T592 776T718 863T872 895H1180Q1178 946 1158 994T1094 1080T980 1140T809 1163Q676 1163 561 1111T362 969T229 757T180 498Q180 405 202 320T264 162T362 28T488 -74T639 -140T809 -164V-250Q709 -250 617 -224T445 -149T299 -32T186 119T114 298T88 498ZM569 494Q569 428 593 371T660 271T760 203T883 178H1180V813H887Q820 813 762 788T661 719T594 617T569 494Z"  />
<glyph unicode="A" horiz-adv-x="1329" d="M27 82H49Q78 82 97 90T127 127L616 1434H713L1202 127Q1213 98 1232 90T1280 82H1303V0H1278Q1240 0 1214 4T1170 21T1138 57T1110 119L969 496H360L219 119Q205 81 192 58T160 22T116 5T51 0H27V82ZM940 578L721 1159Q712 1182 703 1212T685 1268Q675 1299 666 1331H662Q654 1299 644 1268Q636 1242 626 1212T608 1159L391 578H940Z"  />
<glyph unicode="B" horiz-adv-x="1219" d="M221 1352H88V1434H692Q770 1434 836 1409T951 1337T1027 1224T1055 1075Q1055 1017 1042 968T1003 880T944 812T868 762V758Q921 743 966 711T1043 631T1094 524T1112 395Q1112 305 1082 233T999 108T872 28T713 0H340Q277 0 249 28T221 119V1352ZM690 795Q750 795 800 815T886 871T943 959T963 1075Q963 1138 944 1189T889 1276T802 1332T688 1352H309V795H690ZM309 127Q309 104 321 93T354 82H705Q777 82 835 103T934 165T998 264T1020 395Q1020 468 997 527T931 627T830 690T702 713H309V127Z"  />
<glyph unicode="C" horiz-adv-x="1409" d="M84 727Q84 883 137 1016T285 1248T507 1402T784 1458Q837 1458 897 1451T1016 1427T1129 1387T1225 1331T1292 1256T1317 1163V1061H1229V1143Q1229 1180 1209 1211T1155 1267T1077 1312T983 1345T883 1365T786 1372Q656 1372 545 1323T351 1188T223 984T176 727Q176 588 222 467T351 255T547 113T793 61Q850 61 901 70T998 93T1081 125T1151 163Q1224 208 1278 266L1333 203Q1273 139 1193 89Q1158 68 1116 48T1024 11T916 -15T793 -25Q690 -25 598 2T426 77T284 195T177 347T108 527T84 727Z"  />
<glyph unicode="D" horiz-adv-x="1464" d="M225 1352H92V1434H666Q826 1434 957 1386T1183 1246T1328 1021T1380 717Q1380 546 1329 413T1183 188T958 48T666 0H344Q281 0 253 28T225 119V1352ZM313 127Q313 104 325 93T358 82H651Q794 82 911 123T1112 245T1242 443T1288 717Q1288 870 1242 988T1113 1188T912 1310T651 1352H313V127Z"  />
<glyph unicode="E" horiz-adv-x="1124" d="M225 1352H92V1434H891Q954 1434 982 1406T1010 1315V1206H924V1307Q924 1330 912 1341T879 1352H313V764H885V682H313V127Q313 104 325 93T358 82H940Q985 82 985 127V227H1071V119Q1071 56 1043 28T952 0H344Q281 0 253 28T225 119V1352Z"  />
<glyph unicode="F" horiz-adv-x="997" d="M225 1352H92V1434H829Q892 1434 920 1406T948 1315V1206H862V1307Q862 1352 817 1352H313V754H862V672H313V0H225V1352Z"  />
<glyph unicode="G" horiz-adv-x="1483" d="M88 717Q88 872 142 1007T292 1242T517 1400T797 1458Q857 1458 910 1451T1010 1431T1094 1404T1164 1372Q1236 1334 1288 1286L1235 1217Q1185 1260 1119 1294Q1091 1309 1057 1323T982 1348T895 1365T797 1372Q664 1372 551 1322T356 1183T227 975T180 717Q180 578 225 458T352 250T546 112T791 61Q848 61 900 71T997 97T1081 135T1152 179Q1226 231 1282 297V506Q1282 551 1237 551H1149V633H1251Q1314 633 1342 605T1370 514V0H1282V125Q1282 136 1282 147T1283 167Q1283 177 1284 186H1280Q1227 127 1154 80Q1123 60 1085 41T1001 8T903 -16T791 -25Q641 -25 513 32T290 190T142 425T88 717Z"  />
<glyph unicode="H" horiz-adv-x="1536" d="M225 1307Q225 1352 180 1352H92V1434H195Q258 1434 285 1406T313 1315V760H1223V1315Q1223 1378 1250 1406T1341 1434H1444V1352H1356Q1311 1352 1311 1307V0H1223V678H313V0H225V1307Z"  />
<glyph unicode="I" horiz-adv-x="555" d="M102 82H233V1352H102V1434H453V1352H322V82H453V0H102V82Z"  />
<glyph unicode="J" horiz-adv-x="1004" d="M53 436H141V391Q141 298 167 235T236 133T330 78T436 61Q489 61 542 77T637 133T705 235T731 391V1307Q731 1352 686 1352H328V1434H700Q763 1434 791 1406T819 1315V391Q819 276 786 197T698 68T575 -3T436 -25Q366 -25 298 -3T175 68T87 196T53 391V436Z"  />
<glyph unicode="K" horiz-adv-x="1167" d="M225 1307Q225 1352 180 1352H92V1434H195Q258 1434 285 1406T313 1315V795H516Q556 795 588 806T639 846L1012 1434H1118L727 827Q714 807 703 794T683 773Q672 763 664 758V754Q672 750 682 741Q690 733 700 719T723 682L1001 129Q1017 97 1041 90T1106 82H1147V0H1106Q1061 0 1031 3T980 18T943 51T909 109L637 657Q620 693 586 703T504 713H313V0H225V1307Z"  />
<glyph unicode="L" horiz-adv-x="1059" d="M225 1307Q225 1352 180 1352H92V1434H195Q258 1434 285 1406T313 1315V127Q313 104 325 93T358 82H907Q952 82 952 127V227H1038V119Q1038 56 1011 28T920 0H344Q281 0 253 28T225 119V1307Z"  />
<glyph unicode="M" horiz-adv-x="1708" d="M47 82H129Q171 82 174 127L279 1434H365L782 532Q794 506 806 478T829 426Q840 398 852 371H856Q868 398 879 426Q889 450 901 478T926 532L1343 1434H1430L1534 127Q1537 82 1579 82H1661V0H1565Q1502 0 1476 28T1446 119L1368 1094Q1366 1120 1365 1153T1363 1215Q1362 1249 1362 1284H1358Q1345 1249 1333 1215Q1322 1186 1309 1153T1284 1094L899 276H809L426 1094Q414 1119 401 1152T376 1216Q363 1251 350 1288H346Q346 1252 345 1217Q344 1187 343 1154T340 1094L262 119Q260 87 253 65T232 28T196 7T143 0H47V82Z"  />
<glyph unicode="N" horiz-adv-x="1548" d="M92 82H180Q225 82 225 127V1434H307L1124 309Q1141 284 1162 254T1200 195Q1220 162 1241 129H1245Q1242 160 1240 192Q1238 219 1237 250T1235 309V1315Q1235 1378 1263 1406T1354 1434H1456V1352H1368Q1323 1352 1323 1307V0H1241L424 1124Q406 1149 386 1180T348 1239Q328 1272 307 1305H303Q305 1273 308 1241Q310 1214 311 1183T313 1124V119Q313 56 286 28T195 0H92V82Z"  />
<glyph unicode="O" horiz-adv-x="1618" d="M84 727Q84 830 110 924T183 1099T297 1247T443 1360T616 1432T809 1458Q909 1458 1001 1433T1174 1360T1321 1247T1434 1100T1508 924T1534 727Q1534 621 1508 525T1435 345T1321 193T1175 77T1002 2T809 -25Q709 -25 617 1T444 76T297 193T184 344T110 525T84 727ZM176 727Q176 586 225 465T361 254T562 113T809 61Q940 61 1055 112T1257 253T1392 464T1442 727Q1442 864 1393 982T1257 1186T1056 1322T809 1372Q678 1372 563 1323T361 1187T226 982T176 727Z"  />
<glyph unicode="P" horiz-adv-x="1163" d="M225 1352H92V1434H676Q770 1434 849 1405T987 1322T1079 1191T1112 1016Q1112 918 1079 840T988 708T850 624T676 594H313V0H225V1352ZM672 676Q750 676 814 699T924 765T995 872T1020 1016Q1020 1097 995 1159T925 1264T815 1329T672 1352H313V676H672Z"  />
<glyph unicode="Q" horiz-adv-x="1618" d="M84 725Q84 828 109 923T182 1099T295 1246T441 1360T613 1432T805 1458Q906 1458 999 1433T1174 1360T1321 1247T1435 1099T1508 923T1534 725Q1534 652 1521 582T1484 446T1424 323T1346 215L1530 25L1473 -31L1290 158Q1193 70 1070 23T805 -25Q705 -25 613 1T441 77T295 194T182 345T110 525T84 725ZM176 725Q176 586 224 465T357 254T557 113T805 61Q903 61 981 85T1115 140Q1180 174 1231 219L1047 410L1104 465L1286 276Q1358 364 1400 480T1442 725Q1442 863 1393 981T1259 1187T1057 1323T805 1372Q672 1372 557 1323T358 1187T225 982T176 725Z"  />
<glyph unicode="R" horiz-adv-x="1214" d="M225 1352H92V1434H686Q772 1434 844 1406T969 1325T1051 1200T1081 1036Q1081 959 1060 895T1000 781T907 698T786 651V647Q793 643 800 636Q806 630 813 621T827 598L1061 129Q1076 97 1100 90T1165 82H1194V0H1165Q1120 0 1090 3T1039 18T1003 51T969 109L754 541Q738 572 724 591T693 619T655 632T604 635H313V0H225V1352ZM682 717Q752 717 809 739T906 803T967 904T989 1036Q989 1109 968 1167T906 1267T809 1330T682 1352H313V717H682Z"  />
<glyph unicode="S" horiz-adv-x="1032" d="M139 238Q184 188 242 149Q292 116 362 89T522 61Q589 61 647 82T748 143T817 235T842 354Q842 429 811 483T729 579T613 652T481 714T348 779T232 858T150 964T119 1108Q119 1177 148 1240T231 1352T363 1429T539 1458Q570 1458 609 1454T690 1439T771 1411T841 1368T890 1308T909 1229V1139H821V1208Q821 1244 798 1274T737 1325T648 1359T541 1372Q461 1372 400 1350T296 1292T233 1208T211 1110Q211 1040 242 990T324 902T440 834T572 773T705 707T821 624T903 512T934 358Q934 281 905 212T822 90T691 6T518 -25Q465 -25 418 -17T331 5T256 36T193 72Q128 115 80 170L139 238Z"  />
<glyph unicode="T" horiz-adv-x="1239" d="M575 1352H162Q139 1352 128 1342T117 1307V1206H31V1323Q31 1386 54 1410T141 1434H1098Q1161 1434 1184 1410T1208 1323V1206H1122V1307Q1122 1331 1111 1341T1077 1352H664V0H575V1352Z"  />
<glyph unicode="U" horiz-adv-x="1448" d="M209 1307Q209 1352 164 1352H76V1434H178Q241 1434 269 1406T297 1315V487Q297 389 327 311T412 177T546 91T723 61Q820 61 899 91T1034 177T1120 313T1151 492V1315Q1151 1378 1179 1406T1270 1434H1372V1352H1284Q1239 1352 1239 1307V481Q1239 367 1202 274T1097 114T934 11T725 -25Q611 -25 516 11T353 113T247 273T209 481V1307Z"  />
<glyph unicode="V" horiz-adv-x="1309" d="M117 1307Q106 1336 87 1344T39 1352H27V1434H41Q79 1434 105 1430T149 1412T181 1376T209 1315L596 274Q605 248 615 219T633 163Q643 132 651 102H655Q664 132 674 163Q682 189 691 218T711 274L1100 1315Q1115 1353 1128 1376T1160 1412T1203 1429T1268 1434H1282V1352H1270Q1241 1352 1222 1344T1192 1307L702 0H606L117 1307Z"  />
<glyph unicode="W" horiz-adv-x="1894" d="M133 1307Q125 1336 105 1344T53 1352H37V1434H51Q90 1434 118 1430T166 1413T199 1377T223 1315L494 266Q501 240 507 214T518 164Q523 138 528 113H532Q538 137 545 163Q551 185 558 212T573 266L915 1425H1020L1325 266Q1332 239 1338 212T1349 163Q1354 137 1360 113H1364Q1369 138 1374 164Q1379 187 1385 213T1399 266L1671 1315Q1681 1353 1695 1376T1729 1412T1777 1429T1843 1434H1858V1352H1841Q1810 1352 1790 1344T1761 1307L1417 0H1309L1020 1081Q1010 1116 1002 1156T985 1230Q976 1270 969 1309H965Q956 1271 946 1231Q938 1197 928 1158T907 1083L586 0H477L133 1307Z"  />
<glyph unicode="X" horiz-adv-x="1128" d="M502 758L174 1296Q151 1333 123 1342T63 1352H29V1434H63Q102 1434 130 1430T181 1413T224 1377T268 1315L471 977Q486 951 502 923T533 871Q549 844 565 817H569Q582 844 596 871Q608 894 623 922T655 977L860 1315Q883 1353 903 1376T947 1412T999 1429T1065 1434H1100V1352H1065Q1034 1352 1006 1343T954 1296L625 758L1090 0H985L653 545Q636 571 621 598T591 648Q575 674 561 698H557Q544 673 530 647Q518 624 503 597T471 543L143 0H39L502 758Z"  />
<glyph unicode="Y" horiz-adv-x="1192" d="M553 623L147 1296Q129 1328 104 1340T47 1352H20V1434H39Q77 1434 104 1430T152 1414T194 1378T238 1315L506 868Q521 842 536 814T565 762Q580 734 594 707H598Q611 734 626 762Q639 786 654 814T686 868L954 1315Q978 1354 997 1377T1039 1413T1088 1430T1153 1434H1171V1352H1145Q1114 1352 1089 1340T1044 1296L641 623V0H553V623Z"  />
<glyph unicode="Z" horiz-adv-x="1165" d="M41 70L864 1221Q883 1247 902 1271T936 1313Q954 1334 969 1352V1356Q958 1355 943 1354Q930 1353 911 1353T864 1352H195Q150 1352 150 1307V1206H63V1315Q63 1378 91 1406T182 1434H1075V1364L252 213Q232 186 214 162T180 120Q162 99 147 82V78Q157 79 172 80Q185 81 205 81T252 82H971Q992 82 1004 93T1016 127V227H1102V119Q1102 56 1074 28T983 0H41V70Z"  />
<glyph unicode="[" horiz-adv-x="578" d="M215 1366Q215 1429 243 1457T334 1485H436V1403H348Q303 1403 303 1358V-68Q303 -113 348 -113H436V-195H334Q271 -195 243 -167T215 -76V1366Z"  />
<glyph unicode="\" horiz-adv-x="608" d="M10 1516H100L618 -86H528L10 1516Z"  />
<glyph unicode="]" horiz-adv-x="578" d="M229 -113Q274 -113 274 -68V1358Q274 1403 229 1403H141V1485H244Q307 1485 334 1457T362 1366V-76Q362 -139 335 -167T244 -195H141V-113H229Z"  />
<glyph unicode="^" horiz-adv-x="1229" d="M561 1434H627L1030 516H936L594 1311L252 516H158L561 1434Z"  />
<glyph unicode="_" horiz-adv-x="1036" d="M1026 0V-82H10V0H1026Z"  />
<glyph unicode="`" horiz-adv-x="702" d="M209 1763H324L461 1536H371L209 1763Z"  />
<glyph unicode="a" horiz-adv-x="1055" d="M88 272Q88 359 122 419T212 518T337 579T477 611T612 623T723 625H791V639Q791 730 775 793T723 895T631 951T494 969Q480 969 458 968T411 962T360 951T313 933T279 905T266 868V799H180V893Q180 923 197 946T243 987T306 1016T377 1035T443 1046T496 1049Q613 1049 687 1019T804 937T861 814T877 662V123Q877 78 922 78H1010V0H909Q846 0 819 28T791 125Q791 145 791 162T793 192Q794 206 795 217H791Q791 217 784 199T759 154T714 96T647 38T555 -7T436 -25Q374 -25 312 -8T200 47T119 139T88 272ZM178 279Q178 238 194 198T244 126T326 75T440 55Q524 55 589 94T699 196T767 336T791 489V545H725Q681 545 624 544T506 536T386 512T281 467T207 391T178 279Z"  />
<glyph unicode="b" horiz-adv-x="1165" d="M176 1311Q176 1356 131 1356H43V1434H143Q206 1434 234 1406T262 1315V911Q262 893 262 878T260 851Q259 838 258 827H262Q290 889 339 938Q360 959 388 978T452 1014T532 1039T629 1049Q732 1049 814 1010T953 899T1040 730T1071 512Q1071 390 1037 291T943 121T798 13T612 -25Q564 -25 523 -16T448 9T388 45T340 86Q292 134 262 197H258Q259 186 260 172Q261 160 261 143T262 106V0H176V1311ZM260 510Q260 425 282 344T348 199T459 96T616 57Q691 57 757 87T873 176T952 319T981 512Q981 615 955 699T882 842T769 933T625 965Q554 965 488 939T372 858T291 717T260 510Z"  />
<glyph unicode="c" horiz-adv-x="1073" d="M90 510Q90 632 132 731T247 901T415 1010T618 1049Q646 1049 683 1045T761 1031T840 1005T910 965T960 909T979 836V758H893V817Q893 855 864 883T793 929T703 956T618 965Q528 965 449 933T310 841T215 698T180 510Q180 408 215 325T309 183T448 91T618 59Q703 59 766 82T874 133Q924 166 961 207L1006 135Q964 90 907 55Q858 25 786 0T618 -25Q510 -25 414 12T246 120T132 289T90 510Z"  />
<glyph unicode="d" horiz-adv-x="1174" d="M94 512Q94 634 128 733T223 903T368 1011T553 1049Q601 1049 642 1040T716 1014T777 979T825 938Q873 889 903 827H907Q906 838 905 851Q904 862 904 877T903 911V1311Q903 1356 858 1356H770V1434H870Q933 1434 961 1406T989 1315V123Q989 100 1001 89T1034 78H1122V0H1022Q959 0 931 28T903 119Q903 136 903 150T905 176Q906 188 907 197H903Q875 134 826 86Q805 65 777 45T714 10T634 -15T537 -25Q434 -25 352 14T213 125T125 294T94 512ZM541 59Q611 59 677 85T793 166T874 307T905 514Q905 599 883 680T817 825T706 928T549 967Q474 967 408 937T292 848T213 705T184 512Q184 408 210 325T284 182T397 91T541 59Z"  />
<glyph unicode="e" horiz-adv-x="1114" d="M90 510Q90 640 131 740T241 909T400 1013T588 1049Q692 1049 770 1011T901 909T980 760T1006 582Q1006 573 1005 563T1003 545Q1002 535 1001 526H180Q180 415 215 328T310 181T449 90T618 59Q692 59 750 79T851 123Q899 151 936 188L983 117Q939 77 884 46Q836 19 769 -3T618 -25Q510 -25 414 12T246 120T132 289T90 510ZM915 606Q911 700 883 768T811 881T708 947T586 969Q515 969 449 946T329 878T238 764T186 606H915Z"  />
<glyph unicode="f" horiz-adv-x="588" d="M184 946H55V1024H184V1065Q184 1149 201 1210T245 1313T308 1381T379 1421T449 1439T508 1444Q520 1444 530 1444T547 1442Q555 1441 561 1440V1360Q555 1361 548 1362Q542 1363 534 1363T514 1364Q483 1364 441 1355T361 1315T297 1225T270 1067V1024H551V946H270V0H184V946Z"  />
<glyph unicode="g" horiz-adv-x="1157" d="M94 528Q94 648 125 744T214 908T353 1012T535 1049Q589 1049 633 1041T712 1019T773 988T820 953Q866 911 887 858H891Q890 864 890 872Q889 879 889 887T889 905Q889 968 917 996T1008 1024H1108V946H1020Q975 946 975 901V6Q975 -111 936 -194T832 -329T682 -406T506 -430Q421 -430 341 -409T184 -350L225 -274Q263 -294 307 -310Q345 -324 394 -335T500 -346Q582 -346 653 -326T776 -263T859 -154T889 6V115Q889 132 889 148T891 175Q892 188 893 199H889Q842 105 760 53T549 0Q449 0 366 37T222 144T128 310T94 528ZM555 84Q622 84 683 107T790 182T864 319T891 528Q891 652 864 735T788 870T675 943T535 965Q452 965 387 936T277 850T208 713T184 528Q184 424 211 342T287 203T404 115T555 84Z"  />
<glyph unicode="h" horiz-adv-x="1208" d="M176 1311Q176 1356 131 1356H43V1434H143Q206 1434 234 1407T262 1321V854Q262 836 262 821T260 794Q259 781 258 770H262Q275 806 308 854T394 945T521 1019T692 1049Q792 1049 857 1021T960 940T1014 814T1030 649V123Q1030 100 1042 89T1075 78H1163V0H1063Q1000 0 972 28T944 119V618Q944 685 937 747T905 858T829 936T692 965Q620 965 554 941T433 874T338 770T279 639Q269 607 266 572T262 500V0H176V1311Z"  />
<glyph unicode="i" horiz-adv-x="471" d="M182 1434H276V1284H182V1434ZM195 901Q195 924 183 935T150 946H61V1024H162Q225 1024 253 996T281 905V123Q281 78 326 78H414V0H313Q250 0 223 28T195 119V901Z"  />
<glyph unicode="j" horiz-adv-x="516" d="M236 1434H330V1284H236V1434ZM-45 -336Q-40 -337 -33 -338Q-27 -339 -19 -339T0 -340Q31 -340 73 -331T153 -291T219 -201T246 -43V901Q246 924 234 935T201 946H113V1024H213Q276 1024 304 996T332 905V-41Q332 -126 315 -187T271 -290T208 -358T137 -397T67 -415T6 -420Q-6 -420 -15 -420T-31 -418Q-39 -417 -45 -416V-336Z"  />
<glyph unicode="k" horiz-adv-x="969" d="M176 1311Q176 1356 131 1356H43V1434H143Q206 1434 234 1406T262 1315V618H381Q412 618 447 631T506 672L795 1024H909L598 653Q578 630 564 617T539 596Q528 587 520 584V580Q529 576 539 566Q547 558 558 544T582 508L797 125Q804 111 812 102T831 88T857 80T895 78H944V0H891Q849 0 822 4T776 20T740 53T705 109L487 496Q479 511 466 520T437 535T405 541T373 543H262V0H176V1311Z"  />
<glyph unicode="l" horiz-adv-x="459" d="M182 1311Q182 1356 137 1356H49V1434H150Q213 1434 240 1406T268 1315V123Q268 100 280 89T313 78H401V0H301Q238 0 210 28T182 119V1311Z"  />
<glyph unicode="m" horiz-adv-x="1894" d="M182 901Q182 946 137 946H49V1024H150Q213 1024 240 997T268 911V854Q268 836 268 821T266 794Q265 781 264 770H268Q287 828 328 878T422 967T536 1027T657 1049Q811 1049 887 978T981 770H985Q1006 828 1045 878T1135 967T1247 1027T1374 1049Q1473 1049 1539 1021T1644 941T1699 814T1716 649V123Q1716 100 1728 89T1761 78H1849V0H1749Q1686 0 1658 28T1630 119V618Q1630 690 1621 754T1584 866T1506 941T1374 969Q1310 969 1252 943T1147 873T1066 773T1014 657Q1003 622 998 584T993 500V0H907V618Q907 684 900 747T867 860T792 939T657 969Q589 969 529 942T421 868T338 763T285 639Q275 607 272 572T268 500V0H182V901Z"  />
<glyph unicode="n" horiz-adv-x="1214" d="M182 901Q182 946 137 946H49V1024H150Q213 1024 240 997T268 911V854Q268 836 268 821T266 794Q265 781 264 770H268Q281 806 314 854T400 945T527 1019T698 1049Q798 1049 863 1021T967 940T1020 814T1036 649V123Q1036 100 1048 89T1081 78H1169V0H1069Q1006 0 978 28T950 119V618Q950 685 943 747T911 858T835 936T698 965Q626 965 560 941T439 874T344 770T285 639Q275 607 272 572T268 500V0H182V901Z"  />
<glyph unicode="o" horiz-adv-x="1241" d="M90 518Q90 630 132 727T246 895T414 1008T621 1049Q730 1049 826 1008T995 896T1109 727T1151 518Q1151 404 1109 305T995 132T827 17T621 -25Q511 -25 415 17T246 132T132 304T90 518ZM180 518Q180 420 214 337T309 191T449 94T621 59Q712 59 792 94T932 191T1026 336T1061 518Q1061 613 1027 695T932 837T792 931T621 965Q529 965 449 931T309 837T215 695T180 518Z"  />
<glyph unicode="p" horiz-adv-x="1171" d="M182 901Q182 946 137 946H49V1024H150Q213 1024 240 997T268 911Q268 893 268 878T267 852Q266 839 266 829H270Q297 891 346 939Q367 960 394 979T457 1014T537 1039T635 1049Q738 1049 820 1010T959 899T1046 730T1077 512Q1077 390 1043 291T949 121T806 13T623 -25Q572 -25 530 -16T454 9T392 45T344 86Q296 134 268 197H264Q265 186 266 172Q267 160 267 143T268 106V-410H182V901ZM266 510Q266 425 289 344T357 199T468 96T623 57Q698 57 764 87T879 176T958 319T987 512Q987 615 961 699T888 842T775 933T631 965Q560 965 494 939T378 858T297 717T266 510Z"  />
<glyph unicode="q" horiz-adv-x="1174" d="M96 512Q96 634 130 733T225 903T370 1011T555 1049Q603 1049 644 1040T718 1015T778 980T826 939Q874 891 903 829H907Q906 839 906 852Q905 863 905 878T905 911Q905 970 932 997T1022 1024H1124V946H1036Q1015 946 1003 935T991 901V-410H905V106Q905 126 905 143T907 172Q908 186 909 197H905Q877 134 828 86Q807 65 779 45T716 10T636 -15T539 -25Q436 -25 354 14T215 125T127 294T96 512ZM543 59Q613 59 679 85T795 166T876 307T907 514Q907 599 885 680T819 825T708 928T551 967Q476 967 410 937T294 848T215 705T186 512Q186 408 212 325T286 182T399 91T543 59Z"  />
<glyph unicode="r" horiz-adv-x="696" d="M182 901Q182 946 137 946H49V1024H150Q213 1024 240 997T268 911V840Q268 822 268 807T266 780Q265 767 264 756H268Q287 815 317 865T388 953T480 1011T592 1032Q603 1032 614 1031T633 1029Q643 1027 651 1026V940Q644 941 636 942Q629 943 621 943T604 944Q544 944 495 921T408 858T343 766T299 657Q282 603 275 548T268 442V0H182V901Z"  />
<glyph unicode="s" horiz-adv-x="874" d="M125 215Q157 171 204 137Q244 108 303 84T442 59Q491 59 536 71T617 108T673 168T694 252Q694 300 669 335T602 397T507 446T399 490T291 538T197 596T130 675T104 782Q104 848 130 898T203 981T314 1032T455 1049Q488 1049 537 1041T632 1013T710 959T743 874V797H657V846Q657 878 636 900T585 937T520 958T459 965Q334 965 265 921T195 788Q195 739 220 704T287 641T381 593T489 549T598 501T692 442T758 361T784 252Q784 190 758 140T685 52T576 -5T440 -25Q392 -25 350 -18T273 2T208 30T155 63Q100 102 63 152L125 215Z"  />
<glyph unicode="t" horiz-adv-x="655" d="M197 946H61V1024H197V1309H283V1024H551V946H283V377Q283 275 309 215T374 123T453 82T526 72Q537 72 545 72T560 74Q567 75 573 76V-4Q567 -5 559 -6Q552 -7 543 -7T522 -8Q495 -8 461 -4T391 14T320 54T258 122T214 225T197 371V946Z"  />
<glyph unicode="u" horiz-adv-x="1204" d="M178 901Q178 946 133 946H45V1024H145Q208 1024 236 997T264 911V406Q264 339 271 277T304 166T380 88T516 59Q612 59 689 98T822 202T906 350T936 524V1024H1022V123Q1022 78 1067 78H1155V0H1055Q992 0 964 27T936 113V170Q936 187 936 203T938 230Q939 243 940 254H936Q923 218 891 170T806 79T682 5T516 -25Q421 -25 357 1T253 77T196 202T178 375V901Z"  />
<glyph unicode="v" horiz-adv-x="1036" d="M125 897Q114 926 95 936T47 946H31V1024H45Q83 1024 108 1020T152 1003T184 967T213 905L481 221Q488 202 494 183T506 148Q511 130 516 111H520Q525 130 531 148Q536 164 542 183T555 221L823 905Q838 943 851 966T883 1002T927 1019T991 1024H1006V946H989Q960 946 941 936T911 897L559 0H477L125 897Z"  />
<glyph unicode="w" horiz-adv-x="1706" d="M125 897Q114 926 95 936T47 946H20V1024H45Q83 1024 109 1020T154 1003T186 967T213 905L451 221Q457 202 463 183T474 148Q479 130 485 111H489Q494 130 500 148Q505 164 511 183T524 221L805 1020H901L1182 221Q1188 202 1194 183T1205 148Q1211 130 1217 111H1221Q1226 129 1231 147Q1236 163 1242 182T1255 221L1493 905Q1506 944 1519 967T1552 1003T1597 1020T1661 1024H1686V946H1659Q1630 946 1611 936T1581 897L1266 0H1174L889 795Q881 813 875 832T864 868Q859 886 854 905H850Q845 886 840 868Q835 852 829 833T815 795L532 0H440L125 897Z"  />
<glyph unicode="x" horiz-adv-x="946" d="M414 541L168 901Q148 929 122 937T66 946H37V1024H66Q108 1024 135 1020T184 1003T224 967T268 905L436 651Q442 641 448 631T460 612Q466 601 471 592H475Q480 601 486 612Q491 620 497 630T510 651L678 905Q703 944 722 967T762 1003T811 1020T881 1024H909V946H881Q850 946 824 938T778 903L532 541L901 0H795L512 424Q505 435 499 445T487 464Q481 474 475 483H471Q466 475 460 465Q455 457 449 446T434 424L152 0H45L414 541Z"  />
<glyph unicode="y" horiz-adv-x="1090" d="M74 -268Q74 -269 85 -281T117 -309T166 -336T227 -348Q264 -348 294 -333T349 -293T393 -234T428 -164L502 6L131 897Q119 926 101 936T53 946H37V1024H51Q90 1024 115 1020T158 1003T190 967T219 905L510 207Q518 188 524 172T535 141L545 111H549L559 141Q564 155 570 171T584 207L872 905Q887 943 901 966T933 1002T976 1019T1040 1024H1055V946H1038Q1009 946 991 936T961 897L487 -240Q470 -280 446 -314T389 -374T316 -415T227 -430Q176 -430 139 -415T75 -382Q45 -361 23 -334L74 -268Z"  />
<glyph unicode="z" horiz-adv-x="1010" d="M92 70L713 850Q727 867 741 884T767 915Q780 931 793 944V948Q782 947 766 946Q752 945 733 945T688 944H227Q206 944 194 933T182 899V811H98V905Q98 968 126 996T217 1024H909V954L287 174Q273 156 259 140T232 109Q218 93 205 80V76Q217 77 233 78Q247 79 266 79T311 80H823Q868 80 868 125V213H952V119Q952 56 925 28T834 0H92V70Z"  />
<glyph unicode="{" horiz-adv-x="645" d="M250 373Q250 414 243 446T223 503T195 546T163 577Q124 606 76 616V698Q124 708 163 738Q179 751 194 769T222 811T242 868T250 942V1108Q250 1195 266 1256T307 1360T364 1426T427 1463T485 1479T528 1483H547V1403H535Q517 1403 484 1396T419 1359T362 1271T338 1110V920Q338 845 313 795T257 715Q221 680 176 659V655Q221 637 257 603Q287 574 312 523T338 395V178Q338 76 362 18T418 -70T484 -107T535 -115H547V-195Q545 -196 542 -196Q539 -197 528 -197Q512 -197 485 -194T427 -177T365 -140T308 -73T266 31T250 180V373Z"  />
<glyph unicode="|" horiz-adv-x="559" d="M236 1608H324V-317H236V1608Z"  />
<glyph unicode="}" horiz-adv-x="645" d="M98 -115H111Q129 -115 161 -108T226 -71T283 17T307 178V395Q307 472 332 523T388 603Q423 637 469 655V659Q423 680 388 715Q357 745 332 795T307 920V1110Q307 1212 283 1270T227 1358T162 1395T111 1403H98V1483H117Q133 1483 160 1480T218 1463T280 1426T337 1360T379 1257T395 1108V942Q395 901 402 869T422 812T449 769T482 738Q520 708 569 698V616Q520 606 482 577Q465 565 450 547T422 504T403 447T395 373V180Q395 92 379 31T338 -73T281 -139T218 -177T160 -193T117 -197Q106 -197 103 -196Q100 -196 98 -195V-115Z"  />
<glyph unicode="~" horiz-adv-x="1229" d="M147 436Q147 516 165 572T215 663T290 715T383 731Q441 731 482 715T553 673T609 619T662 564T723 523T805 506Q856 506 886 530T933 588T953 659T958 723H1040Q1040 643 1022 587T973 496T898 444T805 428Q746 428 706 444T634 486T578 540T525 595T464 636T383 653Q332 653 302 629T255 571T234 500T229 436H147Z"  />
<glyph unicode="&#xA0;" horiz-adv-x="563" />
<glyph unicode="&#xA1;" horiz-adv-x="575" d="M227 1024H344V903H227V1024ZM244 666H332V-410H244V666Z"  />
<glyph unicode="&#xA2;" horiz-adv-x="1079" d="M520 145Q416 154 340 202T213 328T138 505T113 717Q113 829 138 929T213 1105T339 1230T520 1288V1516H608V1288Q672 1282 725 1259T823 1197T903 1109T967 997L883 965Q859 1018 829 1061T760 1136T674 1185T569 1202Q473 1202 404 1164T291 1060T226 906T205 717Q205 616 226 528T291 373T404 269T569 231Q627 231 674 248T759 297T828 372T883 469L967 436Q939 375 904 324T824 235T726 174T608 145V-82H520V145Z"  />
<glyph unicode="&#xA3;" horiz-adv-x="1188" d="M117 82H250V682H158V764H250V1096Q250 1172 280 1238T363 1353T491 1430T653 1458Q722 1458 777 1442T872 1406Q918 1383 954 1354L895 1286Q865 1310 827 1329Q795 1345 750 1358T651 1372Q574 1372 516 1349T418 1287T358 1196T338 1087V764H743V682H338V82H963Q984 82 996 93T1008 127V227H1094V119Q1094 56 1066 28T975 0H117V82Z"  />
<glyph unicode="&#xA4;" horiz-adv-x="506" d="M253 222Q310 222 341 262T372 365Q372 395 364 421T341 467T304 498T253 509Q224 509 202 498T165 468T141 422T133 365Q133 334 141 308T164 263T202 233T253 222ZM19 168L88 239Q50 294 50 365Q50 436 88 489L19 560L64 603L131 534Q155 552 185 563T253 574Q289 574 320 563T375 534L442 603L487 560L418 489Q455 435 455 365Q455 330 445 298T417 240L487 168L442 125L374 194Q325 157 253 157Q181 157 132 194L64 125L19 168Z"  />
<glyph unicode="&#xA5;" horiz-adv-x="1229" d="M240 537H571V623L512 721H229V803H461V807L158 1307Q141 1334 113 1343T53 1352H39V1434H49Q88 1434 116 1430T168 1413T212 1377T256 1315L524 868Q539 842 554 814T583 763Q598 736 612 709H616Q629 736 644 763Q657 786 672 814T705 868L973 1315Q996 1353 1016 1376T1060 1412T1112 1429T1180 1434H1190V1352H1174Q1143 1352 1115 1343T1069 1307L768 807V803H989V721H717L659 623V537H989V455H659V0H571V455H240V537Z"  />
<glyph unicode="&#xA7;" horiz-adv-x="770" d="M147 1098Q145 1110 144 1123T143 1149Q143 1215 167 1271T234 1369T337 1434T467 1458Q508 1458 542 1448T602 1424Q632 1409 657 1391L604 1325Q586 1338 564 1349Q545 1358 520 1366T465 1374Q417 1374 375 1358T301 1311T251 1239T233 1143Q233 1132 234 1122T238 1100L371 127H285L147 1098ZM176 6Q194 -8 216 -19Q235 -28 260 -35T315 -43Q363 -43 405 -27T478 20T527 92T545 188Q545 199 545 209T543 231L410 1204H496L633 233Q635 219 636 207T637 182Q637 115 613 59T545 -39T443 -104T313 -127Q272 -127 238 -117T177 -93Q147 -78 123 -59L176 6Z"  />
<glyph unicode="&#xA8;" horiz-adv-x="995" d="M629 1763H723V1614H629V1763ZM348 1763H442V1614H348V1763Z"  />
<glyph unicode="&#xA9;" horiz-adv-x="1634" d="M92 717Q92 872 148 1007T303 1242T532 1400T813 1458Q914 1458 1007 1432T1182 1358T1329 1243T1443 1093T1516 915T1542 717Q1542 613 1516 518T1443 340T1330 190T1182 75T1008 1T813 -25Q663 -25 532 32T303 190T149 425T92 717ZM184 717Q184 624 206 540T268 382T366 250T492 149T643 84T813 61Q948 61 1064 111T1266 250T1401 458T1450 717Q1450 855 1401 974T1267 1182T1065 1321T813 1372Q680 1372 565 1322T366 1183T233 975T184 717ZM397 715Q397 796 425 873T508 1011T646 1109T838 1147Q878 1147 913 1140T979 1119T1036 1090T1084 1057Q1134 1017 1171 967L1104 907Q1074 950 1034 983Q1000 1012 952 1035T840 1059Q752 1059 687 1030T577 952T511 843T489 717Q489 653 511 592T577 482T686 405T840 375Q904 375 953 398T1036 450Q1076 483 1104 526L1171 467Q1134 417 1084 377Q1063 360 1037 344T979 315T913 295T838 287Q728 287 646 323T508 420T425 557T397 715Z"  />
<glyph unicode="&#xAA;" horiz-adv-x="846" d="M360 782Q316 782 275 794T203 831T152 890T133 973Q133 1029 155 1068T212 1132T290 1171T378 1191T463 1199T532 1200H559Q558 1249 549 1283T519 1338T468 1368T393 1378Q382 1378 362 1377T321 1372T286 1358T270 1333V1278H190V1354Q190 1385 214 1404T272 1435T340 1450T395 1454Q470 1454 517 1435T592 1383T629 1305T639 1208V887Q639 870 653 870H717V795H639Q601 795 581 814T561 879V905H557Q540 870 513 843Q490 820 453 801T360 782ZM360 858Q408 858 445 880T508 940T546 1025T559 1124H532Q507 1124 474 1124T406 1119T337 1106T277 1081T234 1039T217 977Q217 955 226 934T253 896T298 869T360 858ZM127 614H729V539H127V614Z"  />
<glyph unicode="&#xAB;" horiz-adv-x="985" d="M733 999H842L506 578L842 158H733L397 578L733 999ZM70 578L406 999H514L178 578L514 158H406L70 578Z"  />
<glyph unicode="&#xAC;" horiz-adv-x="1229" d="M147 784H1081V336H995V702H147V784Z"  />
<glyph unicode="&#xAD;" horiz-adv-x="885" d="M160 621H725V539H160V621Z"  />
<glyph unicode="&#xAE;" horiz-adv-x="1634" d="M92 717Q92 872 148 1007T303 1242T532 1400T813 1458Q914 1458 1007 1432T1182 1358T1329 1243T1443 1093T1516 915T1542 717Q1542 613 1516 518T1443 340T1330 190T1182 75T1008 1T813 -25Q663 -25 532 32T303 190T149 425T92 717ZM184 717Q184 624 206 540T268 382T366 250T492 149T643 84T813 61Q948 61 1064 111T1266 250T1401 458T1450 717Q1450 855 1401 974T1267 1182T1065 1321T813 1372Q680 1372 565 1322T366 1183T233 975T184 717ZM575 1044H500V1126H848Q900 1126 943 1109T1018 1061T1067 987T1085 889Q1085 844 1073 807T1038 742T988 696T928 670V666Q934 662 940 657Q945 652 952 644T967 623L1071 412Q1080 392 1096 389T1130 385H1151V307H1108Q1085 307 1068 308T1038 316T1013 334T991 369L874 600Q857 632 842 640T799 649H666V307H575V1044ZM838 727Q909 727 951 770T993 889Q993 963 951 1003T838 1044H666V727H838Z"  />
<glyph unicode="&#xAF;" horiz-adv-x="940" d="M238 1692H727V1610H238V1692Z"  />
<glyph unicode="&#xB0;" horiz-adv-x="760" d="M379 920Q323 920 275 940T190 997T134 1081T113 1186Q113 1241 133 1290T190 1375T274 1433T379 1454Q434 1454 483 1433T568 1376T626 1290T647 1186Q647 1130 626 1082T569 997T483 941T379 920ZM379 1001Q417 1001 450 1015T507 1055T545 1113T559 1186Q559 1224 545 1258T507 1317T450 1357T379 1372Q340 1372 308 1358T252 1318T215 1258T201 1186Q201 1147 214 1114T251 1055T307 1016T379 1001Z"  />
<glyph unicode="&#xB1;" horiz-adv-x="1229" d="M86 621H571V1159H659V621H1143V539H659V0H571V539H86V621ZM1102 -231V-313H127V-231H1102Z"  />
<glyph unicode="&#xB2;" horiz-adv-x="811" d="M190 541Q144 541 124 561T104 627Q104 694 127 743T187 829T270 896T365 952Q405 975 443 999T512 1051T560 1115T578 1198Q578 1234 565 1265T528 1320T470 1356T391 1370Q359 1370 330 1363T280 1343T246 1313T233 1278V1223H154V1290Q154 1334 179 1364T241 1414T319 1441T391 1450Q459 1450 510 1430T594 1374T645 1294T662 1198Q662 1136 639 1090T580 1007T497 943T403 887Q362 862 323 837T252 782T203 716T184 633Q184 618 199 618H608Q621 618 621 633V707H700V627Q700 582 681 562T614 541H190Z"  />
<glyph unicode="&#xB3;" horiz-adv-x="811" d="M387 524Q323 524 270 544T179 590Q134 619 98 657L158 717Q186 685 222 660Q253 639 295 622T389 604Q428 604 464 618T529 659T575 722T592 805Q592 851 574 887T525 947T455 984T375 997H305L287 1051L504 1307Q512 1317 521 1325T538 1342Q547 1350 555 1358V1362Q543 1360 531 1359Q520 1357 506 1357T477 1356H248Q225 1356 225 1333V1272H145V1337Q145 1365 149 1383T165 1413T195 1429T242 1434H670V1378L406 1071Q445 1071 492 1056T580 1009T648 927T676 805Q676 746 653 695T591 605T499 546T387 524Z"  />
<glyph unicode="&#xB4;" horiz-adv-x="731" d="M365 1763H479L317 1536H227L365 1763Z"  />
<glyph unicode="&#xB5;" horiz-adv-x="1204" d="M45 1024H145Q208 1024 236 997T264 911V406Q264 339 271 277T304 166T380 88T516 59Q612 59 689 98T822 202T906 350T936 524V1024H1022V123Q1022 78 1067 78H1155V0H1055Q992 0 964 27T936 113V170Q936 187 936 203T938 230Q939 243 940 254H936Q901 176 843 114Q818 88 786 63T714 19T624 -13T516 -25Q440 -25 391 -9T311 27Q276 50 256 80H252Q255 50 258 22Q260 -2 262 -27T264 -68V-410H178V901Q178 946 133 946H45V1024Z"  />
<glyph unicode="&#xB6;" horiz-adv-x="1128" d="M584 494Q485 494 396 530T239 630T132 780T92 965Q92 1064 131 1149T238 1298T394 1398T582 1434H1012V1352H670V-102H584V494ZM797 1223H883V-102H797V1223Z"  />
<glyph unicode="&#xB7;" horiz-adv-x="395" d="M139 647H256V526H139V647Z"  />
<glyph unicode="&#xB8;" horiz-adv-x="840" d="M385 27V10L360 -123Q423 -132 462 -169T502 -262Q502 -304 487 -334T445 -382T385 -409T315 -418Q294 -418 278 -417T249 -414Q235 -412 225 -410V-332Q236 -335 249 -337Q274 -342 309 -342Q330 -342 350 -339T385 -327T410 -304T420 -266Q420 -231 388 -210T295 -188Q290 -188 286 -188T278 -189Q274 -190 270 -190L319 37L385 27Z"  />
<glyph unicode="&#xB9;" horiz-adv-x="811" d="M172 618H367V1247Q367 1264 367 1278T368 1301Q368 1312 369 1319H365Q360 1312 356 1305Q348 1292 336 1280L231 1178L176 1233L375 1434H449V618H641V541H172V618Z"  />
<glyph unicode="&#xBA;" horiz-adv-x="934" d="M467 784Q398 784 337 810T231 882T160 990T133 1124Q133 1194 159 1254T231 1360T337 1430T467 1456Q536 1456 597 1431T703 1360T774 1255T801 1124Q801 1052 775 990T703 882T597 810T467 784ZM467 860Q520 860 566 880T646 935T701 1019T721 1124Q721 1179 701 1226T647 1307T566 1361T467 1380Q414 1380 368 1361T288 1308T233 1226T213 1124Q213 1067 233 1019T287 936T368 880T467 860ZM170 614H772V539H170V614Z"  />
<glyph unicode="&#xBB;" horiz-adv-x="985" d="M807 578L471 999H580L915 578L580 158H471L807 578ZM479 578L143 999H252L588 578L252 158H143L479 578Z"  />
<glyph unicode="&#xBC;" horiz-adv-x="1774" d="M1149 1434H1243L618 0H522L1149 1434ZM162 618H356V1247Q356 1264 356 1278T357 1301Q357 1312 358 1319H354Q350 1312 346 1305Q338 1292 326 1280L221 1178L166 1233L365 1434H438V618H631V541H162V618ZM979 305L1434 893H1505V326H1645V248H1505V0H1425V248H979V305ZM1090 324Q1099 324 1107 325Q1114 325 1121 325T1135 326H1425V670Q1425 686 1425 701T1426 728Q1426 742 1427 754H1423Q1418 746 1413 737Q1408 729 1403 720T1389 700L1120 356Q1115 351 1110 346T1100 336L1090 326V324Z"  />
<glyph unicode="&#xBD;" horiz-adv-x="1774" d="M1128 1434H1223L598 0H502L1128 1434ZM162 618H356V1247Q356 1264 356 1278T357 1301Q357 1312 358 1319H354Q350 1312 346 1305Q338 1292 326 1280L221 1178L166 1233L365 1434H438V618H631V541H162V618ZM1020 86Q1020 153 1043 202T1102 288T1185 355T1280 412Q1321 435 1359 458T1427 510T1475 574T1493 657Q1493 693 1480 724T1443 779T1385 816T1307 829Q1275 829 1246 822T1196 802T1162 772T1149 737V682H1069V750Q1069 793 1094 823T1157 873T1235 900T1307 909Q1375 909 1426 889T1510 834T1560 753T1577 657Q1577 595 1555 549T1495 467T1412 402T1319 346Q1277 322 1238 297T1168 242T1119 176T1100 92Q1100 78 1114 78H1524Q1536 78 1536 92V166H1616V86Q1616 41 1596 21T1530 0H1106Q1059 0 1040 20T1020 86Z"  />
<glyph unicode="&#xBE;" horiz-adv-x="1774" d="M1149 1434H1243L618 0H522L1149 1434ZM420 524Q356 524 303 544T212 590Q167 619 131 657L190 717Q219 685 255 660Q286 639 328 622T422 604Q460 604 496 618T561 659T607 722T625 805Q625 851 607 887T558 947T488 984T408 997H338L319 1051L537 1307Q545 1317 554 1325T571 1342Q580 1350 588 1358V1362Q576 1360 564 1359Q553 1357 539 1357T510 1356H281Q258 1356 258 1333V1272H178V1337Q178 1365 182 1383T198 1413T228 1429T274 1434H702V1378L438 1071Q477 1071 524 1056T613 1009T681 927T709 805Q709 746 686 695T624 605T532 546T420 524ZM979 305L1434 893H1505V326H1645V248H1505V0H1425V248H979V305ZM1090 324Q1099 324 1107 325Q1114 325 1121 325T1135 326H1425V670Q1425 686 1425 701T1426 728Q1426 742 1427 754H1423Q1418 746 1413 737Q1408 729 1403 720T1389 700L1120 356Q1115 351 1110 346T1100 336L1090 326V324Z"  />
<glyph unicode="&#xBF;" horiz-adv-x="842" d="M418 1024H535V903H418V1024ZM61 -78Q61 7 88 68T157 178T246 268T336 355T404 453T432 580V666H520V580Q520 496 493 434T425 322T337 229T249 141T181 43T154 -80Q154 -135 175 -183T236 -267T331 -323T453 -344Q509 -344 556 -331T639 -301Q679 -283 713 -258L760 -328Q723 -357 676 -379Q636 -399 580 -414T455 -430Q366 -430 294 -404T170 -330T90 -218T61 -78Z"  />
<glyph unicode="&#xC0;" horiz-adv-x="1329" d="M27 82H49Q78 82 97 90T127 127L616 1434H713L1202 127Q1213 98 1232 90T1280 82H1303V0H1278Q1240 0 1214 4T1170 21T1138 57T1110 119L969 496H360L219 119Q205 81 192 58T160 22T116 5T51 0H27V82ZM940 578L721 1159Q712 1182 703 1212T685 1268Q675 1299 666 1331H662Q654 1299 644 1268Q636 1242 626 1212T608 1159L391 578H940ZM459 1763H574L711 1536H621L459 1763Z"  />
<glyph unicode="&#xC1;" horiz-adv-x="1329" d="M27 82H49Q78 82 97 90T127 127L616 1434H713L1202 127Q1213 98 1232 90T1280 82H1303V0H1278Q1240 0 1214 4T1170 21T1138 57T1110 119L969 496H360L219 119Q205 81 192 58T160 22T116 5T51 0H27V82ZM940 578L721 1159Q712 1182 703 1212T685 1268Q675 1299 666 1331H662Q654 1299 644 1268Q636 1242 626 1212T608 1159L391 578H940ZM758 1763H872L710 1536H620L758 1763Z"  />
<glyph unicode="&#xC2;" horiz-adv-x="1329" d="M27 82H49Q78 82 97 90T127 127L616 1434H713L1202 127Q1213 98 1232 90T1280 82H1303V0H1278Q1240 0 1214 4T1170 21T1138 57T1110 119L969 496H360L219 119Q205 81 192 58T160 22T116 5T51 0H27V82ZM940 578L721 1159Q712 1182 703 1212T685 1268Q675 1299 666 1331H662Q654 1299 644 1268Q636 1242 626 1212T608 1159L391 578H940ZM613 1763H719L883 1536H783L668 1700H664L549 1536H449L613 1763Z"  />
<glyph unicode="&#xC3;" horiz-adv-x="1329" d="M27 82H49Q78 82 97 90T127 127L616 1434H713L1202 127Q1213 98 1232 90T1280 82H1303V0H1278Q1240 0 1214 4T1170 21T1138 57T1110 119L969 496H360L219 119Q205 81 192 58T160 22T116 5T51 0H27V82ZM940 578L721 1159Q712 1182 703 1212T685 1268Q675 1299 666 1331H662Q654 1299 644 1268Q636 1242 626 1212T608 1159L391 578H940ZM364 1542Q364 1763 534 1763Q585 1763 618 1740T678 1688T730 1636T792 1612Q819 1612 835 1628T860 1667T871 1714T874 1757H956Q956 1648 914 1592T786 1536Q752 1536 726 1547T680 1575T642 1612T607 1648T571 1676T528 1688Q501 1688 485 1672T460 1633T449 1585T446 1542H364Z"  />
<glyph unicode="&#xC4;" horiz-adv-x="1329" d="M27 82H49Q78 82 97 90T127 127L616 1434H713L1202 127Q1213 98 1232 90T1280 82H1303V0H1278Q1240 0 1214 4T1170 21T1138 57T1110 119L969 496H360L219 119Q205 81 192 58T160 22T116 5T51 0H27V82ZM940 578L721 1159Q712 1182 703 1212T685 1268Q675 1299 666 1331H662Q654 1299 644 1268Q636 1242 626 1212T608 1159L391 578H940ZM760 1763H854V1614H760V1763ZM479 1763H573V1614H479V1763Z"  />
<glyph unicode="&#xC5;" horiz-adv-x="1329" d="M27 82H49Q78 82 97 90T127 127L616 1434H713L1202 127Q1213 98 1232 90T1280 82H1303V0H1278Q1240 0 1214 4T1170 21T1138 57T1110 119L969 496H360L219 119Q205 81 192 58T160 22T116 5T51 0H27V82ZM940 578L721 1159Q712 1182 703 1212T685 1268Q675 1299 666 1331H662Q654 1299 644 1268Q636 1242 626 1212T608 1159L391 578H940ZM666 1516Q637 1516 612 1526T569 1555T540 1599T529 1653Q529 1682 539 1707T568 1750T612 1779T666 1790Q695 1790 720 1780T763 1751T792 1707T803 1653Q803 1624 793 1599T764 1556T720 1527T666 1516ZM666 1587Q695 1587 713 1605T731 1653Q731 1684 713 1702T666 1720Q637 1720 619 1702T600 1653Q600 1624 618 1606T666 1587Z"  />
<glyph unicode="&#xC6;" horiz-adv-x="1624" d="M27 82H39Q68 82 87 90T117 127L606 1434H1391Q1454 1434 1481 1406T1509 1315V1206H1423V1307Q1423 1352 1378 1352H834V764H1384V682H834V127Q834 96 849 89T895 82H1440Q1461 82 1473 93T1485 127V227H1571V119Q1571 56 1543 28T1452 0H889Q850 0 823 4T779 21T753 57T745 119V682H420L209 119Q195 81 182 58T150 22T105 5T41 0H27V82ZM745 764V1352H670L451 764H745Z"  />
<glyph unicode="&#xC7;" horiz-adv-x="1409" d="M84 727Q84 883 137 1016T285 1248T507 1402T784 1458Q837 1458 897 1450T1016 1427T1129 1387T1225 1330T1292 1256T1317 1163V1061H1229V1143Q1229 1180 1209 1211T1155 1267T1077 1312T983 1345T883 1365T786 1372Q656 1372 545 1323T351 1188T223 984T176 727Q176 634 196 549T255 389T348 255T470 151T618 85T786 61Q844 61 895 70T992 93T1076 125T1147 163Q1221 208 1278 266L1333 203Q1274 140 1194 91Q1160 70 1118 50T1026 13T918 -14T795 -25L776 -123Q839 -132 878 -169T918 -262Q918 -304 903 -334T861 -382T801 -409T731 -418Q710 -418 694 -417T665 -414Q651 -412 641 -410V-332Q652 -335 665 -337Q690 -342 725 -342Q746 -342 765 -339T801 -327T826 -304T836 -266Q836 -231 804 -210T711 -188Q706 -188 702 -188T694 -189Q690 -190 686 -190L723 -23Q581 -11 464 52T262 216T131 448T84 727Z"  />
<glyph unicode="&#xC8;" horiz-adv-x="1124" d="M225 1352H92V1434H891Q954 1434 982 1406T1010 1315V1206H924V1307Q924 1330 912 1341T879 1352H313V764H885V682H313V127Q313 104 325 93T358 82H940Q985 82 985 127V227H1071V119Q1071 56 1043 28T952 0H344Q281 0 253 28T225 119V1352ZM393 1763H508L645 1536H555L393 1763Z"  />
<glyph unicode="&#xC9;" horiz-adv-x="1124" d="M225 1352H92V1434H891Q954 1434 982 1406T1010 1315V1206H924V1307Q924 1330 912 1341T879 1352H313V764H885V682H313V127Q313 104 325 93T358 82H940Q985 82 985 127V227H1071V119Q1071 56 1043 28T952 0H344Q281 0 253 28T225 119V1352ZM693 1763H807L645 1536H555L693 1763Z"  />
<glyph unicode="&#xCA;" horiz-adv-x="1124" d="M225 1352H92V1434H891Q954 1434 982 1406T1010 1315V1206H924V1307Q924 1330 912 1341T879 1352H313V764H885V682H313V127Q313 104 325 93T358 82H940Q985 82 985 127V227H1071V119Q1071 56 1043 28T952 0H344Q281 0 253 28T225 119V1352ZM547 1763H653L817 1536H717L602 1700H598L483 1536H383L547 1763Z"  />
<glyph unicode="&#xCB;" horiz-adv-x="1124" d="M225 1352H92V1434H891Q954 1434 982 1406T1010 1315V1206H924V1307Q924 1330 912 1341T879 1352H313V764H885V682H313V127Q313 104 325 93T358 82H940Q985 82 985 127V227H1071V119Q1071 56 1043 28T952 0H344Q281 0 253 28T225 119V1352ZM695 1763H789V1614H695V1763ZM414 1763H508V1614H414V1763Z"  />
<glyph unicode="&#xCC;" horiz-adv-x="555" d="M102 82H233V1352H102V1434H453V1352H322V82H453V0H102V82ZM72 1763H187L324 1536H234L72 1763Z"  />
<glyph unicode="&#xCD;" horiz-adv-x="555" d="M102 82H233V1352H102V1434H453V1352H322V82H453V0H102V82ZM369 1763H483L321 1536H231L369 1763Z"  />
<glyph unicode="&#xCE;" horiz-adv-x="555" d="M102 82H233V1352H102V1434H453V1352H322V82H453V0H102V82ZM226 1763H332L496 1536H396L281 1700H277L162 1536H62L226 1763Z"  />
<glyph unicode="&#xCF;" horiz-adv-x="555" d="M102 82H233V1352H102V1434H453V1352H322V82H453V0H102V82ZM373 1763H467V1614H373V1763ZM92 1763H186V1614H92V1763Z"  />
<glyph unicode="&#xD0;" horiz-adv-x="1464" d="M225 682H123V764H225V1352H92V1434H666Q826 1434 957 1386T1183 1246T1328 1021T1380 717Q1380 546 1329 413T1183 188T958 48T666 0H344Q281 0 253 28T225 119V682ZM313 127Q313 104 325 93T358 82H651Q794 82 911 123T1112 245T1242 443T1288 717Q1288 870 1242 988T1113 1188T912 1310T651 1352H313V764H688V682H313V127Z"  />
<glyph unicode="&#xD1;" horiz-adv-x="1548" d="M92 82H180Q225 82 225 127V1434H307L1124 309Q1141 284 1162 254T1200 195Q1220 162 1241 129H1245Q1242 160 1240 192Q1238 219 1237 250T1235 309V1315Q1235 1378 1263 1406T1354 1434H1456V1352H1368Q1323 1352 1323 1307V0H1241L424 1124Q406 1149 386 1180T348 1239Q328 1272 307 1305H303Q305 1273 308 1241Q310 1214 311 1183T313 1124V119Q313 56 286 28T195 0H92V82ZM498 1542Q498 1763 668 1763Q719 1763 752 1740T812 1688T864 1636T926 1612Q953 1612 969 1628T994 1667T1005 1714T1008 1757H1090Q1090 1648 1048 1592T920 1536Q886 1536 860 1547T814 1575T776 1612T741 1648T705 1676T662 1688Q635 1688 619 1672T594 1633T583 1585T580 1542H498Z"  />
<glyph unicode="&#xD2;" horiz-adv-x="1618" d="M84 727Q84 830 110 924T183 1099T297 1247T443 1360T616 1432T809 1458Q909 1458 1001 1433T1174 1360T1321 1247T1434 1100T1508 924T1534 727Q1534 621 1508 525T1435 345T1321 193T1175 77T1002 2T809 -25Q709 -25 617 1T444 76T297 193T184 344T110 525T84 727ZM176 727Q176 586 225 465T361 254T562 113T809 61Q940 61 1055 112T1257 253T1392 464T1442 727Q1442 864 1393 982T1257 1186T1056 1322T809 1372Q678 1372 563 1323T361 1187T226 982T176 727ZM596 1763H711L848 1536H758L596 1763Z"  />
<glyph unicode="&#xD3;" horiz-adv-x="1618" d="M84 727Q84 830 110 924T183 1099T297 1247T443 1360T616 1432T809 1458Q909 1458 1001 1433T1174 1360T1321 1247T1434 1100T1508 924T1534 727Q1534 621 1508 525T1435 345T1321 193T1175 77T1002 2T809 -25Q709 -25 617 1T444 76T297 193T184 344T110 525T84 727ZM176 727Q176 586 225 465T361 254T562 113T809 61Q940 61 1055 112T1257 253T1392 464T1442 727Q1442 864 1393 982T1257 1186T1056 1322T809 1372Q678 1372 563 1323T361 1187T226 982T176 727ZM895 1763H1009L847 1536H757L895 1763Z"  />
<glyph unicode="&#xD4;" horiz-adv-x="1618" d="M84 727Q84 830 110 924T183 1099T297 1247T443 1360T616 1432T809 1458Q909 1458 1001 1433T1174 1360T1321 1247T1434 1100T1508 924T1534 727Q1534 621 1508 525T1435 345T1321 193T1175 77T1002 2T809 -25Q709 -25 617 1T444 76T297 193T184 344T110 525T84 727ZM176 727Q176 586 225 465T361 254T562 113T809 61Q940 61 1055 112T1257 253T1392 464T1442 727Q1442 864 1393 982T1257 1186T1056 1322T809 1372Q678 1372 563 1323T361 1187T226 982T176 727ZM750 1763H856L1020 1536H920L805 1700H801L686 1536H586L750 1763Z"  />
<glyph unicode="&#xD5;" horiz-adv-x="1618" d="M84 727Q84 830 110 924T183 1099T297 1247T443 1360T616 1432T809 1458Q909 1458 1001 1433T1174 1360T1321 1247T1434 1100T1508 924T1534 727Q1534 621 1508 525T1435 345T1321 193T1175 77T1002 2T809 -25Q709 -25 617 1T444 76T297 193T184 344T110 525T84 727ZM176 727Q176 586 225 465T361 254T562 113T809 61Q940 61 1055 112T1257 253T1392 464T1442 727Q1442 864 1393 982T1257 1186T1056 1322T809 1372Q678 1372 563 1323T361 1187T226 982T176 727ZM502 1542Q502 1763 672 1763Q723 1763 756 1740T816 1688T868 1636T930 1612Q957 1612 973 1628T998 1667T1009 1714T1012 1757H1094Q1094 1648 1052 1592T924 1536Q890 1536 864 1547T818 1575T780 1612T745 1648T709 1676T666 1688Q639 1688 623 1672T598 1633T587 1585T584 1542H502Z"  />
<glyph unicode="&#xD6;" horiz-adv-x="1618" d="M84 727Q84 830 110 924T183 1099T297 1247T443 1360T616 1432T809 1458Q909 1458 1001 1433T1174 1360T1321 1247T1434 1100T1508 924T1534 727Q1534 621 1508 525T1435 345T1321 193T1175 77T1002 2T809 -25Q709 -25 617 1T444 76T297 193T184 344T110 525T84 727ZM176 727Q176 586 225 465T361 254T562 113T809 61Q940 61 1055 112T1257 253T1392 464T1442 727Q1442 864 1393 982T1257 1186T1056 1322T809 1372Q678 1372 563 1323T361 1187T226 982T176 727ZM897 1763H991V1614H897V1763ZM616 1763H710V1614H616V1763Z"  />
<glyph unicode="&#xD7;" horiz-adv-x="1229" d="M559 580L100 1102L158 1159L614 641L1071 1159L1128 1102L668 580L1128 57L1071 0L614 518L158 0L100 57L559 580Z"  />
<glyph unicode="&#xD8;" horiz-adv-x="1626" d="M348 147Q288 199 240 263T158 400T106 556T88 727Q88 830 114 924T187 1099T301 1247T447 1360T620 1432T813 1458Q921 1458 1019 1428T1202 1343L1303 1483L1372 1432L1274 1292Q1334 1242 1382 1180T1465 1046T1519 894T1538 727Q1538 621 1512 525T1439 345T1325 193T1179 77T1006 2T813 -25Q704 -25 604 6T418 96L315 -47L244 2L348 147ZM1153 1274Q1079 1320 993 1346T813 1372Q682 1372 567 1323T365 1187T230 982T180 727Q180 571 238 441T399 219L1153 1274ZM467 166Q542 116 629 89T813 61Q944 61 1059 112T1261 253T1396 464T1446 727Q1446 802 1430 872T1385 1005T1314 1122T1221 1221L467 166Z"  />
<glyph unicode="&#xD9;" horiz-adv-x="1448" d="M209 1307Q209 1352 164 1352H76V1434H178Q241 1434 269 1406T297 1315V487Q297 389 327 311T412 177T546 91T723 61Q820 61 899 91T1034 177T1120 313T1151 492V1315Q1151 1378 1179 1406T1270 1434H1372V1352H1284Q1239 1352 1239 1307V481Q1239 367 1202 274T1097 114T934 11T725 -25Q611 -25 516 11T353 113T247 273T209 481V1307ZM520 1763H635L772 1536H682L520 1763Z"  />
<glyph unicode="&#xDA;" horiz-adv-x="1448" d="M209 1307Q209 1352 164 1352H76V1434H178Q241 1434 269 1406T297 1315V487Q297 389 327 311T412 177T546 91T723 61Q820 61 899 91T1034 177T1120 313T1151 492V1315Q1151 1378 1179 1406T1270 1434H1372V1352H1284Q1239 1352 1239 1307V481Q1239 367 1202 274T1097 114T934 11T725 -25Q611 -25 516 11T353 113T247 273T209 481V1307ZM820 1763H934L772 1536H682L820 1763Z"  />
<glyph unicode="&#xDB;" horiz-adv-x="1448" d="M209 1307Q209 1352 164 1352H76V1434H178Q241 1434 269 1406T297 1315V487Q297 389 327 311T412 177T546 91T723 61Q820 61 899 91T1034 177T1120 313T1151 492V1315Q1151 1378 1179 1406T1270 1434H1372V1352H1284Q1239 1352 1239 1307V481Q1239 367 1202 274T1097 114T934 11T725 -25Q611 -25 516 11T353 113T247 273T209 481V1307ZM674 1763H780L944 1536H844L729 1700H725L610 1536H510L674 1763Z"  />
<glyph unicode="&#xDC;" horiz-adv-x="1448" d="M209 1307Q209 1352 164 1352H76V1434H178Q241 1434 269 1406T297 1315V487Q297 389 327 311T412 177T546 91T723 61Q820 61 899 91T1034 177T1120 313T1151 492V1315Q1151 1378 1179 1406T1270 1434H1372V1352H1284Q1239 1352 1239 1307V481Q1239 367 1202 274T1097 114T934 11T725 -25Q611 -25 516 11T353 113T247 273T209 481V1307ZM822 1763H916V1614H822V1763ZM541 1763H635V1614H541V1763Z"  />
<glyph unicode="&#xDD;" horiz-adv-x="1192" d="M553 623L147 1296Q129 1328 104 1340T47 1352H20V1434H39Q77 1434 104 1430T152 1414T194 1378T238 1315L506 868Q521 842 536 814T565 762Q580 734 594 707H598Q611 734 626 762Q639 786 654 814T686 868L954 1315Q978 1354 997 1377T1039 1413T1088 1430T1153 1434H1171V1352H1145Q1114 1352 1089 1340T1044 1296L641 623V0H553V623ZM691 1763H805L643 1536H553L691 1763Z"  />
<glyph unicode="&#xDE;" horiz-adv-x="1171" d="M225 1307Q225 1352 180 1352H92V1434H195Q258 1434 285 1406T313 1315V1167H676Q770 1167 849 1139T987 1056T1079 925T1112 750Q1112 652 1079 574T988 441T848 357T672 328H313V0H225V1307ZM672 410Q750 410 814 433T924 499T995 606T1020 750Q1020 831 995 893T925 998T815 1063T672 1085H313V410H672Z"  />
<glyph unicode="&#xDF;" horiz-adv-x="1106" d="M43 78H131Q176 78 176 123V1090Q176 1180 209 1248T297 1363T421 1434T561 1458Q641 1458 702 1434T806 1370T869 1280T891 1176Q891 1123 873 1082T827 1006T767 943T708 887T662 833T643 774Q643 733 675 698T755 629T859 557T963 475T1043 376T1075 252Q1075 182 1049 130T978 44T878 -8T760 -25Q685 -25 625 -5T522 42Q472 71 434 109L483 176Q519 143 563 117Q601 95 651 77T762 59Q806 59 846 70T917 104T966 164T985 252Q985 309 953 354T873 438T769 512T665 586T585 669T553 770Q553 814 571 849T617 915T677 974T736 1033T782 1098T801 1176Q801 1210 786 1245T741 1309T664 1356T557 1374Q503 1374 450 1355T355 1299T288 1208T262 1083V119Q262 56 234 28T143 0H43V78Z"  />
<glyph unicode="&#xE0;" horiz-adv-x="1055" d="M88 272Q88 359 122 419T212 518T337 579T477 611T612 623T723 625H791V639Q791 730 775 793T723 895T631 951T494 969Q480 969 458 968T411 962T360 951T313 933T279 905T266 868V799H180V893Q180 923 197 946T243 987T306 1016T377 1035T443 1046T496 1049Q613 1049 687 1019T804 937T861 814T877 662V123Q877 78 922 78H1010V0H909Q846 0 819 28T791 125Q791 145 791 162T793 192Q794 206 795 217H791Q791 217 784 199T759 154T714 96T647 38T555 -7T436 -25Q374 -25 312 -8T200 47T119 139T88 272ZM178 279Q178 238 194 198T244 126T326 75T440 55Q524 55 589 94T699 196T767 336T791 489V545H725Q681 545 624 544T506 536T386 512T281 467T207 391T178 279ZM315 1435H430L567 1208H477L315 1435Z"  />
<glyph unicode="&#xE1;" horiz-adv-x="1055" d="M88 272Q88 359 122 419T212 518T337 579T477 611T612 623T723 625H791V639Q791 730 775 793T723 895T631 951T494 969Q480 969 458 968T411 962T360 951T313 933T279 905T266 868V799H180V893Q180 923 197 946T243 987T306 1016T377 1035T443 1046T496 1049Q613 1049 687 1019T804 937T861 814T877 662V123Q877 78 922 78H1010V0H909Q846 0 819 28T791 125Q791 145 791 162T793 192Q794 206 795 217H791Q791 217 784 199T759 154T714 96T647 38T555 -7T436 -25Q374 -25 312 -8T200 47T119 139T88 272ZM178 279Q178 238 194 198T244 126T326 75T440 55Q524 55 589 94T699 196T767 336T791 489V545H725Q681 545 624 544T506 536T386 512T281 467T207 391T178 279ZM615 1435H729L567 1208H477L615 1435Z"  />
<glyph unicode="&#xE2;" horiz-adv-x="1055" d="M88 272Q88 359 122 419T212 518T337 579T477 611T612 623T723 625H791V639Q791 730 775 793T723 895T631 951T494 969Q480 969 458 968T411 962T360 951T313 933T279 905T266 868V799H180V893Q180 923 197 946T243 987T306 1016T377 1035T443 1046T496 1049Q613 1049 687 1019T804 937T861 814T877 662V123Q877 78 922 78H1010V0H909Q846 0 819 28T791 125Q791 145 791 162T793 192Q794 206 795 217H791Q791 217 784 199T759 154T714 96T647 38T555 -7T436 -25Q374 -25 312 -8T200 47T119 139T88 272ZM178 279Q178 238 194 198T244 126T326 75T440 55Q524 55 589 94T699 196T767 336T791 489V545H725Q681 545 624 544T506 536T386 512T281 467T207 391T178 279ZM469 1435H575L739 1208H639L524 1372H520L405 1208H305L469 1435Z"  />
<glyph unicode="&#xE3;" horiz-adv-x="1055" d="M88 272Q88 359 122 419T212 518T337 579T477 611T612 623T723 625H791V639Q791 730 775 793T723 895T631 951T494 969Q480 969 458 968T411 962T360 951T313 933T279 905T266 868V799H180V893Q180 923 197 946T243 987T306 1016T377 1035T443 1046T496 1049Q613 1049 687 1019T804 937T861 814T877 662V123Q877 78 922 78H1010V0H909Q846 0 819 28T791 125Q791 145 791 162T793 192Q794 206 795 217H791Q791 217 784 199T759 154T714 96T647 38T555 -7T436 -25Q374 -25 312 -8T200 47T119 139T88 272ZM178 279Q178 238 194 198T244 126T326 75T440 55Q524 55 589 94T699 196T767 336T791 489V545H725Q681 545 624 544T506 536T386 512T281 467T207 391T178 279ZM221 1214Q221 1435 391 1435Q442 1435 475 1412T535 1360T587 1308T649 1284Q676 1284 692 1300T717 1339T728 1386T731 1429H813Q813 1320 771 1264T643 1208Q609 1208 583 1219T537 1247T499 1284T464 1320T428 1348T385 1360Q358 1360 342 1344T317 1305T306 1257T303 1214H221Z"  />
<glyph unicode="&#xE4;" horiz-adv-x="1055" d="M88 272Q88 359 122 419T212 518T337 579T477 611T612 623T723 625H791V639Q791 730 775 793T723 895T631 951T494 969Q480 969 458 968T411 962T360 951T313 933T279 905T266 868V799H180V893Q180 923 197 946T243 987T306 1016T377 1035T443 1046T496 1049Q613 1049 687 1019T804 937T861 814T877 662V123Q877 78 922 78H1010V0H909Q846 0 819 28T791 125Q791 145 791 162T793 192Q794 206 795 217H791Q791 217 784 199T759 154T714 96T647 38T555 -7T436 -25Q374 -25 312 -8T200 47T119 139T88 272ZM178 279Q178 238 194 198T244 126T326 75T440 55Q524 55 589 94T699 196T767 336T791 489V545H725Q681 545 624 544T506 536T386 512T281 467T207 391T178 279ZM619 1435H713V1286H619V1435ZM338 1435H432V1286H338V1435Z"  />
<glyph unicode="&#xE5;" horiz-adv-x="1055" d="M88 272Q88 359 122 419T212 518T337 579T477 611T612 623T723 625H791V639Q791 730 775 793T723 895T631 951T494 969Q480 969 458 968T411 962T360 951T313 933T279 905T266 868V799H180V893Q180 923 197 946T243 987T306 1016T377 1035T443 1046T496 1049Q613 1049 687 1019T804 937T861 814T877 662V123Q877 78 922 78H1010V0H909Q846 0 819 28T791 125Q791 145 791 162T793 192Q794 206 795 217H791Q791 217 784 199T759 154T714 96T647 38T555 -7T436 -25Q374 -25 312 -8T200 47T119 139T88 272ZM178 279Q178 238 194 198T244 126T326 75T440 55Q524 55 589 94T699 196T767 336T791 489V545H725Q681 545 624 544T506 536T386 512T281 467T207 391T178 279ZM522 1188Q493 1188 468 1198T425 1227T396 1271T385 1325Q385 1354 395 1379T424 1422T468 1451T522 1462Q551 1462 576 1452T619 1423T648 1379T659 1325Q659 1296 649 1271T620 1228T576 1199T522 1188ZM522 1259Q551 1259 569 1277T587 1325Q587 1356 569 1374T522 1392Q493 1392 475 1374T456 1325Q456 1296 474 1278T522 1259Z"  />
<glyph unicode="&#xE6;" horiz-adv-x="1788" d="M88 272Q88 356 117 414T194 510T306 569T438 600T576 612T707 614H788V639Q788 730 772 793T720 895T629 951T494 969Q472 969 434 966T359 951T294 920T266 868V799H180V893Q180 931 210 960T286 1009T389 1039T496 1049Q584 1049 646 1032T751 984T819 908T856 809H860Q923 929 1029 989T1266 1049Q1368 1049 1445 1012T1574 913T1652 767T1679 592Q1679 583 1679 573T1677 555Q1676 545 1675 535H874Q874 419 905 331T993 182T1125 90T1292 59Q1366 59 1424 79T1525 123Q1573 151 1610 188L1657 117Q1613 77 1557 46Q1509 19 1442 -3T1292 -25Q1212 -25 1141 -4T1010 58T905 157T831 289H827Q824 275 814 247T784 183T735 111T663 44T566 -5T440 -25Q370 -25 307 -6T195 50T117 142T88 272ZM1589 614Q1585 708 1556 774T1481 884T1378 947T1260 967Q1189 967 1126 945T1014 879T930 769T883 614H1589ZM178 279Q178 236 194 196T244 124T326 74T440 55Q524 55 589 94T698 196T765 336T788 489V535H647Q600 535 547 533T442 523T342 498T258 453T200 382T178 279Z"  />
<glyph unicode="&#xE7;" horiz-adv-x="1073" d="M90 510Q90 632 132 731T247 901T415 1010T618 1049Q646 1049 683 1045T761 1031T840 1005T910 965T960 909T979 836V758H893V817Q893 855 864 883T793 929T703 956T618 965Q528 965 449 933T310 841T215 698T180 510Q180 408 215 325T309 183T448 91T618 59Q703 59 766 82T874 133Q924 166 961 207L1006 135Q964 90 906 55Q856 25 783 0T610 -25L592 -123Q655 -132 694 -169T733 -262Q733 -304 718 -334T676 -382T617 -409T547 -418Q526 -418 510 -417T481 -414Q467 -412 457 -410V-332Q468 -335 481 -337Q506 -342 541 -342Q562 -342 581 -339T616 -327T641 -304T651 -266Q651 -231 619 -210T526 -188Q521 -188 517 -188T509 -189Q505 -190 502 -190L539 -18Q444 -6 363 36T220 147T125 307T90 510Z"  />
<glyph unicode="&#xE8;" horiz-adv-x="1114" d="M90 510Q90 640 131 740T241 909T400 1013T588 1049Q692 1049 770 1011T901 909T980 760T1006 582Q1006 573 1005 563T1003 545Q1002 535 1001 526H180Q180 415 215 328T310 181T449 90T618 59Q692 59 750 79T851 123Q899 151 936 188L983 117Q939 77 884 46Q836 19 769 -3T618 -25Q510 -25 414 12T246 120T132 289T90 510ZM915 606Q911 700 883 768T811 881T708 947T586 969Q515 969 449 946T329 878T238 764T186 606H915ZM377 1435H492L629 1208H539L377 1435Z"  />
<glyph unicode="&#xE9;" horiz-adv-x="1114" d="M90 510Q90 640 131 740T241 909T400 1013T588 1049Q692 1049 770 1011T901 909T980 760T1006 582Q1006 573 1005 563T1003 545Q1002 535 1001 526H180Q180 415 215 328T310 181T449 90T618 59Q692 59 750 79T851 123Q899 151 936 188L983 117Q939 77 884 46Q836 19 769 -3T618 -25Q510 -25 414 12T246 120T132 289T90 510ZM915 606Q911 700 883 768T811 881T708 947T586 969Q515 969 449 946T329 878T238 764T186 606H915ZM676 1435H790L628 1208H538L676 1435Z"  />
<glyph unicode="&#xEA;" horiz-adv-x="1114" d="M90 510Q90 640 131 740T241 909T400 1013T588 1049Q692 1049 770 1011T901 909T980 760T1006 582Q1006 573 1005 563T1003 545Q1002 535 1001 526H180Q180 415 215 328T310 181T449 90T618 59Q692 59 750 79T851 123Q899 151 936 188L983 117Q939 77 884 46Q836 19 769 -3T618 -25Q510 -25 414 12T246 120T132 289T90 510ZM915 606Q911 700 883 768T811 881T708 947T586 969Q515 969 449 946T329 878T238 764T186 606H915ZM531 1435H637L801 1208H701L586 1372H582L467 1208H367L531 1435Z"  />
<glyph unicode="&#xEB;" horiz-adv-x="1114" d="M90 510Q90 640 131 740T241 909T400 1013T588 1049Q692 1049 770 1011T901 909T980 760T1006 582Q1006 573 1005 563T1003 545Q1002 535 1001 526H180Q180 415 215 328T310 181T449 90T618 59Q692 59 750 79T851 123Q899 151 936 188L983 117Q939 77 884 46Q836 19 769 -3T618 -25Q510 -25 414 12T246 120T132 289T90 510ZM915 606Q911 700 883 768T811 881T708 947T586 969Q515 969 449 946T329 878T238 764T186 606H915ZM678 1435H772V1286H678V1435ZM397 1435H491V1286H397V1435Z"  />
<glyph unicode="&#xEC;" horiz-adv-x="471" d="M195 901Q195 924 183 935T150 946H61V1024H162Q225 1024 253 996T281 905V123Q281 78 326 78H414V0H313Q250 0 223 28T195 119V901ZM16 1434H131L268 1206H178L16 1434Z"  />
<glyph unicode="&#xED;" horiz-adv-x="471" d="M195 901Q195 924 183 935T150 946H61V1024H162Q225 1024 253 996T281 905V123Q281 78 326 78H414V0H313Q250 0 223 28T195 119V901ZM315 1434H430L268 1206H178L315 1434Z"  />
<glyph unicode="&#xEE;" horiz-adv-x="471" d="M195 901Q195 924 183 935T150 946H61V1024H162Q225 1024 253 996T281 905V123Q281 78 326 78H414V0H313Q250 0 223 28T195 119V901ZM170 1434H276L440 1206H340L225 1370H221L106 1206H6L170 1434Z"  />
<glyph unicode="&#xEF;" horiz-adv-x="471" d="M195 901Q195 924 183 935T150 946H61V1024H162Q225 1024 253 996T281 905V123Q281 78 326 78H414V0H313Q250 0 223 28T195 119V901ZM287 1434H381V1284H287V1434ZM57 1434H152V1284H57V1434Z"  />
<glyph unicode="&#xF0;" horiz-adv-x="1139" d="M76 471Q76 563 107 650T199 806T353 916T569 958Q654 958 716 937T820 890Q868 860 901 823H905Q865 948 794 1039T625 1198L272 1034L238 1110L537 1249Q467 1286 389 1315T223 1366L248 1444Q339 1421 439 1385T633 1292L885 1411L920 1335L713 1239Q780 1188 838 1120T940 967T1007 779T1032 553Q1032 451 1003 348T914 162T760 27T537 -25Q426 -25 341 17T196 130T107 289T76 471ZM166 471Q166 393 191 319T264 186T382 93T541 57Q611 57 668 77T769 133T846 216T900 317T931 428T942 539Q942 612 915 674T839 781T721 851T567 877Q464 877 389 842T264 750T190 619T166 471Z"  />
<glyph unicode="&#xF1;" horiz-adv-x="1214" d="M182 901Q182 946 137 946H49V1024H150Q213 1024 240 997T268 911V854Q268 836 268 821T266 794Q265 781 264 770H268Q281 806 314 854T400 945T527 1019T698 1049Q798 1049 863 1021T967 940T1020 814T1036 649V123Q1036 100 1048 89T1081 78H1169V0H1069Q1006 0 978 28T950 119V618Q950 685 943 747T911 858T835 936T698 965Q626 965 560 941T439 874T344 770T285 639Q275 607 272 572T268 500V0H182V901ZM336 1214Q336 1435 506 1435Q557 1435 590 1412T650 1360T702 1308T764 1284Q791 1284 807 1300T832 1339T843 1386T846 1429H928Q928 1320 886 1264T758 1208Q724 1208 698 1219T652 1247T614 1284T579 1320T543 1348T500 1360Q473 1360 457 1344T432 1305T421 1257T418 1214H336Z"  />
<glyph unicode="&#xF2;" horiz-adv-x="1241" d="M90 518Q90 630 132 727T246 895T414 1008T621 1049Q730 1049 826 1008T995 896T1109 727T1151 518Q1151 404 1109 305T995 132T827 17T621 -25Q511 -25 415 17T246 132T132 304T90 518ZM180 518Q180 420 214 337T309 191T449 94T621 59Q712 59 792 94T932 191T1026 336T1061 518Q1061 613 1027 695T932 837T792 931T621 965Q529 965 449 931T309 837T215 695T180 518ZM414 1435H529L666 1208H576L414 1435Z"  />
<glyph unicode="&#xF3;" horiz-adv-x="1241" d="M90 518Q90 630 132 727T246 895T414 1008T621 1049Q730 1049 826 1008T995 896T1109 727T1151 518Q1151 404 1109 305T995 132T827 17T621 -25Q511 -25 415 17T246 132T132 304T90 518ZM180 518Q180 420 214 337T309 191T449 94T621 59Q712 59 792 94T932 191T1026 336T1061 518Q1061 613 1027 695T932 837T792 931T621 965Q529 965 449 931T309 837T215 695T180 518ZM713 1435H827L665 1208H575L713 1435Z"  />
<glyph unicode="&#xF4;" horiz-adv-x="1241" d="M90 518Q90 630 132 727T246 895T414 1008T621 1049Q730 1049 826 1008T995 896T1109 727T1151 518Q1151 404 1109 305T995 132T827 17T621 -25Q511 -25 415 17T246 132T132 304T90 518ZM180 518Q180 420 214 337T309 191T449 94T621 59Q712 59 792 94T932 191T1026 336T1061 518Q1061 613 1027 695T932 837T792 931T621 965Q529 965 449 931T309 837T215 695T180 518ZM568 1435H674L838 1208H738L623 1372H619L504 1208H404L568 1435Z"  />
<glyph unicode="&#xF5;" horiz-adv-x="1241" d="M90 518Q90 630 132 727T246 895T414 1008T621 1049Q730 1049 826 1008T995 896T1109 727T1151 518Q1151 404 1109 305T995 132T827 17T621 -25Q511 -25 415 17T246 132T132 304T90 518ZM180 518Q180 420 214 337T309 191T449 94T621 59Q712 59 792 94T932 191T1026 336T1061 518Q1061 613 1027 695T932 837T792 931T621 965Q529 965 449 931T309 837T215 695T180 518ZM319 1214Q319 1435 489 1435Q540 1435 573 1412T633 1360T685 1308T747 1284Q774 1284 790 1300T815 1339T826 1386T829 1429H911Q911 1320 869 1264T741 1208Q707 1208 681 1219T635 1247T597 1284T562 1320T526 1348T483 1360Q456 1360 440 1344T415 1305T404 1257T401 1214H319Z"  />
<glyph unicode="&#xF6;" horiz-adv-x="1241" d="M90 518Q90 630 132 727T246 895T414 1008T621 1049Q730 1049 826 1008T995 896T1109 727T1151 518Q1151 404 1109 305T995 132T827 17T621 -25Q511 -25 415 17T246 132T132 304T90 518ZM180 518Q180 420 214 337T309 191T449 94T621 59Q712 59 792 94T932 191T1026 336T1061 518Q1061 613 1027 695T932 837T792 931T621 965Q529 965 449 931T309 837T215 695T180 518ZM715 1435H809V1286H715V1435ZM434 1435H528V1286H434V1435Z"  />
<glyph unicode="&#xF7;" horiz-adv-x="1229" d="M535 1004H651V883H535V1004ZM106 621H1081V539H106V621ZM535 276H651V156H535V276Z"  />
<glyph unicode="&#xF8;" horiz-adv-x="1241" d="M283 98Q193 173 142 280T90 518Q90 630 132 727T246 895T414 1008T621 1049Q698 1049 769 1028T903 969L981 1077L1051 1024L973 915Q1054 843 1102 741T1151 518Q1151 404 1109 305T995 132T827 17T621 -25Q473 -25 354 47L279 -59L209 -6L283 98ZM854 899Q803 930 745 947T621 965Q529 965 449 931T309 837T215 695T180 518Q180 410 221 321T332 168L854 899ZM403 117Q451 89 506 74T621 59Q712 59 792 94T932 191T1026 336T1061 518Q1061 617 1024 700T922 844L403 117Z"  />
<glyph unicode="&#xF9;" horiz-adv-x="1204" d="M178 901Q178 946 133 946H45V1024H145Q208 1024 236 997T264 911V406Q264 339 271 277T304 166T380 88T516 59Q612 59 689 98T822 202T906 350T936 524V1024H1022V123Q1022 78 1067 78H1155V0H1055Q992 0 964 27T936 113V170Q936 187 936 203T938 230Q939 243 940 254H936Q923 218 891 170T806 79T682 5T516 -25Q421 -25 357 1T253 77T196 202T178 375V901ZM381 1435H496L633 1208H543L381 1435Z"  />
<glyph unicode="&#xFA;" horiz-adv-x="1204" d="M178 901Q178 946 133 946H45V1024H145Q208 1024 236 997T264 911V406Q264 339 271 277T304 166T380 88T516 59Q612 59 689 98T822 202T906 350T936 524V1024H1022V123Q1022 78 1067 78H1155V0H1055Q992 0 964 27T936 113V170Q936 187 936 203T938 230Q939 243 940 254H936Q923 218 891 170T806 79T682 5T516 -25Q421 -25 357 1T253 77T196 202T178 375V901ZM680 1435H794L632 1208H542L680 1435Z"  />
<glyph unicode="&#xFB;" horiz-adv-x="1204" d="M178 901Q178 946 133 946H45V1024H145Q208 1024 236 997T264 911V406Q264 339 271 277T304 166T380 88T516 59Q612 59 689 98T822 202T906 350T936 524V1024H1022V123Q1022 78 1067 78H1155V0H1055Q992 0 964 27T936 113V170Q936 187 936 203T938 230Q939 243 940 254H936Q923 218 891 170T806 79T682 5T516 -25Q421 -25 357 1T253 77T196 202T178 375V901ZM535 1435H641L805 1208H705L590 1372H586L471 1208H371L535 1435Z"  />
<glyph unicode="&#xFC;" horiz-adv-x="1204" d="M178 901Q178 946 133 946H45V1024H145Q208 1024 236 997T264 911V406Q264 339 271 277T304 166T380 88T516 59Q612 59 689 98T822 202T906 350T936 524V1024H1022V123Q1022 78 1067 78H1155V0H1055Q992 0 964 27T936 113V170Q936 187 936 203T938 230Q939 243 940 254H936Q923 218 891 170T806 79T682 5T516 -25Q421 -25 357 1T253 77T196 202T178 375V901ZM682 1435H776V1286H682V1435ZM401 1435H495V1286H401V1435Z"  />
<glyph unicode="&#xFD;" horiz-adv-x="1090" d="M74 -268Q74 -269 85 -281T117 -309T166 -336T227 -348Q264 -348 294 -333T349 -293T393 -234T428 -164L502 6L131 897Q119 926 101 936T53 946H37V1024H51Q90 1024 115 1020T158 1003T190 967T219 905L510 207Q518 188 524 172T535 141L545 111H549L559 141Q564 155 570 171T584 207L872 905Q887 943 901 966T933 1002T976 1019T1040 1024H1055V946H1038Q1009 946 991 936T961 897L487 -240Q470 -280 446 -314T389 -374T316 -415T227 -430Q176 -430 139 -415T75 -382Q45 -361 23 -334L74 -268ZM631 1435H745L583 1208H493L631 1435Z"  />
<glyph unicode="&#xFE;" horiz-adv-x="1165" d="M176 1311Q176 1356 131 1356H43V1434H143Q206 1434 234 1406T262 1315V918Q262 898 262 881T260 852Q259 838 258 827H262Q307 929 396 989T625 1049Q729 1049 812 1010T952 900T1040 731T1071 512Q1071 392 1041 294T953 124T812 14T625 -25Q573 -25 530 -16T452 8T389 42T340 82Q291 130 262 190H258Q259 179 260 165Q261 153 261 137T262 100V-410H176V1311ZM260 512Q260 388 291 302T373 162T490 84T625 59Q705 59 770 91T883 182T955 324T981 512Q981 615 956 699T883 842T771 933T625 965Q552 965 486 941T370 862T290 722T260 512Z"  />
<glyph unicode="&#xFF;" horiz-adv-x="1090" d="M74 -268Q74 -269 85 -281T117 -309T166 -336T227 -348Q264 -348 294 -333T349 -293T393 -234T428 -164L502 6L131 897Q119 926 101 936T53 946H37V1024H51Q90 1024 115 1020T158 1003T190 967T219 905L510 207Q518 188 524 172T535 141L545 111H549L559 141Q564 155 570 171T584 207L872 905Q887 943 901 966T933 1002T976 1019T1040 1024H1055V946H1038Q1009 946 991 936T961 897L487 -240Q470 -280 446 -314T389 -374T316 -415T227 -430Q176 -430 139 -415T75 -382Q45 -361 23 -334L74 -268ZM633 1435H727V1286H633V1435ZM352 1435H446V1286H352V1435Z"  />
<glyph unicode="&#x152;" horiz-adv-x="1827" d="M84 717Q84 872 134 1006T274 1240T489 1397T764 1454Q794 1454 833 1451T912 1444T989 1437T1053 1434H1593Q1656 1434 1684 1406T1712 1315V1206H1626V1307Q1626 1352 1581 1352H1036V764H1587V682H1036V82H1642Q1688 82 1688 127V227H1774V119Q1774 56 1748 28T1667 0H1055Q1029 0 992 -3T914 -10T834 -17T764 -20Q614 -20 489 36T274 192T134 426T84 717ZM176 717Q176 578 218 459T337 253T522 116T764 66Q782 66 806 67T856 70T906 75T948 82V1352Q930 1356 906 1359T857 1364T807 1367T764 1368Q631 1368 523 1318T337 1181T218 974T176 717Z"  />
<glyph unicode="&#x153;" horiz-adv-x="2083" d="M90 510Q90 632 132 731T247 901T415 1010T618 1049Q696 1049 769 1028T904 967T1016 871T1098 743H1102Q1132 818 1179 875T1285 970T1413 1029T1556 1049Q1661 1049 1739 1011T1869 909T1948 760T1974 582Q1974 573 1974 563T1972 545Q1971 535 1970 526H1149Q1152 411 1188 324T1284 178T1422 89T1587 59Q1661 59 1719 79T1820 123Q1868 151 1905 188L1952 117Q1908 77 1852 46Q1804 19 1737 -3T1587 -25Q1506 -25 1432 -4T1296 56T1184 153T1104 283H1100Q1068 211 1019 154T907 57T771 -4T618 -25Q511 -25 416 12T248 120T133 289T90 510ZM1884 606Q1880 700 1852 768T1779 881T1676 947T1554 969Q1483 969 1418 946T1298 878T1207 764T1155 606H1884ZM180 510Q180 408 215 325T309 183T448 91T618 59Q708 59 788 91T928 184T1024 329T1059 520Q1059 622 1023 704T926 844T786 933T618 965Q528 965 449 932T310 840T215 696T180 510Z"  />
<glyph unicode="&#x160;" horiz-adv-x="1032" d="M139 238Q184 188 242 149Q292 116 362 89T522 61Q589 61 647 82T748 143T817 235T842 354Q842 429 811 483T729 579T613 652T481 714T348 779T232 858T150 964T119 1108Q119 1177 148 1240T231 1352T363 1429T539 1458Q570 1458 609 1454T690 1439T771 1411T841 1368T890 1308T909 1229V1139H821V1208Q821 1244 798 1274T737 1325T648 1359T541 1372Q461 1372 400 1350T296 1292T233 1208T211 1110Q211 1040 242 990T324 902T440 834T572 773T705 707T821 624T903 512T934 358Q934 281 905 212T822 90T691 6T518 -25Q465 -25 418 -17T331 5T256 36T193 72Q128 115 80 170L139 238ZM311 1763H411L526 1599H530L645 1763H745L581 1536H475L311 1763Z"  />
<glyph unicode="&#x161;" horiz-adv-x="874" d="M125 215Q157 171 204 137Q244 108 303 84T442 59Q491 59 536 71T617 108T673 168T694 252Q694 300 669 335T602 397T507 446T399 490T291 538T197 596T130 675T104 782Q104 848 130 898T203 981T314 1032T455 1049Q488 1049 537 1041T632 1013T710 959T743 874V797H657V846Q657 878 636 900T585 937T520 958T459 965Q334 965 265 921T195 788Q195 739 220 704T287 641T381 593T489 549T598 501T692 442T758 361T784 252Q784 190 758 140T685 52T576 -5T440 -25Q392 -25 350 -18T273 2T208 30T155 63Q100 102 63 152L125 215ZM223 1435H323L438 1271H442L557 1435H657L493 1208H387L223 1435Z"  />
<glyph unicode="&#x178;" horiz-adv-x="1192" d="M553 623L147 1296Q129 1328 104 1340T47 1352H20V1434H39Q77 1434 104 1430T152 1414T194 1378T238 1315L506 868Q521 842 536 814T565 762Q580 734 594 707H598Q611 734 626 762Q639 786 654 814T686 868L954 1315Q978 1354 997 1377T1039 1413T1088 1430T1153 1434H1171V1352H1145Q1114 1352 1089 1340T1044 1296L641 623V0H553V623ZM692 1763H786V1614H692V1763ZM411 1763H505V1614H411V1763Z"  />
<glyph unicode="&#x17D;" horiz-adv-x="1165" d="M41 70L864 1221Q883 1247 902 1271T936 1313Q954 1334 969 1352V1356Q958 1355 943 1354Q930 1353 911 1353T864 1352H195Q150 1352 150 1307V1206H63V1315Q63 1378 91 1406T182 1434H1075V1364L252 213Q232 186 214 162T180 120Q162 99 147 82V78Q157 79 172 80Q185 81 205 81T252 82H971Q992 82 1004 93T1016 127V227H1102V119Q1102 56 1074 28T983 0H41V70ZM375 1763H475L590 1599H594L709 1763H809L645 1536H539L375 1763Z"  />
<glyph unicode="&#x17E;" horiz-adv-x="1010" d="M92 70L713 850Q727 867 741 884T767 915Q780 931 793 944V948Q782 947 766 946Q752 945 733 945T688 944H227Q206 944 194 933T182 899V811H98V905Q98 968 126 996T217 1024H909V954L287 174Q273 156 259 140T232 109Q218 93 205 80V76Q217 77 233 78Q247 79 266 79T311 80H823Q868 80 868 125V213H952V119Q952 56 925 28T834 0H92V70ZM307 1435H407L522 1271H526L641 1435H741L577 1208H471L307 1435Z"  />
<glyph unicode="&#x192;" horiz-adv-x="682" d="M-57 -115Q-69 -115 -78 -115T-95 -113Q-103 -112 -109 -111L-100 -31Q-95 -32 -88 -33Q-82 -34 -74 -34T-55 -35Q-24 -35 18 -26T101 14T173 104T213 262L258 774H86V852H266L285 1065Q292 1149 314 1210T367 1313T435 1381T509 1421T581 1439T641 1444Q653 1444 663 1444T680 1442Q688 1441 694 1440L686 1360Q680 1361 673 1362Q667 1363 659 1363T639 1364Q607 1364 565 1355T483 1315T411 1225T371 1067L350 852H582V774H344L299 264Q291 179 269 118T216 15T148 -53T74 -92T3 -110T-57 -115Z"  />
<glyph unicode="&#x2C6;" horiz-adv-x="934" d="M414 1763H520L684 1536H584L469 1700H465L350 1536H250L414 1763Z"  />
<glyph unicode="&#x2C7;" horiz-adv-x="944" d="M250 1763H350L465 1599H469L584 1763H684L520 1536H414L250 1763Z"  />
<glyph unicode="&#x2C9;" horiz-adv-x="940" d="M238 1692H727V1610H238V1692Z"  />
<glyph unicode="&#x2DA;" horiz-adv-x="762" d="M381 1516Q352 1516 327 1526T284 1555T255 1599T244 1653Q244 1682 254 1707T283 1750T327 1779T381 1790Q410 1790 435 1780T478 1751T507 1707T518 1653Q518 1624 508 1599T479 1556T435 1527T381 1516ZM381 1587Q410 1587 428 1605T446 1653Q446 1684 428 1702T381 1720Q352 1720 334 1702T315 1653Q315 1624 333 1606T381 1587Z"  />
<glyph unicode="&#x2DC;" horiz-adv-x="956" d="M176 1542Q176 1763 346 1763Q397 1763 430 1740T490 1688T542 1636T604 1612Q631 1612 647 1628T672 1667T683 1714T686 1757H768Q768 1648 726 1592T598 1536Q564 1536 538 1547T492 1575T454 1612T419 1648T383 1676T340 1688Q313 1688 297 1672T272 1633T261 1585T258 1542H176Z"  />
<glyph unicode="&#x3BC;" horiz-adv-x="1204" d="M45 1024H145Q208 1024 236 997T264 911V406Q264 339 271 277T304 166T380 88T516 59Q612 59 689 98T822 202T906 350T936 524V1024H1022V123Q1022 78 1067 78H1155V0H1055Q992 0 964 27T936 113V170Q936 187 936 203T938 230Q939 243 940 254H936Q901 176 843 114Q818 88 786 63T714 19T624 -13T516 -25Q440 -25 391 -9T311 27Q276 50 256 80H252Q255 50 258 22Q260 -2 262 -27T264 -68V-410H178V901Q178 946 133 946H45V1024Z"  />
<glyph unicode="&#x2013;" horiz-adv-x="1294" d="M160 621H1135V539H160V621Z"  />
<glyph unicode="&#x2014;" horiz-adv-x="1704" d="M160 621H1544V539H160V621Z"  />
<glyph unicode="&#x2018;" horiz-adv-x="403" d="M211 1448H291L219 1139H113L211 1448Z"  />
<glyph unicode="&#x2019;" horiz-adv-x="403" d="M184 1452H291L193 1143H113L184 1452Z"  />
<glyph unicode="&#x201A;" horiz-adv-x="403" d="M291 125L193 -184H113L184 125H291Z"  />
<glyph unicode="&#x201C;" horiz-adv-x="608" d="M416 1448H496L424 1139H317L416 1448ZM211 1448H291L219 1139H113L211 1448Z"  />
<glyph unicode="&#x201D;" horiz-adv-x="608" d="M389 1452H496L397 1143H317L389 1452ZM184 1452H291L193 1143H113L184 1452Z"  />
<glyph unicode="&#x201E;" horiz-adv-x="608" d="M389 125H496L397 -184H317L389 125ZM291 125L193 -184H113L184 125H291Z"  />
<glyph unicode="&#x2020;" horiz-adv-x="686" d="M295 942H61V1024H295V1434H381V1024H625V942H381V-102H295V942Z"  />
<glyph unicode="&#x2021;" horiz-adv-x="686" d="M295 381H61V463H295V942H61V1024H295V1434H381V1024H625V942H381V463H625V381H381V-102H295V381Z"  />
<glyph unicode="&#x2022;" horiz-adv-x="872" d="M436 326Q380 326 331 347T245 404T187 490T166 596Q166 652 187 701T245 787T331 845T436 866Q492 866 541 845T627 787T685 701T707 596Q707 540 686 491T628 405T542 347T436 326Z"  />
<glyph unicode="&#x2026;" horiz-adv-x="1513" d="M1135 121H1251V0H1135V121ZM698 121H815V0H698V121ZM262 121H379V0H262V121Z"  />
<glyph unicode="&#x2030;" horiz-adv-x="2062" d="M399 924Q344 924 296 944T211 1001T154 1085T133 1190Q133 1245 154 1294T211 1379T295 1437T399 1458Q454 1458 503 1437T589 1380T647 1294T668 1190Q668 1134 647 1086T589 1001T503 945T399 924ZM1217 1434H1323L236 0H129L1217 1434ZM399 1006Q438 1006 471 1020T528 1059T566 1117T580 1190Q580 1228 566 1262T528 1321T471 1361T399 1376Q361 1376 329 1362T272 1322T235 1262T221 1190Q221 1151 234 1118T272 1060T328 1021T399 1006ZM1436 242Q1436 297 1456 346T1513 431T1597 489T1702 510Q1757 510 1806 489T1891 432T1949 346T1970 242Q1970 186 1949 138T1892 53T1806 -4T1702 -25Q1646 -25 1598 -4T1513 53T1457 137T1436 242ZM780 242Q780 297 801 346T858 431T942 489T1047 510Q1102 510 1151 489T1236 432T1294 346T1315 242Q1315 186 1294 138T1237 53T1151 -4T1047 -25Q991 -25 943 -4T858 53T801 137T780 242ZM1524 242Q1524 203 1537 170T1574 111T1630 72T1702 57Q1740 57 1773 71T1830 111T1868 169T1882 242Q1882 280 1868 314T1830 373T1773 413T1702 428Q1663 428 1631 414T1575 374T1538 314T1524 242ZM868 242Q868 203 881 170T919 111T975 72T1047 57Q1085 57 1118 71T1175 111T1213 169T1227 242Q1227 280 1213 314T1175 373T1118 413T1047 428Q1008 428 976 414T919 374T882 314T868 242Z"  />
<glyph unicode="&#x2039;" horiz-adv-x="657" d="M70 578L406 999H514L178 578L514 158H406L70 578Z"  />
<glyph unicode="&#x203A;" horiz-adv-x="657" d="M479 578L143 999H252L588 578L252 158H143L479 578Z"  />
<glyph unicode="&#x20AC;" horiz-adv-x="1188" d="M82 641H193Q191 653 190 665Q189 676 189 689T188 717Q188 734 188 752T191 787Q193 805 195 823H82V905H209Q237 1026 300 1127T452 1302T652 1417T891 1458Q931 1458 964 1455T1022 1447Q1050 1442 1073 1436L1053 1350Q1031 1356 1005 1361Q982 1365 953 1368T891 1372Q781 1372 686 1338T514 1243T384 1095T303 905H975L958 823H287Q285 810 283 794Q281 780 280 762T279 721Q279 710 279 697T281 671Q282 656 283 641H926L911 559H295Q318 449 371 358T502 200T678 98T891 61Q930 61 963 65T1020 74Q1048 80 1071 88L1096 4Q1070 -5 1037 -11Q1009 -16 972 -20T891 -25Q760 -25 646 18T441 139T289 324T203 559H82V641Z"  />
<glyph unicode="&#x2122;" horiz-adv-x="1987" d="M850 616H903Q916 616 921 621T928 639L989 1434H1061L1319 881Q1326 865 1331 851T1340 825Q1344 812 1348 799H1352Q1355 812 1359 825Q1363 836 1368 850T1380 881L1638 1434H1710L1772 639Q1774 627 1779 622T1796 616H1849V541H1790Q1762 541 1745 545T1717 561T1701 590T1694 637L1647 1212Q1645 1236 1647 1253Q1648 1263 1649 1270H1645L1384 709H1315L1055 1270H1051Q1052 1263 1053 1253Q1055 1236 1053 1212L1006 637Q1003 609 998 591T983 561T955 546T909 541H850V616ZM424 1356H199Q176 1356 176 1333V1272H96V1337Q96 1365 100 1383T116 1413T146 1429T193 1434H737Q792 1434 813 1413T834 1337V1272H754V1333Q754 1356 731 1356H504V541H424V1356Z"  />
<glyph unicode="&#x2219;" horiz-adv-x="395" d="M139 647H256V526H139V647Z"  />

</font>
</defs>
</svg>
